<svg width="19" height="24" viewBox="0 0 19 24" fill="none" xmlns="http://www.w3.org/2000/svg">
<path d="M16.418 5.3335H14.168C14.168 2.84725 12.1542 0.833496 9.66797 0.833496C7.18172 0.833496 5.16797 2.84725 5.16797 5.3335H2.91797C1.68047 5.3335 0.667969 6.346 0.667969 7.5835V21.0835C0.667969 22.321 1.68047 23.3335 2.91797 23.3335H16.418C17.6555 23.3335 18.668 22.321 18.668 21.0835V7.5835C18.668 6.346 17.6555 5.3335 16.418 5.3335ZM9.66797 3.0835C10.9055 3.0835 11.918 4.096 11.918 5.3335H7.41797C7.41797 4.096 8.43047 3.0835 9.66797 3.0835ZM16.418 21.0835H2.91797V7.5835H5.16797V9.8335C5.16797 10.4522 5.67422 10.9585 6.29297 10.9585C6.91172 10.9585 7.41797 10.4522 7.41797 9.8335V7.5835H11.918V9.8335C11.918 10.4522 12.4242 10.9585 13.043 10.9585C13.6617 10.9585 14.168 10.4522 14.168 9.8335V7.5835H16.418V21.0835Z" fill="#323232"/>
</svg>
