<svg width="512" height="512" viewBox="0 0 512 512" fill="none" xmlns="http://www.w3.org/2000/svg">
<path d="M0 256C0 114.615 114.615 0 256 0V0C397.385 0 512 114.615 512 256V256C512 397.385 397.385 512 256 512V512C114.615 512 0 397.385 0 256V256Z" fill="white"/>
<path d="M323.297 304.001L389.119 266.39L374.015 258.838C369.779 256.719 367.354 252.146 367.981 247.45L372.896 210.605L345.029 218.712C338.873 220.504 332.485 216.717 331.1 210.458L328.431 198.395L302.266 229.017C298.638 233.262 291.728 230.02 292.675 224.516L303.849 159.543L286.741 164.222C281.744 165.589 276.466 163.315 274.03 158.743L256.015 124.978V124.928L256.002 124.953L255.988 124.928V124.978L237.973 158.743C235.534 163.313 230.257 165.588 225.259 164.222L208.15 159.543L219.324 224.516C220.271 230.018 213.36 233.261 209.732 229.017L183.567 198.395L180.898 210.458C179.513 216.718 173.125 220.503 166.969 218.712L139.102 210.605L144.017 247.45C144.644 252.144 142.219 256.719 137.983 258.838L122.879 266.39L188.701 304.002C195.519 307.899 198.507 316.162 195.757 323.517L190.13 338.566L246.53 333.751C249.651 333.485 252.308 335.998 252.216 339.128L250.439 399.498H261.532L259.754 339.126C259.662 335.994 262.319 333.482 265.44 333.749L321.867 338.566L316.24 323.517C313.492 316.161 316.479 307.896 323.297 304.001Z" fill="#ED1B24"/>
<path d="M512 255.999C512 183.5 481.5 115 427 65.4805V446.5C483 395 512 328.507 512 255.999Z" fill="#ED1B24"/>
<path d="M0 255.501C0 328 30.5 396.5 85 446.02L85 64.9998C29 116.5 0 182.993 0 255.501Z" fill="#ED1B24"/>
</svg>
