<svg width="512" height="512" viewBox="0 0 512 512" fill="none" xmlns="http://www.w3.org/2000/svg">
<path d="M256 512C397.385 512 512 397.385 512 256C512 114.615 397.385 0 256 0C114.615 0 0 114.615 0 256C0 397.385 114.615 512 256 512Z" fill="white"/>
<path d="M511.997 256C511.997 165.861 470.197 87.9753 409.598 51.1997V460.8C470.197 424.025 511.997 346.14 511.997 256Z" fill="#D80027"/>
<path d="M0 256C0 346.139 41.7997 424.024 102.4 460.8V51.1997C41.7997 87.9752 0 165.86 0 256Z" fill="#D80027"/>
<path d="M320.001 288L384 256L352.001 240.001V208L288 240.001L320.001 176H288L256 128L224 176H191.999L224 240.001L159.999 208V240.001L128 256L191.999 288L176 320.001H240.001V368.001H271.999V320.001H336L320.001 288Z" fill="#D80027"/>
</svg>
