<svg width="1512" height="280" viewBox="0 0 1512 280" fill="none" xmlns="http://www.w3.org/2000/svg">
<path opacity="0.6" d="M0.22697 0V280H1511.73V119.772C1401.85 123.682 1153.5 127.405 928.974 94.5705C867.033 85.5184 809.309 76.1172 753.468 67.0301C544.728 33.0322 346.796 0.861001 0.22697 0Z" fill="url(#paint0_linear_3045_272)"/>
<path d="M0.225786 0C346.795 0.861001 544.727 33.0322 753.737 67.0301C809.574 76.1172 867.298 85.5184 929.239 94.5705C1153.77 127.405 1402.11 123.659 1512 119.772V122.914C1464.12 124.569 1415.88 125.393 1367.58 125.38C1242.44 125.38 1077.25 119.831 923.095 97.2815C860.933 88.1945 803.027 78.7817 747.097 69.6713C530.597 34.4401 342.893 3.90942 3.50292e-05 3.11822L0.225786 0Z" fill="#FF4C30"/>
<defs>
<linearGradient id="paint0_linear_3045_272" x1="756.117" y1="0" x2="756.117" y2="280" gradientUnits="userSpaceOnUse">
<stop stop-color="#FF4C30" stop-opacity="0.5"/>
<stop offset="1" stop-color="white" stop-opacity="0"/>
</linearGradient>
</defs>
</svg>
