<svg width="1512" height="218" viewBox="0 0 1512 218" fill="none" xmlns="http://www.w3.org/2000/svg">
<path opacity="0.6" d="M2.18922e-06 0V218H1512V119.966C1402.09 123.882 1153.7 127.611 929.136 94.7238C867.185 85.657 809.45 76.2406 753.6 67.1388C544.598 33.0857 346.632 0.862397 2.18922e-06 0V0Z" fill="url(#paint0_linear_3046_275)"/>
<path d="M2.18922e-06 0C346.632 0.862903 544.598 33.1051 753.6 67.1781C809.45 76.2853 867.185 85.7072 929.136 94.7794C1153.7 127.686 1402.09 123.955 1512 120.037V123.185C1476.16 124.445 1426.41 125.657 1367.82 125.657C1242.66 125.657 1077.44 120.095 923.26 97.4963C861.084 88.3892 803.17 78.9556 747.23 69.8252C530.692 34.5161 342.953 3.91805 2.18922e-06 3.12511V0V0Z" fill="#FF4C30"/>
<defs>
<linearGradient id="paint0_linear_3046_275" x1="756.022" y1="0" x2="756.022" y2="218" gradientUnits="userSpaceOnUse">
<stop stop-color="#FF4C30" stop-opacity="0.65"/>
<stop offset="0.79" stop-color="#1D2621" stop-opacity="0.06"/>
<stop offset="0.86" stop-color="#181818" stop-opacity="0"/>
</linearGradient>
</defs>
</svg>
