<svg width="50" height="21" viewBox="0 0 50 21" fill="none" xmlns="http://www.w3.org/2000/svg">
<g clip-path="url(#clip0)">
<path d="M6.46548 4.37402C2.93879 4.37402 0 5.87002 0 10.384C0 13.9601 1.97615 16.2119 6.55637 16.2119C11.9476 16.2119 12.2932 12.6605 12.2932 12.6605H9.68095C9.68095 12.6605 9.12091 14.5728 6.3971 14.5728C4.17862 14.5728 2.58306 13.0742 2.58306 10.9738H12.5665V9.65555C12.5665 7.57749 11.2473 4.37402 6.46548 4.37402V4.37402ZM6.37425 6.05865C8.48599 6.05865 9.92562 7.35234 9.92562 9.2913H2.64076C2.64076 7.23276 4.52001 6.05865 6.37425 6.05865V6.05865Z" fill="#919BB1"/>
<path d="M12.5644 0.00292969V13.9451C12.5644 14.7364 12.5078 15.8477 12.5078 15.8477H14.9993C14.9993 15.8477 15.0889 15.0496 15.0889 14.3201C15.0889 14.3201 16.3199 16.2461 19.6671 16.2461C23.1918 16.2461 25.586 13.7988 25.586 10.293C25.586 7.03128 23.3869 4.40803 19.6728 4.40803C16.1948 4.40803 15.114 6.28612 15.114 6.28612V0.00292969H12.5644ZM19.0297 6.13252C21.4233 6.13252 22.9454 7.90904 22.9454 10.293C22.9454 12.8493 21.1874 14.5216 19.0468 14.5216C16.4921 14.5216 15.114 12.5268 15.114 10.3156C15.114 8.25527 16.3505 6.13252 19.0297 6.13252V6.13252Z" fill="#919BB1"/>
<path d="M31.7778 4.37402C26.4723 4.37402 26.132 7.27896 26.132 7.74327H28.7728C28.7728 7.74327 28.9112 6.04731 31.5957 6.04731C33.34 6.04731 34.6918 6.84584 34.6918 8.3807V8.92706H31.5957C27.4854 8.92706 25.3125 10.1295 25.3125 12.5697C25.3125 14.9709 27.3202 16.2775 30.0335 16.2775C33.7313 16.2775 34.9224 14.2343 34.9224 14.2343C34.9224 15.047 34.985 15.8478 34.985 15.8478H37.3325C37.3325 15.8478 37.2416 14.8552 37.2416 14.2201V8.73076C37.2416 5.13136 34.3384 4.37402 31.7778 4.37402V4.37402ZM34.6918 10.5662V11.2946C34.6918 12.2448 34.1054 14.607 30.6537 14.607C28.7636 14.607 27.9533 13.6637 27.9533 12.5695C27.9533 10.579 30.6822 10.5662 34.6918 10.5662Z" fill="#919BB1"/>
<path d="M35.8203 4.82959H38.7911L43.0548 13.3716L47.3086 4.82959H49.9999L42.2516 20.0371H39.4286L41.6644 15.7977L35.8203 4.82959V4.82959Z" fill="#919BB1"/>
</g>
<defs>
<clipPath id="clip0">
<rect width="50" height="20.04" fill="white"/>
</clipPath>
</defs>
</svg>
