<svg width="512" height="512" viewBox="0 0 512 512" fill="none" xmlns="http://www.w3.org/2000/svg">
<path d="M256 512C397.385 512 512 397.385 512 256C512 114.615 397.385 0 256 0C114.615 0 0 114.615 0 256C0 397.385 114.615 512 256 512Z" fill="#0052B4"/>
<path d="M256.001 100.174L264.29 125.683H291.11L269.411 141.448L277.7 166.957L256.001 151.191L234.301 166.957L242.59 141.448L220.891 125.683H247.712L256.001 100.174Z" fill="#FFDA44"/>
<path d="M145.814 145.814L169.714 157.99L188.679 139.026L184.482 165.516L208.381 177.693L181.89 181.889L177.694 208.381L165.517 184.482L139.027 188.679L157.992 169.714L145.814 145.814Z" fill="#FFDA44"/>
<path d="M100.176 256L125.685 247.711V220.89L141.449 242.59L166.959 234.301L151.192 256L166.959 277.699L141.449 269.411L125.685 291.11V264.289L100.176 256Z" fill="#FFDA44"/>
<path d="M145.814 366.186L157.991 342.286L139.027 323.321L165.518 327.519L177.693 303.62L181.89 330.111L208.38 334.307L184.484 346.484L188.679 372.974L169.714 354.009L145.814 366.186Z" fill="#FFDA44"/>
<path d="M256.001 411.826L247.711 386.317H220.891L242.591 370.552L234.301 345.045L256.001 360.809L277.7 345.045L269.411 370.552L291.11 386.317H264.289L256.001 411.826Z" fill="#FFDA44"/>
<path d="M366.186 366.186L342.287 354.01L323.321 372.975L327.518 346.483L303.621 334.307L330.111 330.111L334.307 303.62L346.483 327.519L372.973 323.321L354.008 342.288L366.186 366.186Z" fill="#FFDA44"/>
<path d="M411.828 256L386.319 264.289V291.11L370.554 269.41L345.047 277.699L360.812 256L345.047 234.301L370.555 242.59L386.319 220.89V247.712L411.828 256Z" fill="#FFDA44"/>
<path d="M366.186 145.814L354.009 169.714L372.974 188.679L346.482 184.481L334.307 208.38L330.111 181.889L303.621 177.692L327.518 165.516L323.321 139.027L342.288 157.991L366.186 145.814Z" fill="#FFDA44"/>
</svg>
