<svg width="24" height="24" viewBox="0 0 24 24" fill="none" xmlns="http://www.w3.org/2000/svg">
  <path d="M2.00391 12.002C2.00507 16.9214 5.58231 21.1101 10.4409 21.881V14.892H7.90391V12.002H10.4439V9.80204C10.3304 8.75958 10.6864 7.72064 11.4155 6.96698C12.1447 6.21332 13.1713 5.82306 14.2169 5.90204C14.9674 5.91417 15.7161 5.98101 16.4569 6.10205V8.56104H15.1929C14.7578 8.50405 14.3203 8.64777 14.0037 8.95171C13.6871 9.25566 13.5257 9.68693 13.5649 10.124V12.002H16.3359L15.8929 14.893H13.5649V21.881C18.8194 21.0506 22.504 16.2518 21.9494 10.9611C21.3948 5.67041 16.7952 1.73997 11.4827 2.01722C6.17027 2.29447 2.00475 6.68235 2.00391 12.002Z" fill="#4A525E"/>
</svg>
