<svg width="65" height="13" viewBox="0 0 65 13" fill="none" xmlns="http://www.w3.org/2000/svg">
<g clip-path="url(#clip0)">
<path d="M13.8243 0.0976562L11.1523 12.2713H13.9025L16.5744 0.0976562H13.8243Z" fill="#919BB1"/>
<path d="M7.32505 2.71747L7.89854 0.0976562H2.67195L0 12.2713H2.75015L3.85151 7.25978H6.32795L6.91448 4.56828H4.44456L4.84861 2.71747H7.32505Z" fill="#919BB1"/>
<path d="M9.00592 9.70363L11.1174 0.0976562H8.36726L5.69531 12.2713H10.6417L11.2021 9.70363H9.00592Z" fill="#919BB1"/>
<path d="M28.53 0.0976562L27.5655 4.47053H26.4641L27.4286 0.0976562H24.6719L22 12.2713H24.7501L25.8711 7.17506H26.9724L25.858 12.2713H28.6082L31.2801 0.0976562H28.53Z" fill="#919BB1"/>
<path d="M31.7421 0.0976562L31.123 2.89994H32.5958L30.543 12.2713H33.2931L35.3525 2.89994H36.721L37.3401 0.0976562H31.7421Z" fill="#919BB1"/>
<path d="M19.1678 7.16195H19.9563L19.5132 9.18872C19.448 9.48198 19.2525 9.59277 19.0375 9.59277C17.8579 9.59277 18.2033 6.52981 19.2264 4.28146C19.8325 2.93897 20.9339 2.7174 21.566 2.77605C22.1004 2.82167 22.6609 2.93897 23.1366 3.06931C23.306 2.28076 23.5602 1.14681 23.7557 0.260508C23.2474 0.136687 22.4002 0.00634766 21.9049 0.00634766C19.8521 0.00634766 18.3662 0.814449 17.2323 2.44368C16.1635 3.97517 15.4336 6.81655 15.4336 8.66085C15.4336 11.0591 16.346 12.3755 19.0309 12.3755C19.826 12.3755 20.6732 12.3299 21.5334 12.0366L23.1953 4.47045H19.7739L19.1678 7.16195Z" fill="#919BB1"/>
<path d="M47.0867 9.71674L49.1981 0.104248H46.448L43.7695 12.2779H48.7224L49.2829 9.71674H47.0867Z" fill="#919BB1"/>
<path d="M55.8418 0.0978255C55.1184 3.38888 53.991 8.53075 53.8998 8.94784C53.7629 9.56695 53.4566 9.6647 53.0395 9.6647C52.5573 9.6647 52.466 9.39099 52.5703 8.94132C52.6094 8.77188 53.8216 3.25203 54.5124 0.0913086H51.7883C51.2343 2.60685 50.1264 7.67051 49.8267 9.03907C49.4226 10.8769 49.9049 11.496 50.3936 11.9C50.9932 12.3953 51.8209 12.4344 52.3878 12.4344C53.7108 12.4344 54.3885 12.1998 54.9816 11.7632C55.5746 11.3265 56.2328 10.727 56.5522 9.25413C56.7803 8.2049 57.9207 2.99787 58.5659 0.0913086L55.8418 0.0978255Z" fill="#919BB1"/>
<path d="M65.0007 2.02015C65.0007 0.821037 64.3295 0.0976562 62.6677 0.0976562H61.7358H59.0704L56.3984 12.2713H58.7836C60.4976 12.2713 61.1884 12.2322 61.9769 11.75C63.4497 10.8441 64.0362 8.498 64.0362 7.20764C64.0362 6.24965 63.5605 5.73481 63.3845 5.55234C64.3491 4.95278 65.0007 3.48647 65.0007 2.02015ZM60.9146 8.97373C60.7973 9.37778 60.491 9.6906 60.0675 9.6906H59.6308L60.2043 7.08382H60.6475C61.0124 7.08382 61.1884 7.39663 61.1884 7.67686C61.1884 7.94406 61.0254 8.60227 60.9146 8.97373ZM61.1297 4.52266H60.7648L61.2079 2.50893H61.5533C62.0095 2.50893 62.1138 2.95859 62.1138 3.18017C62.1072 3.79276 61.7293 4.52266 61.1297 4.52266Z" fill="#919BB1"/>
<path d="M44.1799 0C43.1697 0 41.723 0.175958 40.576 1.98767C39.6897 3.38881 38.7969 8.06146 38.7969 9.37137C38.7969 12.128 40.8367 12.3301 42.2965 12.3301C42.8048 12.3301 43.1632 12.2779 43.2675 12.2584L43.8996 9.37137C43.6194 9.39092 43.0133 9.41698 42.5506 9.37788C41.4688 9.28664 41.5731 8.36776 41.7099 7.55965C41.8468 6.76459 42.114 5.5394 42.3291 4.76389C42.505 4.14478 42.6549 3.5387 43.1763 3.12162C43.7302 2.67846 44.5318 2.85442 45.1639 2.97824L45.7896 0.117305C45.4442 0.0782033 44.8055 0 44.1799 0Z" fill="#919BB1"/>
</g>
<defs>
<clipPath id="clip0">
<rect width="65" height="12.4343" fill="white"/>
</clipPath>
</defs>
</svg>
