<svg width="998" height="191" viewBox="0 0 998 191" fill="none" xmlns="http://www.w3.org/2000/svg">
  <g clip-path="url(#clip0)">
    <path d="M212.102 1.5L171.102 188.3H213.302L254.302 1.5H212.102Z" fill="#E91C23"/>
    <path d="M112.4 41.7L121.2 1.5H41L0 188.3H42.2L59.1 111.4H97.1L106.1 70.1H68.2L74.4 41.7H112.4Z" fill="#E91C23"/>
    <path d="M138.198 148.9L170.598 1.5H128.398L87.3984 188.3H163.298L171.898 148.9H138.198Z" fill="#E91C23"/>
    <path d="M437.802 1.5L423.002 68.6H406.102L420.902 1.5H378.602L337.602 188.3H379.802L397.002 110.1H413.902L396.802 188.3H439.002L480.002 1.5H437.802Z" fill="#E91C23"/>
    <path d="M487.099 1.5L477.599 44.5H500.199L468.699 188.3H510.899L542.499 44.5H563.499L572.999 1.5H487.099Z" fill="#E91C23"/>
    <path d="M294.101 109.9H306.201L299.401 141C298.401 145.5 295.401 147.2 292.101 147.2C274.001 147.2 279.301 100.2 295.001 65.7001C304.301 45.1001 321.201 41.7001 330.901 42.6001C339.101 43.3001 347.701 45.1001 355.001 47.1001C357.601 35.0001 361.501 17.6001 364.501 4.0001C356.701 2.1001 343.701 0.100098 336.101 0.100098C304.601 0.100098 281.801 12.5001 264.401 37.5001C248.001 61.0001 236.801 104.6 236.801 132.9C236.801 169.7 250.801 189.9 292.001 189.9C304.201 189.9 317.201 189.2 330.401 184.7L355.901 68.6001H303.401L294.101 109.9Z" fill="#E91C23"/>
    <path d="M722.502 149.1L754.902 1.6001H712.702L671.602 188.4H747.602L756.202 149.1H722.502Z" fill="#E91C23"/>
    <path d="M856.799 1.4999C845.699 51.9999 828.399 130.9 826.999 137.3C824.899 146.8 820.199 148.3 813.799 148.3C806.399 148.3 804.999 144.1 806.599 137.2C807.199 134.6 825.799 49.8999 836.399 1.3999H794.599C786.099 39.9999 769.099 117.7 764.499 138.7C758.299 166.9 765.699 176.4 773.199 182.6C782.399 190.2 795.099 190.8 803.799 190.8C824.099 190.8 834.499 187.2 843.599 180.5C852.699 173.8 862.799 164.6 867.699 142C871.199 125.9 888.699 45.9999 898.599 1.3999L856.799 1.4999Z" fill="#E91C23"/>
    <path d="M997.402 31C997.402 12.6 987.102 1.5 961.602 1.5H947.302H906.402L865.402 188.3H902.002C928.302 188.3 938.902 187.7 951.002 180.3C973.602 166.4 982.602 130.4 982.602 110.6C982.602 95.9 975.302 88 972.602 85.2C987.402 76 997.402 53.5 997.402 31ZM934.702 137.7C932.902 143.9 928.202 148.7 921.702 148.7H915.002L923.802 108.7H930.602C936.202 108.7 938.902 113.5 938.902 117.8C938.902 121.9 936.402 132 934.702 137.7ZM938.002 69.4H932.402L939.202 38.5H944.502C951.502 38.5 953.102 45.4 953.102 48.8C953.002 58.2 947.202 69.4 938.002 69.4Z" fill="#E91C23"/>
    <path d="M677.901 0C662.401 0 640.201 2.7 622.601 30.5C609.001 52 595.301 123.7 595.301 143.8C595.301 186.1 626.601 189.2 649.001 189.2C656.801 189.2 662.301 188.4 663.901 188.1L673.601 143.8C669.301 144.1 660.001 144.5 652.901 143.9C636.301 142.5 637.901 128.4 640.001 116C642.101 103.8 646.201 85 649.501 73.1C652.201 63.6 654.501 54.3 662.501 47.9C671.001 41.1 683.301 43.8 693.001 45.7L702.601 1.8C697.301 1.2 687.501 0 677.901 0Z" fill="#E91C23"/>
  </g>
  <defs>
    <clipPath id="clip0">
      <rect width="997.4" height="190.8" fill="white"/>
    </clipPath>
  </defs>
</svg>
