<svg width="700" height="584" viewBox="0 0 700 584" fill="none" xmlns="http://www.w3.org/2000/svg">
  <path fill-rule="evenodd" clip-rule="evenodd" d="M53.8633 300.04L13.6758 329.621L0.835602 351.95L0 387.112L21.4899 431.771L57.4995 468.058L188.673 547.606L190.629 551.238L179.75 583.338H482.851L483.695 569.927L497.366 565.749L649.76 474.755L700 423.399L696.095 395.77L659.535 344.136L618.496 308.131L606.781 293.901L553.19 256.779L488.716 226.912C479.227 222.444 467.222 217.977 451.594 213.795L435.97 207.093C441.832 202.626 445.174 196.772 445.447 189.512C445.732 185.045 444.897 180.3 441.832 174.993L449.637 163.278L446.849 147.931L456.062 135.926L458.577 130.619L453.274 115.272L441.832 106.337C441.55 97.4016 439.59 86.5222 435.13 73.4049L442.659 54.4259V45.7679C439.59 29.5812 435.97 19.8146 431.78 16.7452L422.013 8.37258L400.519 8.92689C391.307 4.45931 380.146 1.10862 367.302 0L348.604 1.95664L334.37 5.58034L312.598 7.81413C309.533 7.81413 306.741 8.92689 304.784 11.442L293.061 20.6502L273.524 31.2565L270.731 36.0013C267.108 43.5383 262.086 48.5602 255.943 51.6378L252.03 56.6556L240.592 87.6391L260.129 161.884L281.338 191.465L283.572 193.699L268.502 206.258L211.842 213.795L206.262 215.189L128.948 255.384L53.8633 300.04ZM154.628 387.96L171.373 370.09L179.746 367.302L183.932 396.891L195.659 444.897L195.101 459.404L176.114 446.295L158.26 427.035L140.386 392.982L154.628 387.96ZM506.574 466.391L497.366 472.803L517.743 387.96L547.329 402.476L559.333 415.026L506.578 466.387L506.574 466.391Z" fill="white"/>
  <path fill-rule="evenodd" clip-rule="evenodd" d="M91.544 316.503L98.5225 327.11C90.9855 335.205 80.3792 339.95 67.2618 342.184L63.634 346.928L63.0755 354.743L72.292 387.116L87.9161 416.42C92.3837 423.399 116.103 443.217 159.091 476.153L177.789 496.249L191.465 497.651C202.075 488.989 211.284 483.69 219.933 482.582L221.613 440.706L212.119 378.189L215.189 270.731L224.678 257.614C221.89 276.034 221.89 289.714 224.12 298.36V497.085L232.492 510.206L237.518 415.026C240.315 364.509 240.592 331.854 239.471 317.624L237.518 293.897L240.592 276.316L254.822 257.614L249.237 310.919L240.315 524.722L234.449 567.706H252.865L260.965 438.75C263.48 368.422 265.709 322.928 267.943 302.832C269.06 291.108 272.688 273.801 278.268 251.198L281.619 246.449L283.294 251.198L283.567 264.87L274.359 490.669L269.337 525.843L270.731 567.706H289.433L313.715 263.757L329.071 257.614L308.689 567.706H336.045L355.582 263.757L363.674 253.142L372.054 261.8L357.816 567.706H380.981L386.007 419.212L402.471 426.191L398.843 567.706H422.571V470.846L428.983 428.152C432.338 428.152 435.97 425.641 439.589 420.333L430.944 567.706H446.291L462.2 322.646C463.044 297.802 459.404 273.524 451.594 250.077L464.153 260.965L473.088 330.46L455.218 567.706H469.175L470.019 557.939L490.392 552.354C502.951 541.467 552.632 511.882 639.985 463.594L684.93 418.099L681.294 401.354L648.089 353.907L607.054 318.456L596.17 304.784L546.216 269.892L482.573 241.142C471.686 235.847 456.612 230.54 436.801 224.955L431.779 221.604L410.29 213.794C394.38 209.327 396.055 205.145 415.034 200.123C425.364 196.772 430.381 192.859 430.944 188.395C430.944 184.772 429.269 180.585 426.199 176.949L427.035 170.806L433.736 159.369C431.871 152.929 430.931 146.258 430.944 139.554L439.867 134.809L442.663 128.943L440.711 123.644L427.308 112.475C427.593 105.224 427.035 96.843 423.965 87.9203L420.06 74.2404C419.494 70.8897 422.571 62.7984 428.987 49.3956L422.013 28.4683L416.428 23.4423L396.891 24.2779C390.748 18.9788 380.704 15.9094 365.63 14.5154L337.997 20.3729L314.555 22.3295L301.156 33.2089L283.567 42.7025C277.433 55.2614 271.571 62.5171 264.874 64.4696L255.939 88.7517L274.645 157.135L291.39 180.858L299.762 188.677V203.188H295.853L274.645 219.933L212.119 228.868L135.922 267.943L25.1218 339.95L15.3551 356.699L14.5195 384.609L34.0569 422.844L67.266 456.62C111.086 483.69 154.905 510.206 198.443 536.437L208.214 547.606L201.236 567.71H225.518C229.12 558.657 230.83 548.963 230.544 539.225C230.544 531.696 228.595 524.722 224.124 517.739H194.257L175.564 508.812C164.676 500.435 151.281 491.777 135.93 482.859C121.415 474.482 106.622 464.153 91.5481 453.273C64.4737 431.771 45.4948 411.398 34.8925 392.146L31.2647 377.345L32.1003 360.323L36.845 351.115L55.5468 333.248L86.8117 315.668L91.544 316.503ZM123.367 328.227V322.092L202.071 274.636L202.348 281.338L136.758 329.621L128.943 332.413L123.359 328.227H123.367ZM113.315 301.152L111.64 295.853L206.816 245.055L202.075 253.99L138.718 291.108L113.315 301.152ZM203.188 318.456L200.396 323.486L148.485 353.907L145.693 358.37L142.905 353.903L144.576 348.885L190.352 312.876L202.075 311.759L203.188 318.456ZM195.659 348.885C196.768 364.509 197.889 379.583 200.119 394.095L209.889 472.803L202.352 474.755L192.305 475.599C176.772 462.62 162.476 448.231 149.598 432.615C138.718 418.385 128.948 403.311 120.848 387.112L123.367 383.211C136.762 374.557 150.442 366.466 164.395 358.652C173.603 354.184 183.374 349.717 193.417 346.093L195.659 348.885ZM563.797 331.015L562.961 336.049L553.19 334.092L500.158 301.152H491.786L482.851 294.174L480.062 283.294C488.805 286.002 497.228 289.65 505.184 294.174L563.797 331.019V331.015ZM577.472 315.391L563.797 310.923L507.137 271.571C490.392 264.593 481.734 260.965 480.062 260.965L478.946 252.869L496.808 255.384L581.659 312.598L577.472 315.391ZM408.614 92.9422L405.826 96.57L382.371 107.172L387.956 116.38L409.446 120.017L422.571 117.224L432.338 125.874L423.965 132.017L417.264 134.809L423.965 142.346V145.689L413.078 147.927L405.826 155.464L406.658 161.884L416.428 159.369L420.333 159.091L422.013 161.884L415.034 165.234C413.917 165.234 412.242 167.468 410.567 173.044H413.636L417.822 180.863C418.381 183.374 415.87 185.045 411.406 185.88L380.146 180.023L346.928 180.858L334.092 188.677V194.257L351.115 208.21L349.717 231.661C349.717 235.003 346.928 234.449 340.786 230.54L308.135 210.167L308.689 190.344L312.876 189.508L321.534 150.719L310.083 135.645L308.689 118.064L314.555 111.644L326.278 109.687L340.786 122.246H348.604L351.95 107.172L383.215 87.6348H404.705L408.61 92.9422H408.614ZM337.154 269.337C337.154 267.103 338.552 265.705 341.34 265.705C343.855 265.705 344.968 267.099 344.968 269.337C344.968 272.407 343.855 273.524 341.34 273.524C338.552 273.524 337.154 272.407 337.154 269.337ZM343.019 317.624C343.019 320.698 341.625 322.092 338.833 322.092C336.041 322.092 334.365 320.698 334.365 317.624C334.365 314.832 336.041 313.711 338.833 313.711C341.625 313.711 343.019 314.828 343.019 317.624ZM396.887 262.636L399.679 261.8L410.558 284.407L411.402 300.044L409.442 335.205H391.58L396.887 262.636ZM431.775 273.524L443.499 265.705L441.546 336.049H430.092L431.775 273.524ZM545.368 351.954L549.558 359.487L542.584 364.509L506.574 346.093L487.595 315.668L545.372 351.95L545.368 351.954ZM501.271 386.839L502.946 369.258C509.929 371.211 516.345 373.722 521.925 377.072C541.467 388.51 560.165 400.519 578.308 413.632C557.658 435.134 536.156 454.941 512.713 473.088C501.267 482.582 488.712 490.383 474.755 496.249L486.474 461.083L501.271 386.839ZM484.807 368.422L484.522 343.019C484.522 338.552 486.201 337.72 489.552 340.786C490.946 343.019 492.34 348.322 492.613 356.699L487.595 403.861L479.785 436.801L484.807 368.422ZM445.443 355.578V359.487H391.584V355.578H445.443ZM445.443 343.855V348.885H391.584V343.855H445.443L474.755 528.904L475.036 504.34L501.552 501.271L596.166 415.026L564.909 383.215L585.282 353.907L593.378 354.743L633.565 406.653L631.34 417.264C610.308 437.147 587.822 455.434 564.07 471.971C535.043 492.625 505.743 511.882 474.755 528.904L445.443 343.855Z" fill="#161413"/>
  <path fill-rule="evenodd" clip-rule="evenodd" d="M328.227 116.38L315.664 116.107L312.603 122.246L314.555 126.995L319.3 126.151L322.092 131.181L326.278 135.926L330.465 135.645L332.421 125.874L328.227 116.38Z" fill="#161413"/>
</svg>
