<?xml version="1.0" encoding="UTF-8" standalone="no" ?>
<!DOCTYPE svg PUBLIC "-//W3C//DTD SVG 1.1//EN" "http://www.w3.org/Graphics/SVG/1.1/DTD/svg11.dtd">
<svg xmlns="http://www.w3.org/2000/svg" xmlns:xlink="http://www.w3.org/1999/xlink" version="1.1" width="1080" height="1080" viewBox="0 0 1080 1080" xml:space="preserve">
<desc>Created with Fabric.js 5.2.4</desc>
<defs>
</defs>
<g transform="matrix(1 0 0 1 540 540)" id="8d53f69d-697f-4132-babe-4992c43fc221"  >
<rect style="stroke: none; stroke-width: 1; stroke-dasharray: none; stroke-linecap: butt; stroke-dashoffset: 0; stroke-linejoin: miter; stroke-miterlimit: 4; fill: rgb(255,255,255); fill-rule: nonzero; opacity: 1; visibility: hidden;" vector-effect="non-scaling-stroke"  x="-540" y="-540" rx="0" ry="0" width="1080" height="1080" />
</g>
<g transform="matrix(1 0 0 1 540 540)" id="1bb22796-bbdd-48ac-bf17-364234612202"  >
</g>
<g transform="matrix(1 0 0 1 540 540)"  >
<g style="opacity: 0.48;" vector-effect="non-scaling-stroke"   >
		<g transform="matrix(7.81 0 0 7.81 -5.27 -206.93)"  >
<path style="stroke: none; stroke-width: 1; stroke-dasharray: none; stroke-linecap: butt; stroke-dashoffset: 0; stroke-linejoin: miter; stroke-miterlimit: 4; fill: rgb(255,255,255); fill-rule: evenodd; opacity: 1;" vector-effect="non-scaling-stroke"  transform=" translate(-96.31, -70.51)" d="M 24.722 72.532 L 15.007000000000001 79.68299999999999 L 11.903000000000002 85.08099999999999 L 11.701000000000002 93.58099999999999 L 16.896 104.37699999999998 L 25.601 113.14899999999999 L 57.311 132.379 L 57.784 133.25699999999998 L 55.153999999999996 141.01699999999997 L 128.426 141.01699999999997 L 128.63 137.77499999999998 L 131.935 136.765 L 168.775 114.76799999999999 L 180.92000000000002 102.35299999999998 L 179.97600000000003 95.67399999999998 L 171.13800000000003 83.19199999999998 L 161.21700000000004 74.48799999999997 L 158.38500000000005 71.04799999999997 L 145.43000000000004 62.07399999999997 L 129.84400000000002 54.85399999999997 C 127.55000000000003 53.77399999999997 124.64800000000002 52.693999999999974 120.87000000000002 51.68299999999997 L 117.09300000000002 50.062999999999974 C 118.51000000000002 48.982999999999976 119.31800000000001 47.56799999999998 119.38400000000001 45.812999999999974 C 119.45300000000002 44.732999999999976 119.25100000000002 43.58599999999998 118.51000000000002 42.302999999999976 L 120.39700000000002 39.470999999999975 L 119.72300000000001 35.760999999999974 L 121.95000000000002 32.85899999999997 L 122.55800000000002 31.575999999999972 L 121.27600000000002 27.86599999999997 L 118.51000000000002 25.70599999999997 C 118.44200000000002 23.54599999999997 117.96800000000002 20.915999999999972 116.89000000000001 17.74499999999997 L 118.71000000000001 13.156999999999968 L 118.71000000000001 11.063999999999968 C 117.968 7.150999999999968 117.093 4.789999999999968 116.08000000000001 4.047999999999968 L 113.71900000000001 2.023999999999968 L 108.52300000000001 2.157999999999968 C 106.296 1.0779999999999679 103.59800000000001 0.26799999999996804 100.49300000000001 -3.197442310920451e-14 L 95.97300000000001 0.472999999999968 L 92.53200000000001 1.348999999999968 L 87.269 1.888999999999968 C 86.528 1.888999999999968 85.85300000000001 2.157999999999968 85.38000000000001 2.765999999999968 L 82.546 4.991999999999968 L 77.82300000000001 7.555999999999968 L 77.14800000000001 8.702999999999967 C 76.272 10.524999999999967 75.058 11.738999999999967 73.57300000000001 12.482999999999967 L 72.62700000000001 13.695999999999966 L 69.86200000000001 21.185999999999964 L 74.58500000000001 39.133999999999965 L 79.712 46.28499999999997 L 80.25200000000001 46.82499999999997 L 76.60900000000001 49.86099999999997 L 62.912000000000006 51.68299999999997 L 61.56300000000001 52.019999999999975 L 42.873000000000005 61.73699999999997 L 24.723000000000006 72.53199999999997 z M 49.081 93.786 L 53.129000000000005 89.46600000000001 L 55.153000000000006 88.792 L 56.165000000000006 95.94500000000001 L 59.00000000000001 107.55000000000001 L 58.86500000000001 111.05700000000002 L 54.275000000000006 107.88800000000002 L 49.959 103.23200000000001 L 45.638000000000005 95.00000000000001 z M 134.161 112.74600000000001 L 131.935 114.296 L 136.861 93.786 L 144.01299999999998 97.295 L 146.91499999999996 100.32900000000001 L 134.16199999999998 112.745 z" stroke-linecap="round" />
</g>
		<g transform="matrix(7.81 0 0 7.81 -5.79 -207.98)"  >
<path style="stroke: none; stroke-width: 1; stroke-dasharray: none; stroke-linecap: butt; stroke-dashoffset: 0; stroke-linejoin: miter; stroke-miterlimit: 4; fill: rgb(22,20,19); fill-rule: evenodd; opacity: 1;" vector-effect="non-scaling-stroke"  transform=" translate(-96.24, -70.37)" d="M 33.831 76.512 L 35.518 79.076 C 33.696 81.03299999999999 31.132 82.17999999999999 27.961 82.72 L 27.084 83.867 L 26.948999999999998 85.756 L 29.177 93.582 L 32.954 100.666 C 34.034 102.353 39.768 107.14399999999999 50.16 115.106 L 54.67999999999999 119.964 L 57.98599999999999 120.303 C 60.55099999999999 118.209 62.77699999999999 116.928 64.868 116.66 L 65.274 106.53699999999999 L 62.979 91.42399999999999 L 63.721 65.44699999999999 L 66.015 62.27599999999999 C 65.341 66.72899999999998 65.341 70.03599999999999 65.88 72.12599999999999 L 65.88 120.166 L 67.904 123.338 L 69.119 100.329 C 69.795 88.11699999999999 69.862 80.22299999999998 69.591 76.78299999999999 L 69.119 71.04699999999998 L 69.862 66.79699999999998 L 73.30199999999999 62.27599999999998 L 71.952 75.16199999999998 L 69.795 126.84699999999998 L 68.377 137.23799999999997 L 72.829 137.23799999999997 L 74.78699999999999 106.06399999999996 C 75.395 89.06299999999996 75.934 78.06499999999997 76.47399999999999 73.20699999999997 C 76.74399999999999 70.37299999999996 77.621 66.18899999999996 78.96999999999998 60.724999999999966 L 79.77999999999999 59.57699999999996 L 80.18499999999999 60.724999999999966 L 80.25099999999999 64.02999999999997 L 78.02499999999999 118.61499999999998 L 76.81099999999999 127.11799999999998 L 77.148 137.23799999999997 L 81.669 137.23799999999997 L 87.539 63.76099999999997 L 91.251 62.27599999999997 L 86.32400000000001 137.23799999999997 L 92.93700000000001 137.23799999999997 L 97.66000000000001 63.76099999999997 L 99.61600000000001 61.194999999999965 L 101.64200000000001 63.28799999999997 L 98.20000000000002 137.23799999999997 L 103.80000000000001 137.23799999999997 L 105.01500000000001 101.34099999999998 L 108.99500000000002 103.02799999999998 L 108.11800000000002 137.23799999999997 L 113.85400000000003 137.23799999999997 L 113.85400000000003 113.82299999999998 L 115.40400000000002 103.50199999999998 C 116.21500000000003 103.50199999999998 117.09300000000002 102.89499999999998 117.96800000000002 101.61199999999998 L 115.87800000000001 137.23799999999997 L 119.58800000000001 137.23799999999997 L 123.43400000000001 77.99699999999997 C 123.638 71.99099999999997 122.75800000000001 66.12199999999997 120.87 60.45399999999997 L 123.906 63.08599999999997 L 126.066 79.88599999999997 L 121.74600000000001 137.23799999999997 L 125.12 137.23799999999997 L 125.324 134.87699999999998 L 130.249 133.527 C 133.285 130.89499999999998 145.295 123.74299999999998 166.41199999999998 112.07 L 177.277 101.07199999999999 L 176.398 97.02399999999999 L 168.371 85.55399999999999 L 158.45100000000002 76.98399999999998 L 155.82000000000002 73.67899999999997 L 143.74400000000003 65.24399999999997 L 128.35900000000004 58.29399999999997 C 125.72700000000003 57.01399999999997 122.08300000000004 55.730999999999966 117.29400000000004 54.38099999999997 L 116.08000000000004 53.57099999999997 L 110.88500000000005 51.68299999999997 C 107.03900000000004 50.60299999999997 107.44400000000005 49.59199999999997 112.03200000000005 48.37799999999997 C 114.52900000000005 47.56799999999997 115.74200000000005 46.62199999999997 115.87800000000006 45.54299999999997 C 115.87800000000006 44.66699999999997 115.47300000000006 43.65499999999997 114.73100000000005 42.77599999999997 L 114.93300000000005 41.29099999999997 L 116.55300000000005 38.52599999999997 C 116.10218613504331 36.969379536004965 115.87491320725744 35.356583500309604 115.87800000000006 33.735999999999976 L 118.03500000000005 32.58899999999997 L 118.71100000000006 31.17099999999997 L 118.23900000000006 29.889999999999972 L 114.99900000000007 27.189999999999973 C 115.06800000000007 25.436999999999973 114.93300000000006 23.410999999999973 114.19100000000006 21.253999999999973 L 113.24700000000006 17.946999999999974 C 113.11000000000006 17.136999999999976 113.85400000000006 15.180999999999974 115.40500000000006 11.940999999999974 L 113.71900000000005 6.881999999999974 L 112.36900000000006 5.666999999999974 L 107.64600000000006 5.868999999999974 C 106.16100000000006 4.587999999999974 103.73300000000006 3.845999999999974 100.08900000000006 3.508999999999974 L 93.40900000000005 4.924999999999974 L 87.74200000000005 5.397999999999974 L 84.50300000000004 8.027999999999974 L 80.25100000000005 10.322999999999974 C 78.76800000000004 13.358999999999973 77.35100000000004 15.112999999999975 75.73200000000004 15.584999999999972 L 73.57200000000005 21.454999999999973 L 78.09400000000005 37.985999999999976 L 82.14200000000005 43.720999999999975 L 84.16600000000005 45.610999999999976 L 84.16600000000005 49.11899999999998 L 83.22100000000006 49.11899999999998 L 78.09400000000007 53.16699999999998 L 62.97900000000006 55.326999999999984 L 44.55900000000006 64.77299999999998 L 17.77400000000006 82.17999999999998 L 15.41300000000006 86.22899999999998 L 15.21100000000006 92.97599999999998 L 19.93400000000006 102.21899999999998 L 27.96200000000006 110.38399999999999 C 38.555000000000064 116.92799999999998 49.14800000000006 123.338 59.67300000000006 129.67899999999997 L 62.03500000000006 132.37899999999996 L 60.34800000000006 137.23899999999998 L 66.21800000000006 137.23899999999998 C 67.08873419648921 135.05064963706957 67.50222385961999 132.7072012252848 67.43300000000006 130.35299999999998 C 67.43300000000006 128.533 66.96200000000006 126.84699999999998 65.88100000000006 125.15899999999998 L 58.66100000000006 125.15899999999998 L 54.14200000000006 123.00099999999998 C 51.51000000000006 120.97599999999997 48.27200000000006 118.88299999999998 44.561000000000064 116.72699999999998 C 41.05200000000006 114.70199999999997 37.47600000000006 112.20499999999997 33.832000000000065 109.57499999999997 C 27.287000000000063 104.37699999999998 22.699000000000066 99.45199999999997 20.136000000000067 94.79799999999997 L 19.259000000000068 91.21999999999997 L 19.46100000000007 87.10499999999998 L 20.608000000000068 84.87899999999998 L 25.12900000000007 80.55999999999997 L 32.68700000000007 76.30999999999997 L 33.83200000000007 76.51199999999997 z M 41.524 79.346 L 41.524 77.863 L 60.55 66.391 L 60.617 68.01100000000001 L 44.760999999999996 79.683 L 42.87199999999999 80.358 L 41.52199999999999 79.346 z M 39.094 72.801 L 38.689 71.52 L 61.697 59.239999999999995 L 60.551 61.39999999999999 L 45.235 70.37299999999999 z M 60.82 76.98400000000001 L 60.145 78.2 L 47.596000000000004 85.554 L 46.92100000000001 86.633 L 46.24700000000001 85.553 L 46.65100000000001 84.34 L 57.71700000000001 75.635 L 60.551000000000016 75.36500000000001 L 60.820000000000014 76.98500000000001 z M 59 84.34 C 59.268 88.117 59.539 91.76100000000001 60.078 95.269 L 62.440000000000005 114.296 L 60.618 114.768 L 58.189 114.972 C 54.434202383096306 111.83454126202926 50.978104531083005 108.35601425890351 47.864999999999995 104.58099999999999 C 45.235 101.14099999999999 42.873000000000005 97.49699999999999 40.915 93.58099999999999 L 41.524 92.63799999999999 C 44.762 90.54599999999999 48.069 88.58999999999999 51.442 86.701 C 53.668 85.621 56.03 84.541 58.458 83.66499999999999 L 58.998999999999995 84.33999999999999 z M 147.994 80.02000000000001 L 147.792 81.23700000000001 L 145.43 80.76400000000001 L 132.61 72.80100000000002 L 130.586 72.80100000000002 L 128.42600000000002 71.11400000000002 L 127.75200000000001 68.48400000000002 C 129.86541890575387 69.13864909540558 131.90164624157813 70.02046663092638 133.82500000000002 71.114 L 147.99400000000003 80.02100000000002 z M 151.3 76.24300000000001 L 147.994 75.16300000000001 L 134.297 65.65 C 130.249 63.96300000000001 128.156 63.086000000000006 127.752 63.086000000000006 L 127.482 61.129000000000005 L 131.8 61.737 L 152.312 75.568 z M 110.48000000000002 22.46800000000001 L 109.80600000000001 23.34500000000001 L 104.13600000000001 25.90800000000001 L 105.486 28.134000000000007 L 110.68100000000001 29.01300000000001 L 113.85400000000001 28.338000000000008 L 116.21500000000002 30.42900000000001 L 114.19100000000002 31.91400000000001 L 112.57100000000001 32.589000000000006 L 114.19100000000002 34.41100000000001 L 114.19100000000002 35.21900000000001 L 111.55900000000001 35.760000000000005 L 109.80600000000001 37.58200000000001 L 110.007 39.13400000000001 L 112.369 38.52600000000001 L 113.313 38.45900000000001 L 113.71900000000001 39.13400000000001 L 112.03200000000001 39.94400000000001 C 111.76200000000001 39.94400000000001 111.35700000000001 40.48400000000001 110.95200000000001 41.83200000000001 L 111.69400000000002 41.83200000000001 L 112.70600000000002 43.72200000000001 C 112.84100000000002 44.32900000000001 112.23400000000002 44.73300000000001 111.15500000000002 44.93500000000001 L 103.59800000000001 43.51900000000001 L 95.56800000000001 43.72100000000001 L 92.46500000000002 45.61100000000001 L 92.46500000000002 46.96000000000001 L 96.58000000000001 50.333000000000006 L 96.24200000000002 56.002 C 96.24200000000002 56.81 95.56800000000001 56.676 94.08300000000001 55.731 L 86.19000000000001 50.806000000000004 L 86.32400000000001 46.014 L 87.33600000000001 45.812000000000005 L 89.42900000000002 36.435 L 86.66100000000002 32.791000000000004 L 86.32400000000001 28.541000000000004 L 87.74200000000002 26.989000000000004 L 90.57600000000002 26.516000000000005 L 94.08300000000003 29.552000000000007 L 95.97300000000003 29.552000000000007 L 96.78200000000002 25.90800000000001 L 104.34000000000003 21.18500000000001 L 109.53500000000003 21.18500000000001 L 110.47900000000003 22.46800000000001 z M 93.20500000000001 65.11000000000001 C 93.20500000000001 64.57000000000001 93.543 64.23200000000001 94.21700000000001 64.23200000000001 C 94.82500000000002 64.23200000000001 95.09400000000001 64.56900000000002 95.09400000000001 65.11000000000001 C 95.09400000000001 65.85200000000002 94.825 66.12200000000001 94.21700000000001 66.12200000000001 C 93.543 66.12200000000001 93.20500000000001 65.85200000000002 93.20500000000001 65.11000000000001 z M 94.62300000000002 76.78300000000002 C 94.62300000000002 77.52600000000001 94.28600000000002 77.86300000000001 93.61100000000002 77.86300000000001 C 92.93600000000002 77.86300000000001 92.53100000000002 77.52600000000001 92.53100000000002 76.78300000000002 C 92.53100000000002 76.10800000000002 92.93600000000002 75.83700000000002 93.61100000000002 75.83700000000002 C 94.28600000000002 75.83700000000002 94.62300000000002 76.10700000000001 94.62300000000002 76.78300000000002 z M 107.64500000000002 63.490000000000016 L 108.32000000000002 63.28800000000002 L 110.95000000000002 68.75300000000001 L 111.15400000000001 72.53300000000002 L 110.68 81.03300000000002 L 106.36200000000001 81.03300000000002 z M 116.07900000000002 66.12200000000001 L 118.91300000000003 64.23200000000001 L 118.44100000000003 81.23700000000001 L 115.67200000000003 81.23700000000001 z M 143.53900000000002 85.08200000000002 L 144.55200000000002 86.90300000000002 L 142.866 88.11700000000002 L 134.161 83.66500000000002 L 129.573 76.31000000000002 L 143.54000000000002 85.08100000000002 z M 132.87900000000002 93.51500000000001 L 133.28400000000002 89.26500000000001 C 134.972 89.73700000000001 136.52300000000002 90.34400000000001 137.872 91.15400000000001 C 142.596 93.91900000000001 147.116 96.82200000000002 151.502 99.992 C 146.51000000000002 105.19 141.312 109.97800000000001 135.645 114.36500000000001 C 132.87800000000001 116.66000000000001 129.84300000000002 118.546 126.46900000000001 119.96400000000001 L 129.30200000000002 111.46300000000001 L 132.87800000000001 93.51500000000001 z M 128.89900000000003 89.06300000000002 L 128.83000000000004 82.92200000000001 C 128.83000000000004 81.84200000000001 129.23600000000005 81.641 130.04600000000005 82.382 C 130.38300000000004 82.92200000000001 130.72000000000006 84.20400000000001 130.78600000000006 86.229 L 129.57300000000006 97.63 L 127.68500000000006 105.59299999999999 z M 119.38300000000002 85.95800000000001 L 119.38300000000002 86.903 L 106.36300000000003 86.903 L 106.36300000000003 85.95800000000001 z M 119.38300000000002 83.12400000000001 L 119.38300000000002 84.34 L 106.36300000000003 84.34 L 106.36300000000003 83.12400000000001 L 119.38300000000002 83.12400000000001 L 126.46900000000002 127.858 L 126.53700000000002 121.92 L 132.94700000000003 121.178 L 155.81900000000002 100.329 L 148.263 92.639 L 153.18800000000002 85.554 L 155.145 85.756 L 164.86 98.305 L 164.322 100.87 C 159.23778109020984 105.67663238143783 153.80202709295034 110.09723542004052 148.06 114.09500000000001 C 141.043 119.088 133.96 123.743 126.469 127.858 z" stroke-linecap="round" />
</g>
		<g transform="matrix(7.81 0 0 7.81 -57.19 -519.82)"  >
<path style="stroke: none; stroke-width: 1; stroke-dasharray: none; stroke-linecap: butt; stroke-dashoffset: 0; stroke-linejoin: miter; stroke-miterlimit: 4; fill: rgb(22,20,19); fill-rule: evenodd; opacity: 1;" vector-effect="non-scaling-stroke"  transform=" translate(-89.67, -30.46)" d="M 91.047 28.134 L 88.00999999999999 28.068 L 87.27 29.552 L 87.74199999999999 30.7 L 88.889 30.496 L 89.564 31.712 L 90.576 32.859 L 91.588 32.791000000000004 L 92.06099999999999 30.429000000000002 z" stroke-linecap="round" />
</g>
		<g transform="matrix(7.81 0 0 7.81 0 582.29)"  >
<path style="stroke: none; stroke-width: 1; stroke-dasharray: none; stroke-linecap: butt; stroke-dashoffset: 0; stroke-linejoin: miter; stroke-miterlimit: 4; fill: rgb(229,41,53); fill-rule: evenodd; opacity: 1;" vector-effect="non-scaling-stroke"  transform=" translate(-96.98, -171.51)" d="M 44.964 151.877 L 33.358 151.877 L 33.358 162.404 L 28.634999999999998 162.404 L 28.634999999999998 172.79399999999998 L 33.358 172.79399999999998 L 33.358 187.84099999999998 C 33.358 189.325 33.965999999999994 190.74099999999999 35.044999999999995 191.82199999999997 C 36.327999999999996 192.902 37.67699999999999 193.43999999999997 39.22899999999999 193.43999999999997 L 51.64399999999999 193.43999999999997 L 51.64399999999999 183.11899999999997 L 47.59599999999999 183.11899999999997 C 45.90899999999999 183.11899999999997 45.03199999999999 182.17299999999997 45.03199999999999 180.35199999999998 L 45.03199999999999 172.795 L 49.48499999999999 172.795 L 49.48499999999999 162.404 L 45.03199999999999 162.404 z M 86.324 149.04500000000002 L 74.78699999999999 149.04500000000002 L 74.78699999999999 187.841 C 74.78699999999999 191.621 76.609 193.44 80.455 193.44 L 97.66 193.44 L 97.66 183.119 L 89.024 183.119 C 87.269 183.119 86.324 182.173 86.324 180.352 z M 240.902 161.59500000000003 C 237.05599999999998 161.59500000000003 235.16799999999998 163.41500000000002 235.16799999999998 167.26200000000003 L 235.16799999999998 193.44000000000003 L 246.77299999999997 193.44000000000003 L 246.77299999999997 174.54800000000003 C 246.77299999999997 172.86100000000002 247.64899999999997 171.98600000000002 249.40499999999997 171.98600000000002 L 255.47699999999998 171.98600000000002 L 255.47699999999998 161.59500000000003 z M -57.05200000000002 149.11200000000002 C -58.67200000000002 149.11200000000002 -60.02200000000002 149.72100000000003 -61.30400000000002 150.8 C -62.383000000000024 151.94400000000002 -62.99100000000002 153.364 -62.99100000000002 154.98100000000002 L -62.99100000000002 193.44000000000003 L -51.25000000000002 193.44000000000003 L -51.25000000000002 177.65300000000002 L -45.04200000000002 177.65300000000002 L -45.04200000000002 167.26300000000003 L -51.25000000000002 167.26300000000003 L -51.25000000000002 162.27000000000004 C -51.25000000000002 160.37900000000005 -50.30500000000002 159.50300000000004 -48.61800000000002 159.50300000000004 L -39.98200000000003 159.50300000000004 L -39.98200000000003 149.11300000000006 z M -14.276000000000018 165.91100000000003 C -17.447000000000017 162.74100000000004 -21.292000000000016 161.19100000000003 -25.67800000000002 161.19100000000003 C -30.334000000000017 161.19100000000003 -34.11100000000002 162.74100000000004 -37.283000000000015 165.91100000000003 C -40.521000000000015 169.15100000000004 -42.14100000000001 173.06500000000003 -42.14100000000001 177.45100000000002 C -42.14100000000001 182.10600000000002 -40.521000000000015 185.88400000000001 -37.283000000000015 189.055 C -34.045000000000016 192.294 -30.198000000000015 193.982 -25.678000000000015 193.982 C -21.292000000000016 193.982 -17.448000000000015 192.294 -14.276000000000016 189.055 C -11.037000000000017 185.818 -9.418000000000017 181.97 -9.418000000000017 177.45100000000002 C -9.418000000000017 173.06500000000003 -11.038000000000018 169.151 -14.276000000000018 165.91100000000003 z M -30.604000000000017 177.45100000000002 C -30.604000000000017 174.347 -28.918000000000017 172.79500000000002 -25.67800000000002 172.79500000000002 C -22.57400000000002 172.79500000000002 -20.95500000000002 174.347 -20.95500000000002 177.45100000000002 C -20.95500000000002 180.621 -22.57500000000002 182.17300000000003 -25.67800000000002 182.17300000000003 C -28.91800000000002 182.17300000000003 -30.60400000000002 180.62000000000003 -30.60400000000002 177.45100000000002 z M 21.61999999999998 165.91100000000003 C 18.44799999999998 162.74100000000004 14.601999999999979 161.19100000000003 10.21599999999998 161.19100000000003 C 5.62799999999998 161.19100000000003 1.7819999999999805 162.74100000000004 -1.3890000000000207 165.91100000000003 C -4.6280000000000205 169.15100000000004 -6.246000000000021 173.06500000000003 -6.246000000000021 177.45100000000002 C -6.246000000000021 182.10600000000002 -4.6280000000000205 185.88400000000001 -1.3890000000000207 189.055 C 1.8509999999999796 192.294 5.694999999999979 193.982 10.21599999999998 193.982 C 14.601999999999979 193.982 18.44799999999998 192.294 21.61899999999998 189.055 C 24.85799999999998 185.818 26.47799999999998 181.97 26.47799999999998 177.45100000000002 C 26.47799999999998 173.06500000000003 24.85799999999998 169.151 21.61899999999998 165.91100000000003 z M 5.289999999999981 177.45100000000002 C 5.289999999999981 174.347 6.977999999999981 172.79500000000002 10.215999999999982 172.79500000000002 C 13.387999999999982 172.79500000000002 14.938999999999982 174.347 14.938999999999982 177.45100000000002 C 14.938999999999982 180.621 13.387999999999982 182.17300000000003 10.215999999999983 182.17300000000003 C 6.977999999999984 182.17300000000003 5.2909999999999835 180.62000000000003 5.2909999999999835 177.45100000000002 z M 128.15599999999998 165.91100000000003 C 124.98599999999998 162.74100000000004 121.14099999999998 161.19100000000003 116.55199999999998 161.19100000000003 C 112.03199999999998 161.19100000000003 108.25199999999998 162.74100000000004 105.01499999999997 165.91100000000003 C 101.84199999999997 169.15100000000004 100.29199999999997 173.06500000000003 100.29199999999997 177.45100000000002 C 100.29199999999997 182.10600000000002 101.84199999999997 185.88400000000001 105.01499999999997 189.055 C 108.25299999999997 192.294 112.03199999999997 193.982 116.55199999999998 193.982 C 121.14099999999998 193.982 124.98699999999998 192.294 128.15599999999998 189.055 C 131.396 185.88500000000002 132.94799999999998 182.106 132.94799999999998 177.45100000000002 C 132.94799999999998 173.06500000000003 131.397 169.151 128.15599999999998 165.91100000000003 z M 113.24599999999998 174.14400000000003 C 114.19099999999997 173.26700000000002 115.26999999999998 172.79400000000004 116.55199999999998 172.79400000000004 C 119.72199999999998 172.79400000000004 121.27599999999998 174.34700000000004 121.27599999999998 177.45100000000005 C 121.27599999999998 180.62100000000004 119.72299999999998 182.17300000000006 116.55199999999998 182.17300000000006 C 113.38099999999997 182.17300000000006 111.89499999999998 180.62000000000006 111.89499999999998 177.45100000000005 C 111.89499999999998 176.30400000000006 112.36899999999999 175.22300000000004 113.24699999999999 174.14400000000006 z M 141.38199999999998 165.91100000000003 C 138.14299999999997 169.15100000000004 136.52399999999997 173.06500000000003 136.52399999999997 177.45100000000002 C 136.52399999999997 182.10600000000002 138.14399999999998 185.88400000000001 141.38199999999998 189.055 C 144.61999999999998 192.294 148.46599999999998 193.982 152.98799999999997 193.982 C 158.78799999999998 193.982 163.378 191.417 166.68399999999997 186.425 L 156.83199999999997 180.083 C 155.88799999999998 181.499 154.67399999999998 182.173 152.98799999999997 182.173 C 149.74699999999996 182.173 148.06099999999998 180.62 148.06099999999998 177.451 C 148.06099999999998 174.34699999999998 149.74699999999999 172.795 152.98799999999997 172.795 C 154.67399999999998 172.795 155.88799999999998 173.535 156.83199999999997 175.023 L 166.68399999999997 168.74699999999999 C 163.37899999999996 163.753 158.78799999999998 161.19099999999997 152.98799999999997 161.19099999999997 C 148.33099999999996 161.19099999999997 144.55299999999997 162.74099999999999 141.38199999999998 165.91099999999997 z M 253.92399999999998 187.36700000000002 C 251.96699999999998 187.36700000000002 250.95399999999998 188.37900000000002 250.95399999999998 190.40400000000002 C 250.95399999999998 192.49600000000004 251.96699999999998 193.44000000000003 253.92399999999998 193.44000000000003 C 256.015 193.44000000000003 256.96099999999996 192.49600000000004 256.96099999999996 190.40400000000002 C 256.96099999999996 188.37900000000002 256.01499999999993 187.36700000000002 253.92399999999995 187.36700000000002 z M 251.49499999999998 190.40400000000002 C 251.49499999999998 188.78400000000002 252.23699999999997 187.90900000000002 253.92399999999998 187.90900000000002 C 255.61199999999997 187.90900000000002 256.489 188.78500000000003 256.489 190.40400000000002 C 256.489 192.09000000000003 255.61199999999997 192.97000000000003 253.92399999999998 192.97000000000003 C 252.23699999999997 192.97000000000003 251.49499999999998 192.09000000000003 251.49499999999998 190.40400000000002 z" stroke-linecap="round" />
</g>
		<g transform="matrix(7.81 0 0 7.81 902.05 580.18)"  >
<path style="stroke: none; stroke-width: 1; stroke-dasharray: none; stroke-linecap: butt; stroke-dashoffset: 0; stroke-linejoin: miter; stroke-miterlimit: 4; fill: rgb(229,41,53); fill-rule: evenodd; opacity: 1;" vector-effect="non-scaling-stroke"  transform=" translate(-212.43, -171.24)" d="M 255.477 189.729 C 255.477 189.055 255.137 188.78500000000003 254.329 188.78500000000003 L 252.77800000000002 188.78500000000003 L 252.77800000000002 192.09000000000003 L 253.25000000000003 192.09000000000003 L 253.25000000000003 190.60800000000003 L 253.85700000000003 190.60800000000003 L 254.80100000000002 192.09000000000003 L 255.477 192.09000000000003 L 254.397 190.60800000000003 C 255.137 190.60800000000003 255.477 190.33800000000002 255.477 189.72800000000004 z M 253.25 190.13600000000002 L 253.25 189.25800000000004 L 254.126 189.25800000000004 L 255.00300000000001 189.52800000000005 C 255.00300000000001 189.93200000000004 254.59900000000002 190.13600000000005 253.85700000000003 190.13600000000005 z M 181.122 170.836 L 181.122 149.04600000000002 L 169.383 149.04600000000002 L 169.383 193.44000000000003 L 181.122 193.44000000000003 L 181.122 184.06300000000002 L 188.88100000000003 193.44000000000003 L 202.44400000000002 193.44000000000003 L 188.67900000000003 176.91000000000003 L 199.61000000000004 163.55300000000003 L 186.99400000000003 163.55300000000003 z" stroke-linecap="round" />
</g>
		<g transform="matrix(7.81 0 0 7.81 926.04 629.35)"  >
<path style="stroke: none; stroke-width: 1; stroke-dasharray: none; stroke-linecap: butt; stroke-dashoffset: 0; stroke-linejoin: miter; stroke-miterlimit: 4; fill: rgb(229,41,53); fill-rule: evenodd; opacity: 1;" vector-effect="non-scaling-stroke"  transform=" translate(-215.5, -177.54)" d="M 231.93 176.235 C 231.93 173.53500000000003 230.85 170.63600000000002 228.622 167.464 C 225.788 163.553 221.875 161.391 216.74800000000002 161.123 C 210.54000000000002 160.784 205.74800000000002 162.944 202.30800000000002 167.73399999999998 C 200.14900000000003 170.70399999999998 199.07000000000002 173.94199999999998 199.07000000000002 177.451 C 199.07000000000002 182.106 200.75600000000003 185.884 203.99500000000003 189.055 C 207.23500000000004 192.294 211.08000000000004 193.982 215.60000000000002 193.982 C 219.38000000000002 193.982 222.75400000000002 192.902 225.586 190.608 L 229.49900000000002 186.425 L 220.05500000000004 180.352 L 218.90600000000003 181.702 C 217.35600000000002 182.982 215.60000000000002 183.252 213.71200000000005 182.579 L 211.35100000000006 180.757 L 231.92900000000006 176.235 z M 213.98000000000002 172.25500000000002 C 216.276 171.58 218.097 172.18500000000003 219.58 173.94200000000004 L 210.472 176.03400000000005 C 211.08 174.21100000000004 212.226 172.99800000000005 213.981 172.25400000000005 z" stroke-linecap="round" />
</g>
</g>
</g>
</svg>