<svg width="2500" height="352" viewBox="0 0 2500 352" fill="none" xmlns="http://www.w3.org/2000/svg">
    <path fill-rule="evenodd" clip-rule="evenodd" d="M843.525 22.8612H752.839V105.116H715.936V186.3H752.839V303.872C752.839 315.468 757.59 326.532 766.021 334.978C776.046 343.417 786.587 347.621 798.714 347.621H895.72V266.976H864.091C850.909 266.976 844.056 259.584 844.056 245.356V186.308H878.851V105.116H844.056L843.525 22.8612ZM1166.7 0.73291H1076.55V303.872C1076.55 333.408 1090.79 347.621 1120.84 347.621H1255.27V266.976H1187.8C1174.08 266.976 1166.7 259.584 1166.7 245.356V0.73291ZM2374.52 98.7945C2344.47 98.7945 2329.72 113.015 2329.72 143.075V347.621H2420.39V200.005C2420.39 186.823 2427.24 179.986 2440.96 179.986H2488.4V98.7945H2374.52ZM46.4054 1.25644C33.7473 1.25644 23.1988 6.01499 13.1817 14.4459C4.75071 23.3848 0 34.4802 0 47.1149V347.621H91.7403V224.266H140.248V143.082H91.7403V104.069C91.7403 89.2931 99.1243 82.4484 112.306 82.4484H179.785V1.26431L46.4054 1.25644ZM380.643 132.518C355.866 107.749 325.822 95.6377 291.552 95.6377C255.171 95.6377 225.659 107.749 200.874 132.518C175.573 157.835 162.915 188.417 162.915 222.688C162.915 259.061 175.573 288.581 200.874 313.358C226.175 338.666 256.234 351.856 291.552 351.856C325.822 351.856 355.858 338.666 380.643 313.358C405.952 288.065 418.602 257.998 418.602 222.688C418.602 188.417 405.944 157.835 380.643 132.518ZM253.061 222.688C253.061 198.434 266.235 186.308 291.552 186.308C315.805 186.308 328.456 198.434 328.456 222.688C328.456 247.457 315.797 259.584 291.552 259.584C266.235 259.584 253.061 247.45 253.061 222.688ZM661.123 132.518C636.338 107.749 606.286 95.6377 572.015 95.6377C536.166 95.6377 506.115 107.749 481.338 132.518C456.029 157.835 443.387 188.417 443.387 222.688C443.387 259.061 456.029 288.581 481.338 313.358C506.654 338.666 536.69 351.856 572.015 351.856C606.286 351.856 636.338 338.666 661.115 313.358C686.423 288.065 699.081 257.998 699.081 222.688C699.081 188.417 686.431 157.835 661.123 132.518ZM533.525 222.688C533.525 198.434 546.715 186.308 572.015 186.308C596.8 186.308 608.919 198.434 608.919 222.688C608.919 247.457 596.8 259.584 572.015 259.584C546.715 259.584 533.525 247.45 533.525 222.688ZM1493.56 132.518C1468.79 107.749 1438.75 95.6377 1402.89 95.6377C1367.57 95.6377 1338.04 107.749 1312.74 132.518C1287.95 157.835 1275.84 188.417 1275.84 222.688C1275.84 259.061 1287.95 288.581 1312.74 313.358C1338.04 338.666 1367.57 351.856 1402.89 351.856C1438.75 351.856 1468.8 338.666 1493.56 313.358C1518.88 288.589 1531 259.061 1531 222.688C1531 188.417 1518.88 157.835 1493.56 132.518ZM1377.06 196.848C1384.44 189.996 1392.87 186.3 1402.89 186.3C1427.66 186.3 1439.8 198.434 1439.8 222.688C1439.8 247.457 1427.67 259.584 1402.89 259.584C1378.11 259.584 1366.5 247.45 1366.5 222.688C1366.5 213.726 1370.21 205.279 1377.07 196.848H1377.06ZM1596.9 132.518C1571.6 157.835 1558.94 188.417 1558.94 222.688C1558.94 259.061 1571.6 288.581 1596.9 313.358C1622.2 338.666 1652.26 351.856 1687.59 351.856C1732.91 351.856 1768.77 331.814 1794.61 292.808L1717.62 243.254C1710.25 254.318 1700.76 259.584 1687.59 259.584C1662.26 259.584 1649.09 247.45 1649.09 222.688C1649.09 198.434 1662.26 186.308 1687.59 186.308C1700.76 186.308 1710.25 192.09 1717.62 203.716L1794.61 154.678C1768.78 115.656 1732.91 95.6377 1687.59 95.6377C1651.2 95.6377 1621.68 107.749 1596.9 132.518ZM2476.27 300.168C2460.98 300.168 2453.06 308.076 2453.06 323.899C2453.06 340.245 2460.98 347.621 2476.27 347.621C2492.61 347.621 2500 340.245 2500 323.899C2500 308.076 2492.61 300.168 2476.27 300.168ZM2457.29 323.899C2457.29 311.24 2463.09 304.403 2476.27 304.403C2489.46 304.403 2496.31 311.248 2496.31 323.899C2496.31 337.072 2489.46 343.948 2476.27 343.948C2463.09 343.948 2457.29 337.072 2457.29 323.899Z" fill="#919BB1"/>
    <path fill-rule="evenodd" clip-rule="evenodd" d="M2488.4 318.624C2488.4 313.358 2485.75 311.248 2479.43 311.248H2467.32V337.072H2471V325.493H2475.75L2483.12 337.072H2488.4L2479.97 325.493C2485.75 325.493 2488.4 323.383 2488.4 318.616V318.624ZM2471 321.804V314.944H2477.85L2484.7 317.054C2484.7 320.21 2481.54 321.804 2475.75 321.804H2471ZM1907.42 171.001V0.740723H1815.69V347.621H1907.42V274.352L1968.05 347.621H2074.02L1966.47 218.461L2051.88 114.094H1953.3L1907.42 171.001Z" fill="#919BB1"/>
    <path fill-rule="evenodd" clip-rule="evenodd" d="M2304.42 213.187C2304.42 192.09 2295.98 169.438 2278.57 144.653C2256.42 114.094 2225.85 97.2006 2185.79 95.1066C2137.28 92.4577 2099.84 109.335 2072.96 146.763C2056.09 169.969 2047.66 195.27 2047.66 222.688C2047.66 259.061 2060.83 288.581 2086.14 313.358C2111.46 338.666 2141.5 351.856 2176.82 351.856C2206.35 351.856 2232.72 343.417 2254.85 325.493L2285.42 292.808L2211.63 245.356L2202.65 255.904C2190.54 265.906 2176.82 268.015 2162.07 262.757L2143.62 248.52L2304.42 213.187ZM2164.16 182.088C2182.1 176.814 2196.33 181.541 2207.92 195.27L2136.75 211.616C2141.5 197.372 2150.45 187.894 2164.17 182.081L2164.16 182.088Z" fill="#919BB1"/>
</svg>