<svg width="50" height="11" viewBox="0 0 50 11" fill="none" xmlns="http://www.w3.org/2000/svg">
  <mask id="mask0" mask-type="alpha" maskUnits="userSpaceOnUse" x="0" y="0" width="10" height="11">
    <path d="M0 0.00012207H9.41303V10.6766H0V0.00012207Z" fill="white"/>
  </mask>
  <g mask="url(#mask0)">
    <path fill-rule="evenodd" clip-rule="evenodd" d="M9.41305 5.12612V8.82692L9.39458 8.84672C8.1753 10.0609 6.76827 10.6767 5.21406 10.6767C3.84016 10.6767 2.4992 10.1413 1.53293 9.20792C1.06707 8.74392 0.688353 8.17292 0.410442 7.50972C0.137751 6.83992 0 6.10832 0 5.33432C0 4.55792 0.145582 3.82872 0.431526 3.16552C0.732129 2.47872 1.11847 1.92232 1.61225 1.46612C2.65803 0.493122 3.88514 0.00012207 5.25643 0.00012207C6.37631 0.00012207 7.99137 0.297922 9.33494 1.72312L9.37992 1.77072L8.5261 2.55512L8.48112 2.51032C7.98876 2.02372 7.45783 1.66252 6.98795 1.49252C6.53394 1.32892 5.8761 1.22752 5.27108 1.22752C4.31667 1.22752 3.5 1.55052 2.70181 2.24392C1.8996 2.94012 1.43896 4.06732 1.43896 5.33432C1.43896 6.66212 1.81084 7.67452 2.54418 8.34032C3.30141 9.02992 4.31526 9.44112 5.25643 9.44112C6.2996 9.44112 7.21165 9.07732 7.96747 8.36152V6.34572H5.43153V5.12612H9.41305Z" fill="white"/>
  </g>
  <mask id="mask1" mask-type="alpha" maskUnits="userSpaceOnUse" x="14" y="0" width="12" height="11">
    <path d="M14.6797 0H25.4269V10.6766H14.6797V0Z" fill="white"/>
  </mask>
  <g mask="url(#mask1)">
    <path fill-rule="evenodd" clip-rule="evenodd" d="M20.05 9.4412C18.9831 9.4412 17.9929 9.0562 17.2622 8.3562C16.5355 7.6468 16.1184 6.5448 16.1184 5.3344C16.1184 4.1242 16.5355 3.0218 17.2622 2.3126C17.9929 1.6124 18.9831 1.2276 20.05 1.2276C21.5524 1.2276 22.7596 1.9066 23.4494 3.1392C23.8066 3.7734 23.9879 4.513 23.9879 5.3344C23.9879 6.1558 23.8066 6.8954 23.4494 7.5294C23.0917 8.165 22.6299 8.6332 22.0343 8.9614C21.4359 9.2844 20.7859 9.4412 20.05 9.4412ZM25.0034 3.2158C24.7174 2.5354 24.3456 1.9804 23.8662 1.5176C23.3805 1.0416 22.8046 0.6672 22.1546 0.4074C21.4968 0.1372 20.7885 0 20.05 0C19.31 0 18.6018 0.1372 17.9439 0.4074C17.2939 0.6686 16.7182 1.0416 16.2323 1.5176C15.7558 1.9856 15.3733 2.5566 15.0966 3.2158C14.8186 3.8658 14.6797 4.5776 14.6797 5.3344C14.6797 6.3298 14.9178 7.2488 15.3905 8.0688C15.8616 8.8784 16.5144 9.5244 17.3323 9.9884C18.1492 10.4446 19.0624 10.6768 20.05 10.6768C21.0361 10.6768 21.9508 10.4446 22.7662 9.9884C23.5843 9.5244 24.2381 8.8784 24.7082 8.0688C25.1847 7.254 25.4269 6.3338 25.4269 5.3344C25.4269 4.5896 25.2839 3.8762 25.0034 3.2158Z" fill="white"/>
  </g>
  <path fill-rule="evenodd" clip-rule="evenodd" d="M32.4616 6.35208L33.9547 2.86368L35.4505 6.35208H32.4616ZM34.2073 0.237276L34.1901 0.197876H33.7204L29.2859 10.3787L29.2461 10.4709H30.6983L31.8485 7.78128H36.062L37.215 10.4709H38.6656L34.2073 0.237276Z" fill="white"/>
  <path fill-rule="evenodd" clip-rule="evenodd" d="M49.8443 0.197754V1.43315H46.6832V10.4708H45.2431V1.43315H42.082V0.197754H49.8443Z" fill="white"/>
</svg>
