<svg width="24" height="24" viewBox="0 0 24 24" fill="none" xmlns="http://www.w3.org/2000/svg">
  <path d="M12.0039 21.0409C9.54391 21.0409 9.25391 21.0279 8.29391 20.9859C7.54528 20.9613 6.80634 20.8091 6.10891 20.5359C4.90222 20.0663 3.94805 19.1117 3.47891 17.9049C3.21621 17.2049 3.07452 16.4654 3.05991 15.7179C3.00391 14.7599 3.00391 14.4459 3.00391 12.0049C3.00391 9.53788 3.01691 9.24988 3.05991 8.29488C3.07484 7.5484 3.21653 6.80989 3.47891 6.11088C3.94754 4.90241 4.90326 3.94706 6.11191 3.47888C6.81055 3.21509 7.54925 3.07303 8.29591 3.05888C9.25091 3.00488 9.56491 3.00488 12.0039 3.00488C14.4839 3.00488 14.7689 3.01788 15.7139 3.05888C16.4625 3.07315 17.2032 3.21519 17.9039 3.47888C19.1122 3.94759 20.0677 4.90276 20.5369 6.11088C20.804 6.82008 20.9465 7.57013 20.9579 8.32788C21.0139 9.28588 21.0139 9.59888 21.0139 12.0389C21.0139 14.4789 20.9999 14.7989 20.9579 15.7459C20.943 16.4941 20.801 17.2343 20.5379 17.9349C20.0676 19.1426 19.112 20.0975 17.9039 20.5669C17.2042 20.8291 16.465 20.9707 15.7179 20.9859C14.7629 21.0409 14.4499 21.0409 12.0039 21.0409ZM11.9699 4.58788C9.52391 4.58788 9.26991 4.59988 8.31491 4.64288C7.74489 4.65043 7.18039 4.75562 6.64591 4.95388C5.85666 5.25589 5.23213 5.87787 4.92691 6.66588C4.72712 7.20618 4.62191 7.77686 4.61591 8.35288C4.56291 9.32188 4.56291 9.57588 4.56291 12.0049C4.56291 14.4049 4.57191 14.6959 4.61591 15.6589C4.62486 16.2291 4.73 16.7937 4.92691 17.3289C5.23258 18.1164 5.857 18.7379 6.64591 19.0399C7.18002 19.2395 7.74476 19.3447 8.31491 19.3509C9.28291 19.4069 9.53791 19.4069 11.9699 19.4069C14.4229 19.4069 14.6769 19.3949 15.6239 19.3509C16.1943 19.3439 16.7592 19.2387 17.2939 19.0399C18.0784 18.7353 18.6988 18.1152 19.0039 17.3309C19.2033 16.7901 19.3085 16.2192 19.3149 15.6429H19.3259C19.3689 14.6869 19.3689 14.4319 19.3689 11.9889C19.3689 9.54588 19.3579 9.28888 19.3149 8.33388C19.3059 7.76433 19.2008 7.20039 19.0039 6.66588C18.6995 5.88046 18.079 5.25918 17.2939 4.95388C16.7594 4.75462 16.1943 4.6494 15.6239 4.64288C14.6569 4.58788 14.4039 4.58788 11.9699 4.58788ZM12.0039 16.6239C10.1339 16.6251 8.44733 15.4996 7.73077 13.7723C7.01421 12.0451 7.40881 10.0562 8.73054 8.73334C10.0523 7.41047 12.0408 7.01415 13.7687 7.72921C15.4966 8.44428 16.6235 10.1299 16.6239 11.9999C16.6212 14.5509 14.555 16.6189 12.0039 16.6239ZM12.0039 8.99788C10.3471 8.99788 9.00391 10.341 9.00391 11.9979C9.00391 13.6547 10.3471 14.9979 12.0039 14.9979C13.6608 14.9979 15.0039 13.6547 15.0039 11.9979C15.0001 10.3426 13.6592 9.00173 12.0039 8.99788ZM16.8039 8.28489C16.2093 8.28268 15.7288 7.79947 15.7299 7.20489C15.731 6.61031 16.2133 6.12889 16.8079 6.12889C17.4025 6.12889 17.8848 6.6103 17.8859 7.20488C17.8862 7.49174 17.7722 7.76691 17.5692 7.96956C17.3661 8.17222 17.0908 8.28568 16.8039 8.28489Z" fill="#4A525E"/>
</svg>
