<svg width="836" height="250" viewBox="0 0 836 250" fill="none" xmlns="http://www.w3.org/2000/svg">
  <rect x="0.8125" y="137.867" width="834.373" height="112.08" rx="25" fill="#DEE2E9"/>
  <path d="M486.494 190.172L496.457 200.135L506.419 190.172" stroke="#777F93" stroke-width="5" stroke-linecap="round" stroke-linejoin="round"/>
  <path d="M345.706 208.06C343.71 208.06 341.906 207.719 340.294 207.035C338.708 206.352 337.451 205.368 336.522 204.083C335.592 202.799 335.114 201.282 335.087 199.532H341.237C341.319 200.708 341.729 201.637 342.467 202.32C343.232 203.004 344.271 203.345 345.583 203.345C346.922 203.345 347.974 203.031 348.74 202.402C349.505 201.746 349.888 200.899 349.888 199.86C349.888 199.013 349.628 198.316 349.109 197.769C348.589 197.223 347.933 196.799 347.141 196.498C346.375 196.17 345.309 195.815 343.943 195.432C342.084 194.886 340.567 194.353 339.392 193.833C338.244 193.287 337.246 192.48 336.399 191.414C335.579 190.321 335.169 188.872 335.169 187.068C335.169 185.374 335.592 183.898 336.44 182.64C337.287 181.383 338.476 180.426 340.007 179.77C341.537 179.087 343.287 178.745 345.255 178.745C348.207 178.745 350.598 179.47 352.43 180.918C354.288 182.34 355.313 184.335 355.505 186.904H349.191C349.136 185.92 348.712 185.114 347.92 184.485C347.154 183.829 346.129 183.501 344.845 183.501C343.724 183.501 342.822 183.788 342.139 184.362C341.483 184.936 341.155 185.77 341.155 186.863C341.155 187.629 341.401 188.271 341.893 188.79C342.412 189.282 343.041 189.692 343.779 190.02C344.544 190.321 345.61 190.676 346.977 191.086C348.835 191.633 350.352 192.18 351.528 192.726C352.703 193.273 353.714 194.093 354.562 195.186C355.409 196.28 355.833 197.715 355.833 199.491C355.833 201.022 355.436 202.443 354.644 203.755C353.851 205.067 352.689 206.12 351.159 206.912C349.628 207.678 347.81 208.06 345.706 208.06ZM363.72 182.353C362.709 182.353 361.861 182.039 361.178 181.41C360.522 180.754 360.194 179.948 360.194 178.991C360.194 178.035 360.522 177.242 361.178 176.613C361.861 175.957 362.709 175.629 363.72 175.629C364.731 175.629 365.565 175.957 366.221 176.613C366.904 177.242 367.246 178.035 367.246 178.991C367.246 179.948 366.904 180.754 366.221 181.41C365.565 182.039 364.731 182.353 363.72 182.353ZM366.549 185.059V207.773H360.809V185.059H366.549ZM377.468 203.058H387.595V207.773H370.949V203.14L380.871 189.774H370.99V185.059H387.472V189.692L377.468 203.058ZM413.154 195.924C413.154 196.744 413.1 197.482 412.99 198.138H396.385C396.522 199.778 397.096 201.063 398.107 201.992C399.119 202.922 400.362 203.386 401.838 203.386C403.97 203.386 405.487 202.471 406.389 200.639H412.58C411.924 202.826 410.667 204.63 408.808 206.051C406.95 207.445 404.667 208.142 401.961 208.142C399.775 208.142 397.807 207.664 396.057 206.707C394.335 205.723 392.982 204.343 391.998 202.566C391.042 200.79 390.563 198.74 390.563 196.416C390.563 194.066 391.042 192.002 391.998 190.225C392.955 188.449 394.294 187.082 396.016 186.125C397.738 185.169 399.72 184.69 401.961 184.69C404.121 184.69 406.048 185.155 407.742 186.084C409.464 187.014 410.79 188.339 411.719 190.061C412.676 191.756 413.154 193.71 413.154 195.924ZM407.209 194.284C407.182 192.808 406.649 191.633 405.61 190.758C404.572 189.856 403.301 189.405 401.797 189.405C400.376 189.405 399.173 189.843 398.189 190.717C397.233 191.565 396.645 192.754 396.426 194.284H407.209ZM425.761 183.173V177.884H435.642V207.773H429.738V183.173H425.761ZM441.312 192.439C441.312 187.711 442.159 184.007 443.854 181.328C445.576 178.65 448.419 177.31 452.382 177.31C456.345 177.31 459.174 178.65 460.869 181.328C462.591 184.007 463.452 187.711 463.452 192.439C463.452 197.195 462.591 200.926 460.869 203.632C459.174 206.338 456.345 207.691 452.382 207.691C448.419 207.691 445.576 206.338 443.854 203.632C442.159 200.926 441.312 197.195 441.312 192.439ZM457.794 192.439C457.794 190.417 457.657 188.722 457.384 187.355C457.138 185.961 456.619 184.827 455.826 183.952C455.061 183.078 453.913 182.64 452.382 182.64C450.851 182.64 449.69 183.078 448.897 183.952C448.132 184.827 447.612 185.961 447.339 187.355C447.093 188.722 446.97 190.417 446.97 192.439C446.97 194.517 447.093 196.266 447.339 197.687C447.585 199.081 448.104 200.216 448.897 201.09C449.69 201.938 450.851 202.361 452.382 202.361C453.913 202.361 455.074 201.938 455.867 201.09C456.66 200.216 457.179 199.081 457.425 197.687C457.671 196.266 457.794 194.517 457.794 192.439Z" fill="#777F93"/>
  <rect x="0.8125" y="0.878906" width="834.373" height="112.08" rx="25" fill="#EC3E26"/>
  <path d="M292.769 56.1072C294.382 56.4078 295.708 57.2142 296.746 58.5262C297.785 59.8382 298.304 61.3415 298.304 63.0362C298.304 64.5668 297.922 65.9198 297.156 67.0952C296.418 68.2432 295.339 69.1452 293.917 69.8012C292.496 70.4572 290.815 70.7852 288.874 70.7852H276.533V42.1672H288.341C290.282 42.1672 291.949 42.4815 293.343 43.1102C294.765 43.7388 295.831 44.6135 296.541 45.7342C297.279 46.8548 297.648 48.1258 297.648 49.5472C297.648 51.2145 297.197 52.6085 296.295 53.7292C295.421 54.8498 294.245 55.6425 292.769 56.1072ZM282.273 53.9752H287.521C288.888 53.9752 289.94 53.6745 290.678 53.0732C291.416 52.4445 291.785 51.5562 291.785 50.4082C291.785 49.2602 291.416 48.3718 290.678 47.7432C289.94 47.1145 288.888 46.8002 287.521 46.8002H282.273V53.9752ZM288.054 66.1112C289.448 66.1112 290.528 65.7832 291.293 65.1272C292.086 64.4712 292.482 63.5418 292.482 62.3392C292.482 61.1092 292.072 60.1525 291.252 59.4692C290.432 58.7585 289.325 58.4032 287.931 58.4032H282.273V66.1112H288.054ZM324.322 48.0712V70.7852H318.541V67.9152C317.803 68.8992 316.833 69.6782 315.63 70.2522C314.455 70.7988 313.17 71.0722 311.776 71.0722C309.999 71.0722 308.428 70.7032 307.061 69.9652C305.694 69.1998 304.615 68.0928 303.822 66.6442C303.057 65.1682 302.674 63.4188 302.674 61.3962V48.0712H308.414V60.5762C308.414 62.3802 308.865 63.7742 309.767 64.7582C310.669 65.7148 311.899 66.1932 313.457 66.1932C315.042 66.1932 316.286 65.7148 317.188 64.7582C318.09 63.7742 318.541 62.3802 318.541 60.5762V48.0712H324.322ZM351.715 48.0712L337.652 81.5272H331.543L336.463 70.2112L327.361 48.0712H333.798L339.661 63.9382L345.606 48.0712H351.715ZM389.056 70.7852H383.316L370.319 51.1462V70.7852H364.579V42.1262H370.319L383.316 61.8062V42.1262H389.056V70.7852ZM415.844 58.9362C415.844 59.7562 415.789 60.4942 415.68 61.1502H399.075C399.211 62.7902 399.785 64.0748 400.797 65.0042C401.808 65.9335 403.052 66.3982 404.528 66.3982C406.66 66.3982 408.177 65.4825 409.079 63.6512H415.27C414.614 65.8378 413.356 67.6418 411.498 69.0632C409.639 70.4572 407.357 71.1542 404.651 71.1542C402.464 71.1542 400.496 70.6758 398.747 69.7192C397.025 68.7352 395.672 67.3548 394.688 65.5782C393.731 63.8015 393.253 61.7515 393.253 59.4282C393.253 57.0775 393.731 55.0138 394.688 53.2372C395.644 51.4605 396.984 50.0938 398.706 49.1372C400.428 48.1805 402.409 47.7022 404.651 47.7022C406.81 47.7022 408.737 48.1668 410.432 49.0962C412.154 50.0255 413.479 51.3512 414.409 53.0732C415.365 54.7678 415.844 56.7222 415.844 58.9362ZM409.899 57.2962C409.871 55.8202 409.338 54.6448 408.3 53.7702C407.261 52.8682 405.99 52.4172 404.487 52.4172C403.065 52.4172 401.863 52.8545 400.879 53.7292C399.922 54.5765 399.334 55.7655 399.116 57.2962H409.899ZM451.521 48.0712L444.879 70.7852H438.688L434.547 54.9182L430.406 70.7852H424.174L417.491 48.0712H423.313L427.331 65.3732L431.677 48.0712H437.745L442.009 65.3322L446.027 48.0712H451.521ZM484.815 62.5442C484.815 63.9655 484.446 65.3048 483.708 66.5622C482.997 67.7922 481.931 68.8172 480.51 69.6372C479.116 70.4298 477.462 70.8945 475.549 71.0312V74.3522H472.925V70.9902C470.191 70.7442 467.991 69.9242 466.324 68.5302C464.656 67.1088 463.795 65.1955 463.741 62.7902H469.891C470.055 64.7582 471.066 65.9472 472.925 66.3572V58.5262C470.957 58.0342 469.371 57.5422 468.169 57.0502C466.966 56.5582 465.927 55.7655 465.053 54.6722C464.178 53.5788 463.741 52.0892 463.741 50.2032C463.741 47.8252 464.588 45.8845 466.283 44.3812C468.005 42.8778 470.219 42.0168 472.925 41.7982V38.4772H475.549V41.7982C478.173 42.0168 480.264 42.8095 481.822 44.1762C483.407 45.5428 484.295 47.4288 484.487 49.8342H478.296C478.214 49.0415 477.927 48.3582 477.435 47.7842C476.97 47.1828 476.341 46.7592 475.549 46.5132V54.2622C477.599 54.7815 479.211 55.2872 480.387 55.7792C481.589 56.2438 482.628 57.0228 483.503 58.1162C484.377 59.1822 484.815 60.6582 484.815 62.5442ZM469.727 49.9162C469.727 50.8182 470 51.5562 470.547 52.1302C471.093 52.6768 471.886 53.1278 472.925 53.4832V46.3902C471.941 46.5268 471.162 46.8958 470.588 47.4972C470.014 48.0985 469.727 48.9048 469.727 49.9162ZM475.549 66.4392C476.587 66.2478 477.394 65.8242 477.968 65.1682C478.569 64.5122 478.87 63.7195 478.87 62.7902C478.87 61.8882 478.583 61.1638 478.009 60.6172C477.435 60.0705 476.615 59.6195 475.549 59.2642V66.4392ZM492.371 64.3072C494.995 62.1205 497.086 60.3028 498.644 58.8542C500.202 57.3782 501.5 55.8475 502.539 54.2622C503.577 52.6768 504.097 51.1188 504.097 49.5882C504.097 48.1942 503.769 47.1008 503.113 46.3082C502.457 45.5155 501.445 45.1192 500.079 45.1192C498.712 45.1192 497.66 45.5838 496.922 46.5132C496.184 47.4152 495.801 48.6588 495.774 50.2442H490.198C490.307 46.9642 491.277 44.4768 493.109 42.7822C494.967 41.0875 497.318 40.2402 500.161 40.2402C503.277 40.2402 505.668 41.0738 507.336 42.7412C509.003 44.3812 509.837 46.5542 509.837 49.2602C509.837 51.3922 509.263 53.4285 508.115 55.3692C506.967 57.3098 505.655 59.0045 504.179 60.4532C502.703 61.8745 500.776 63.5965 498.398 65.6192H510.493V70.3752H490.239V66.1112L492.371 64.3072ZM519.112 54.9592C516.378 53.5378 515.012 51.3375 515.012 48.3582C515.012 46.8822 515.381 45.5428 516.119 44.3402C516.884 43.1102 518.018 42.1398 519.522 41.4292C521.052 40.6912 522.911 40.3222 525.098 40.3222C527.284 40.3222 529.129 40.6912 530.633 41.4292C532.163 42.1398 533.298 43.1102 534.036 44.3402C534.801 45.5428 535.184 46.8822 535.184 48.3582C535.184 49.8615 534.815 51.1872 534.077 52.3352C533.339 53.4558 532.355 54.3305 531.125 54.9592C532.628 55.6152 533.803 56.5718 534.651 57.8292C535.498 59.0865 535.922 60.5762 535.922 62.2982C535.922 64.1568 535.443 65.7832 534.487 67.1772C533.557 68.5438 532.273 69.5962 530.633 70.3342C528.993 71.0722 527.148 71.4412 525.098 71.4412C523.048 71.4412 521.203 71.0722 519.563 70.3342C517.95 69.5962 516.665 68.5438 515.709 67.1772C514.779 65.7832 514.315 64.1568 514.315 62.2982C514.315 60.5762 514.738 59.0865 515.586 57.8292C516.433 56.5445 517.608 55.5878 519.112 54.9592ZM529.608 49.1782C529.608 47.8388 529.198 46.8002 528.378 46.0622C527.585 45.3242 526.492 44.9552 525.098 44.9552C523.731 44.9552 522.638 45.3242 521.818 46.0622C521.025 46.8002 520.629 47.8525 520.629 49.2192C520.629 50.4492 521.039 51.4332 521.859 52.1712C522.706 52.9092 523.786 53.2782 525.098 53.2782C526.41 53.2782 527.489 52.9092 528.337 52.1712C529.184 51.4058 529.608 50.4082 529.608 49.1782ZM525.098 57.4602C523.54 57.4602 522.269 57.8565 521.285 58.6492C520.328 59.4418 519.85 60.5762 519.85 62.0522C519.85 63.4188 520.314 64.5395 521.244 65.4142C522.2 66.2615 523.485 66.6852 525.098 66.6852C526.71 66.6852 527.981 66.2478 528.911 65.3732C529.84 64.4985 530.305 63.3915 530.305 62.0522C530.305 60.6035 529.826 59.4828 528.87 58.6902C527.913 57.8702 526.656 57.4602 525.098 57.4602ZM540.455 55.4512C540.455 50.7225 541.303 47.0188 542.997 44.3402C544.719 41.6615 547.562 40.3222 551.525 40.3222C555.489 40.3222 558.318 41.6615 560.012 44.3402C561.734 47.0188 562.595 50.7225 562.595 55.4512C562.595 60.2072 561.734 63.9382 560.012 66.6442C558.318 69.3502 555.489 70.7032 551.525 70.7032C547.562 70.7032 544.719 69.3502 542.997 66.6442C541.303 63.9382 540.455 60.2072 540.455 55.4512ZM556.937 55.4512C556.937 53.4285 556.801 51.7338 556.527 50.3672C556.281 48.9732 555.762 47.8388 554.969 46.9642C554.204 46.0895 553.056 45.6522 551.525 45.6522C549.995 45.6522 548.833 46.0895 548.04 46.9642C547.275 47.8388 546.756 48.9732 546.482 50.3672C546.236 51.7338 546.113 53.4285 546.113 55.4512C546.113 57.5285 546.236 59.2778 546.482 60.6992C546.728 62.0932 547.248 63.2275 548.04 64.1022C548.833 64.9495 549.995 65.3732 551.525 65.3732C553.056 65.3732 554.218 64.9495 555.01 64.1022C555.803 63.2275 556.322 62.0932 556.568 60.6992C556.814 59.2778 556.937 57.5285 556.937 55.4512Z" fill="white"/>
</svg>
