<?xml version="1.0" encoding="UTF-8"?>
<svg width="79px" height="24px" viewBox="0 0 79 24" version="1.1" xmlns="http://www.w3.org/2000/svg" xmlns:xlink="http://www.w3.org/1999/xlink">
  <!-- Generator: Sketch 64 (93537) - https://sketch.com -->
  <title>Icn / klekt</title>
  <desc>Created with Sketch.</desc>
  <g id="Icn-/-klekt" stroke="none" stroke-width="1" fill="none" fill-rule="evenodd">
    <path d="M16.5841912,0.0637835226 L11.0367647,10.1531771 L16.7875,24 L10.3977941,24 L6.97058824,15.453008 L5.63455882,17.7724088 L5.63455882,24 L0,24 L0,0.0637835226 L5.61713235,0.0637835226 L5.61713235,9.27760329 L10.3455147,0.0637835226 L16.5841912,0.0637835226 Z M79,0 L76.0955882,5.21865185 L72.7090441,5.21865185 L72.7090441,23.942015 L67.05125,23.942015 L67.05125,5.21865185 L62.8514706,5.21865185 L65.5061029,0.382701136 L65.7094118,0 L79,0 Z M24.1530882,0 L24.1530882,18.7407586 L30.31625,18.7407586 L30.31625,23.9594105 L18.5011029,23.9594105 L18.5011029,0 L24.1530882,0 Z M45.2216912,0 L45.2216912,5.13167432 L37.4378676,5.13167432 L37.4378676,9.40517033 L43.4964706,9.40517033 L43.4964706,14.3686881 L37.4378676,14.3686881 L37.4378676,18.8103407 L45.3552941,18.8103407 L45.3552941,23.942015 L31.8265441,23.942015 L31.8265441,0 L45.2216912,0 Z M57.7919853,0 L53.0636029,9.23701377 L53.0636029,0 L47.4406618,0 L47.4406618,23.942015 L53.0636029,23.942015 L53.0636029,17.7144238 L54.3996324,15.395023 L57.8849265,23.9478135 L64.2746324,23.9478135 L58.5180882,10.1009906 L64.0248529,0 L57.7919853,0 Z" fill="#181818"></path>
  </g>
</svg>