<svg xmlns="http://www.w3.org/2000/svg" xmlns:xlink="http://www.w3.org/1999/xlink" width="581.56" height="457.26" viewBox="0 0 581.56 457.26"><defs><linearGradient id="b" x1="685.46" y1="719.81" x2="392.49" y2="426.84" gradientUnits="userSpaceOnUse"><stop offset="0" stop-color="#f1f2f2"/><stop offset="0.12" stop-color="#cccdcf"/><stop offset="1"/></linearGradient></defs><g style="isolation:isolate"><path d="M825.4,571.72l-85.35-26L280,566s-20,.78-21.46,1.23c-.63.19-1.78,1-3.81,1.67s-4.62,1.35-5.78,1.73c-.46.16-.62.26-.3.42,1.13.59,3.73,1.55,4.52,2,.39.22-.43.28-.49.49s.16.19.77.52a29.47,29.47,0,0,0,4.4,1.74c6.54,2.27,11.34,4,16.67,5.38a80.22,80.22,0,0,0,11.63,2.13,9.8,9.8,0,0,0,1.69.13,4.39,4.39,0,0,0,1.24-.39c.16,0,.38.18.52.25,3.54,1.88,12.54,4.91,14.65,5.71s23.49,9.1,23.86,9.25,18.33,7.07,23.81,8,6.32,1,6.59.85,10.8-3.79,12.5-4.34,4-.7,3.87-.44.56,7.13-.33,7.5-6.85,3.21-7.7,3.61c-.64.3-.1.67.05.78s2.2.85,4.7,2c6.9,3.09,19.06,8.57,19.06,8.57s44.49,17.86,46.51,18.6,42.2,18.44,43.63,19.24,49,20.62,51.93,22.06,66.45,30,70.37,31.94,27.41,10.65,27.41,10.65l34.58,12.92,67.65-77Z" transform="translate(-243.83 -282.89)" opacity="0.53" fill="url(#b)"/><path d="M279.23,401.05c-1.39.06-31.45.46-31.45.46s4.84,99.27,4.5,102.06,2.48,56.35,2.48,56.35,26.39,10.87,32,12.47,48.08,19.17,53.69,20.77,15.11,7.21,15.11,7.21L410,575.76,390.64,451.21,359.9,404.67l-42.64-1.6Z" transform="translate(-243.83 -282.89)" fill="none" stroke="#231f20" stroke-linecap="round" stroke-linejoin="round" stroke-width="0.75"/><path d="M433,404s-75.16,6.09-76.55,6.15-11.4,3.74-11.4,3.74,7.36,93.61,7.1,98.25,2.37,74.87,2.46,76.71l1,11.53s23-12.59,28-14.66,64.86-40.34,64.86-40.34L457,445.51,436.85,406.6Z" transform="translate(-243.83 -282.89)" fill="#0bb0d2" stroke="#231f20" stroke-width="0.75"/><path d="M258.37,399.59l-10.59,1.92L248,405s41.21,10.75,45,12.69,29,6.56,29.37,5.9,24.33-4.44,24.42-5.89-27.89-9.79-28.88-10.29-11.56-1-14.2-1.65-7.59-1.18-11.89-1.75Z" transform="translate(-243.83 -282.89)" fill="#002846" stroke="#231f20" stroke-linecap="round" stroke-linejoin="round" stroke-width="0.75"/><path d="M376.65,385.65s31.07,12.05,32.57,14.55,6.42,9.18,7.43,11-18.4,2.66-29,3.13S346.19,419,346.19,419s-21.92-5.57-39.63-8.49c-14.72-2.42-44.77-9-55.48-8.35a6,6,0,0,1-3.3-.61,13.37,13.37,0,0,1,2.65-.48c3.37-.38,11.09-2.34,21.21-3.56,0,0,25.7-3,35.65-3.76s22.89-1.69,29.08-2.06,33.4-3.57,34-3.57S376.65,385.65,376.65,385.65Z" transform="translate(-243.83 -282.89)" fill="#2785c4" stroke="#231f20" stroke-linecap="round" stroke-linejoin="round" stroke-width="0.75"/><path d="M254.76,559.92s8.76,5.6,15.5,9.12S286,579.9,295.94,582.86c0,0,27.19,11,34.3,13.22s26.36,8.44,26.36,8.44c-2.37-50.27-3.41-54.42-3.51-57.39s-5.55-100.93-5.68-102.61S346.19,419,346.19,419s-15.18-2.64-23.09-3.57-18.34-4-25.39-4.92-33.53-8.1-37.57-9a36.3,36.3,0,0,0-12.36,0s-.27,9.4-.23,24.05c0,3.18,1.75,29.45,1.37,30.53s1.34,37.27,2,44.33c.8,9.2,1.4,43.27,1.8,45.81C253.69,552.53,254.76,559.92,254.76,559.92Z" transform="translate(-243.83 -282.89)" fill="#2785c4" stroke="#231f20" stroke-linecap="round" stroke-linejoin="round" stroke-width="0.75"/><path d="M356.6,604.52c.23.11,11-4.24,14.11-5.74s22.93-11.23,22.93-11.23l17.42-7.8,122.65-48.47c-16.83-131.74-67.46-128-67.93-129.15-.22-.57-87.16,20.66-87.39,20.2s10.77-10.83,10-10.72-5.56,3.26-6.47,3.05-22.11,2.14-22.47,2.19c-1.86.26-10.38,1.35-13.54,1.75-.85.11-.49.61-.43,1.54.32,4.76,1.29,19.51,1.41,21.34.15,2.18,3.41,59.13,4.24,60.7.64,1.2,4.18,84.55,3.92,91.65a49.65,49.65,0,0,0,.44,5.69S355.57,604,356.6,604.52Z" transform="translate(-243.83 -282.89)" fill="#2785c4" stroke="#231f20" stroke-linecap="round" stroke-linejoin="round" stroke-width="0.75"/><path d="M318.66,486.1s12.48,3.89,15.89,4.57,9.17,2.38,9.17,2.38l3.12,77.17-24.23-7.92-3.31-62.47Z" transform="translate(-243.83 -282.89)" fill="#fff" stroke="#231f20" stroke-linecap="round" stroke-linejoin="round" stroke-width="0.75"/><path d="M337.5,574.27a12.13,12.13,0,0,0-4.12.25,7.17,7.17,0,0,0-5,3.73c-1.09,2-.51,4.45.55,6.29s4.81,4.46,7.55,4.62c3.76.22,8.79-1.2,9.09-4.75a8.89,8.89,0,0,0-3.16-7.75A15.86,15.86,0,0,0,337.5,574.27Z" transform="translate(-243.83 -282.89)" fill="#58595b" stroke="#231f20" stroke-linecap="round" stroke-linejoin="round" stroke-width="0.75"/><path d="M274.55,405.13s5.1,94.74,5.1,95.58,6.89,77.5,6.89,77.5l3.09,1.32s-7.55-101.3-7.54-105.09-4.22-58.81-3.64-66.55c.16-2.11.21-2.38.21-2.38s19.24-1.37,20.6-1.52c4.81-.53,39.28-2.94,39.28-2.94l11-2.09s2.75-2.79,2.08-2.66-9.33-.14-12.67,0-39-1-41.73,0S279,398.75,277,399.59,274.55,405.13,274.55,405.13Z" transform="translate(-243.83 -282.89)" fill="#6d6e71" opacity="0.37" style="mix-blend-mode:multiply"/><path d="M333.38,574.52s-3.08,2.18-3.42,5a7.53,7.53,0,0,0,3.08,6.39,9.74,9.74,0,0,0,6,2.59,8,8,0,0,0,3.17-.26,12.83,12.83,0,0,1-6.15.93c-2.49-.22-4.4-1.54-6.54-3.44s-1.89-5.36-1.72-6.21a5.64,5.64,0,0,1,2.29-3.42,19.59,19.59,0,0,1,3.28-1.59h0" transform="translate(-243.83 -282.89)" fill="#c49a6c" stroke="#231f20" stroke-linecap="round" stroke-linejoin="round" stroke-width="0.75"/><path d="M244.34,402.17s.29,11.78,1.12,34.18c.68,18.24,2.38,50.81,3.09,60.42,1.73,23.34,2.52,61.15,3.66,68.94.35,2.44.74,5.57,1,7.3.13.87,8.15,3.53,9.33,3.79,1.82.39,4.9,1.42,8.75,2.65A78.25,78.25,0,0,0,288,582.86c-.89-17.35-2.85-33.7-3.46-45.22-2.54-47.78-2.72-41.65-3.4-53.52-.37-6.44-1.47-29.35-2.19-40.25-.93-14-.88-22.39-.88-22.39s-.12-11.89-.42-14c-.46-3.3,1-3.14,1-3.14s-7.71-4-12.63-4.4-9.62-1.19-10.91-1.29-10.54.45-10.83.71S244.34,402.17,244.34,402.17Z" transform="translate(-243.83 -282.89)" fill="#2785c4" stroke="#231f20" stroke-linecap="round" stroke-linejoin="round" stroke-width="0.75"/><path d="M244.61,398.65a50.27,50.27,0,0,1,7.41-1.78c7.71-.54,26.89-2,29.54-2.2,9.9-.92,30-4.28,40.23-4.91s31-2.87,31-2.87l6,11.09s-63.5,5.87-64.75,5.79-16.25.46-16.25.46l-16.9-2.88-16.55-2Z" transform="translate(-243.83 -282.89)" fill="#1c75bc" stroke="#231f20" stroke-linecap="round" stroke-linejoin="round" stroke-width="0.75"/><path d="M267.24,489.6c-.12-1.25-.18-1.89-.31-3.2a33,33,0,0,1,2.87,2.19A14.71,14.71,0,0,1,267.24,489.6Z" transform="translate(-243.83 -282.89)" fill="#fff"/><path d="M264.79,485l1,.59c.16,1.76.24,2.61.4,4.27l-.89.2C265.08,488.12,265,487.11,264.79,485Z" transform="translate(-243.83 -282.89)" fill="#fff"/><path d="M262.56,483.87c.36.16.72.34,1.07.52l.54,5.87c-.32,0-.66.08-1,.09C262.93,487.81,262.8,486.49,262.56,483.87Z" transform="translate(-243.83 -282.89)" fill="#fff"/><path d="M259.35,482.76a14.84,14.84,0,0,1,2.06.63c.26,2.8.39,4.22.65,7a10.59,10.59,0,0,1-2-.27,22.59,22.59,0,0,1-10.2-5.91A13.25,13.25,0,0,1,259.35,482.76Z" transform="translate(-243.83 -282.89)" fill="#fff"/><path d="M266.88,485.77c-.21-2.21-.32-3.36-.52-5.6a21.57,21.57,0,0,1,3,6.41A16.4,16.4,0,0,1,266.88,485.77Z" transform="translate(-243.83 -282.89)" fill="#fff"/><path d="M264.07,477.24l0,0q.52.59,1,1.17c.25,2.73.38,4.09.63,6.82-.3-.14-.62-.3-1-.48Z" transform="translate(-243.83 -282.89)" fill="#fff"/><path d="M261.75,475.09c.37.29.74.59,1.1.93l.75,8.1c-.36-.22-.72-.45-1.08-.71C262.21,480.08,262.06,478.42,261.75,475.09Z" transform="translate(-243.83 -282.89)" fill="#fff"/><path d="M260.57,474.23c.3,3.32.46,5,.76,8.3a21.26,21.26,0,0,1-1.87-1.72c-4.91-5.13-5.31-9.47-5.31-9.47A20.94,20.94,0,0,1,260.57,474.23Z" transform="translate(-243.83 -282.89)" fill="#fff"/><path d="M262.14,491.21c.3,3.25.45,4.84.75,8a10.26,10.26,0,0,1-6.12.33,8.86,8.86,0,0,1,3.74-7.41A7.92,7.92,0,0,1,262.14,491.21Z" transform="translate(-243.83 -282.89)" fill="#fff"/><path d="M264.2,490.52c.29,3.1.44,4.59.73,7.61a11,11,0,0,1-1,.6c-.3-3.16-.45-4.71-.75-7.94Z" transform="translate(-243.83 -282.89)" fill="#fff"/><path d="M266.19,490.23l.61,6.23q-.37.41-.81.81l0,0c-.27-2.77-.4-4.13-.67-7Z" transform="translate(-243.83 -282.89)" fill="#fff"/><path d="M269.73,490.44a10.11,10.11,0,0,1-1.94,4.83c-.2-2-.29-3-.49-5.06A14.5,14.5,0,0,1,269.73,490.44Z" transform="translate(-243.83 -282.89)" fill="#fff"/><path d="M272.16,475.39c-.24-.11-.62-.22-.58.47a1.32,1.32,0,0,0,.52,1c.37.17.45-.4.54-1,.15-1,.55-1.22,1.08-1a3,3,0,0,1,1.46,2.35c.17,1-.3,1.52-1.11,1.42l-.1-1.08c.24,0,.57,0,.5-.64a1.1,1.1,0,0,0-.54-.94c-.33-.13-.31.51-.44,1.17-.17.83-.47,1.2-1.14.95a3,3,0,0,1-1.49-2.6c-.1-1.13.38-1.59,1.2-1.21Z" transform="translate(-243.83 -282.89)" fill="#fff"/><path d="M270.76,490.66l1.76.4a1.69,1.69,0,0,0-.3,1.19A3.46,3.46,0,0,0,274.7,495c1.32.39,2.39-.3,2.26-1.54a3.1,3.1,0,0,0-.61-1.45l.45.12c-.05-.39-.08-.58-.14-1-2.45-.64-3.64-.94-6-1.47Zm5.18,2.54c.08.73-.55,1.1-1.32.89a2,2,0,0,1-1.46-1.62.9.9,0,0,1,1.21-1A2.28,2.28,0,0,1,275.94,493.2Z" transform="translate(-243.83 -282.89)" fill="#fff"/><path d="M272.65,495.81l.3.08a1.44,1.44,0,0,0-.31,1.09,4.28,4.28,0,0,0,2.5,3.09,1.48,1.48,0,0,0,2.11-1.6,2.79,2.79,0,0,0-.49-1.41l.43.1c0-.37,0-.56,0-.94-1.78-.43-2.83-.88-4.58-1.28Zm3.65,2.42a.85.85,0,0,1-1.24.89,2.45,2.45,0,0,1-1.48-1.84c-.06-.69.49-1.07,1.25-.82A2.2,2.2,0,0,1,276.3,498.23Z" transform="translate(-243.83 -282.89)" fill="#fff"/><path d="M271.13,479.28l.31.08a1.92,1.92,0,0,0-.3,1.27,3.31,3.31,0,0,0,2.48,2.75,1.55,1.55,0,0,0,2.05-1.71,2.86,2.86,0,0,0-.54-1.39l.42.1c0-.38-.07-.56-.11-.92-1.75-.44-2.63-.69-4.4-1.23C271.08,478.65,271.1,478.86,271.13,479.28Zm3.6,2.17a.91.91,0,0,1-1.2,1,2,2,0,0,1-1.44-1.61.91.91,0,0,1,1.2-1A2,2,0,0,1,274.73,481.45Z" transform="translate(-243.83 -282.89)" fill="#fff"/><path d="M276.41,489.44c.06.39.09.58.14,1-1.78-.46-2.66-.69-4.39-1.08l-.08-.94C273.8,488.79,274.65,489,276.41,489.44Z" transform="translate(-243.83 -282.89)" fill="#fff"/><path d="M270.14,484l1.76.4a1.73,1.73,0,0,0-.3,1.2,3.37,3.37,0,0,0,2.47,2.74,1.53,1.53,0,0,0,2-1.71,3,3,0,0,0-.53-1.39l.42.1c0-.38-.05-.57-.08-.94l-5.85-1.34Zm5,2.41a.9.9,0,0,1-1.18,1,2,2,0,0,1-1.45-1.61.91.91,0,0,1,1.21-1A1.92,1.92,0,0,1,275.17,486.4Z" transform="translate(-243.83 -282.89)" fill="#fff"/><path d="M346.73,398c-1.29,0-6.36.53-9.58.58s-22.49,2.15-26.64,2.46L284,403c-1.27.08-5.61.94-6.23.85s-1.3.58-1.38,1.35.88,27.4.91,28.66c0,0,2.64,43.95,2.64,45.78s3,42.29,3,43.46,2.28,38.55,2.37,39.9S287,582.41,287,582.41a.66.66,0,0,0,.59.45c.43,0,.55-.17.63-.89S287,568.05,287,568.05s-3.06-41.4-3.11-42.18-3.09-48-3.09-48-2.73-54.56-2.74-55.49-.49-16.5-.49-16.5.44-1.12,1-1.17a26,26,0,0,0,3.62-.44c.25-.17,29.18-2,32.89-2.33l24.35-2.21,8.13-.17Z" transform="translate(-243.83 -282.89)" fill="#2470a4" stroke="#231f20" stroke-linecap="round" stroke-linejoin="round" stroke-width="0.75"/><path d="M276.78,404.23s.94.54,1.09,1" transform="translate(-243.83 -282.89)" fill="#1c75bc" stroke="#231f20" stroke-linecap="round" stroke-linejoin="round" stroke-width="0.75"/><path d="M750.13,528.85c.9.42,3.43,25.4,3.44,24.77s1.76-3.89,1.6-17.81c-.06-5.72.19-45.57.19-53.63s-.28-16.23-.85-18.36-1.31-2.84-3.06-2.66-2.74,7.4-2.74,7.4l-5.51,35s-1.14,10.89,0,11.6S750.13,528.85,750.13,528.85Z" transform="translate(-243.83 -282.89)" fill="#414042" stroke="#231f20" stroke-linecap="round" stroke-linejoin="round" stroke-width="0.75"/><path d="M753.57,457.44l1.4,14.5s-1.4,22.95-1.4,33.6v48.08l-6,5.08-3.43,3c-3.53,3.07-9.12,8-13.53,12l-3.37,3.08L726,577.8,718.12,585c-3.69,3.32-8.29,7.44-13.48,12.09l-10.22,9.18c-4.93,4.41-10.09,9.07-15.33,13.78l0,0c-3.64,3.24-7.28,6.5-10.89,9.74-5.11,4.6-10.16,9.12-14.93,13.4C649,647,645,650.6,641.34,653.86l0,0c-9,8.05-15.76,14.18-18.38,16.58-.61.54-1,.89-1.12,1-1.18,1.18-10.19,10-18.7,18.25v0c-3.4,3.29-6.74,6.53-9.45,9.18-2.06,2-3.53,3.85-4.89,5.38-.94,1-1.58.93-1.58.93s-14.85-44.86-14.85-50,2.3-33.73,2.3-33.73l10.2-80.9s12.46-3.24,14.31-4.63,45.32-22.18,51.79-26.35,61.94-31.44,66.56-33.28S753.57,457.44,753.57,457.44Z" transform="translate(-243.83 -282.89)" fill="#ee434b" stroke="#231f20" stroke-width="0.75"/><path d="M587.19,705.25s-.35.32-1.1,0-3.31-1.55-4.46-2.06c-4.12-1.84-10-4.68-14.37-6.77-2.68-1.31-4.76-2.35-5.54-2.73-1-.5-6.15-2.83-12.73-5.77-5.68-2.55-12.44-5.51-18.62-8.14s-11.56-4.81-14.88-6c-.56-.19-1.31-.48-2.22-.83-3.85-1.47-10.51-4.26-18.49-7.63l-16.53-7c-6.42-2.73-13-5.51-19.26-8.19l-16-6.63c-8.13-3.29-14.34-5.7-16.69-6.29a4.26,4.26,0,0,1-.51-.13c-3.4-.94-10.49-3.69-18.46-7-6.12-2.52-12.81-5.35-18.75-7.9-8-3.42-14.45-6.71-16.75-7.3-1-.25-.75-1.72-.75-1.72v-9.7s.64-50.86.19-56.4,0-58.24,0-58.24l11.56,3.69s14.34,3.24,18.48,4.15,73.07,19,99.42,24.5,84.14,19.43,84.14,19.43,2.75,61.48,2.3,72.58c-.3,7.49-.16,32-.06,50.32,0,3.8.06,7.3.08,10.35,0,4,0,7.25,0,9.13C587.14,693.21,587.19,705.25,587.19,705.25Z" transform="translate(-243.83 -282.89)" fill="#ee434b" stroke="#231f20" stroke-width="0.75"/><path d="M458.62,470.86s-55.48,10.63-64.72,12.48-22.66,5.55-22.66,5.55,62.73,41.63,65,42.56,80.12,37.88,80.12,37.88,113.73-.47,117.43-2.32,52.7-39.75,52.7-39.75l55-52.24,12-17.57s-25.43-2.31-31.44-3.24S669,446.36,669,446.36l-84.6-5.55Z" transform="translate(-243.83 -282.89)" fill="#ea5652" stroke="#231f20" stroke-width="0.75"/><path d="M753.56,457.45" transform="translate(-243.83 -282.89)" fill="#ea5652" stroke="#231f20" stroke-linecap="round" stroke-linejoin="round" stroke-width="0.75"/><polygon points="129.66 127.12 101.21 131 116.79 134.08 145.22 209.73 199.13 209.1 216.68 181.15 172.81 128.31 129.66 127.12" fill="#6d6e71" opacity="0.32" style="mix-blend-mode:multiply"/><path d="M587.19,603.6s-1.61,7.23-1.59,20.83c0,10.77-.07,68,0,72.29a31.21,31.21,0,0,0,1.59,8.53V603.6" transform="translate(-243.83 -282.89)" fill="#414042" stroke="#231f20" stroke-linecap="round" stroke-linejoin="round" stroke-width="0.75"/><path d="M666.42,582.54s-3.1,16.5,2.46,17.77c2,.45,4-.12,6.56-2.86,5-5.37,24.45-30.83,24.58-30.87s26.44-33.26,26.82-33.76.71-.25.13.59-29,45.25-29,45.25l-21.19,32.88s-3.59,5.46-6.56,7.88c-2.57,2.09-4.85,3-7.08,2.16-5.9-2.31-2-18.91-.43-25.39C664.74,587.47,666.42,582.54,666.42,582.54Z" transform="translate(-243.83 -282.89)" fill="#fff"/><path d="M672.28,557" transform="translate(-243.83 -282.89)" fill="#fff"/><path d="M672.28,557,668,592l4.47-3.55,1.88-15.39s.64,13.48.72,13.33,4.71-3.72,4.71-3.72,4.51-35.2,4.37-35-4.42,3.51-4.42,3.51l-1.9,15.71-.75-13.62Z" transform="translate(-243.83 -282.89)" fill="#fff"/><polygon points="441.05 264.18 436.68 299.2 441.1 295.69 445.35 260.78 441.05 264.18" fill="#fff"/><polygon points="446.21 260.09 441.97 295 446.31 291.57 448.2 276.92 449.62 288.95 454.12 285.39 452.16 268.39 458.13 250.66 453.15 254.6 449.5 267 450.64 256.58 446.21 260.09" fill="#fff"/><path d="M709.92,532.57l.81-6L702,533.54l-4.42,35.06,9.45-7.48.92-6.88-5.24,4.29,1.05-8.59,4.38-3.46.72-6.35-4.31,3.41.91-7.42Z" transform="translate(-243.83 -282.89)" fill="#fff"/><path d="M288.27,582.73c0,.18,1.74-.63,2-.84s.88-.8.88-.8l-3-1.56A23.4,23.4,0,0,1,288.27,582.73Z" transform="translate(-243.83 -282.89)" fill="#114e76" stroke="#231f20" stroke-linecap="round" stroke-linejoin="round" stroke-width="0.75"/><path d="M371.41,522.26l.22,7.74S513,582.45,524.85,586.59s40.48,14.67,47.88,16.21c12.39,2.59,13.23,1.72,13.23,1.72l.92-3.85L580,593.41s-140.62-64.84-148.38-65.9-44.21-7-44.21-7Z" transform="translate(-243.83 -282.89)" fill="#231f20" opacity="0.19" style="mix-blend-mode:multiply"/><path d="M457,467.65s-42.55,11.51-56,14.29-27.75,5.19-27.75,5.19-4.11,1.06-4.11,1.76c0,1.64-1,9.07-.86,16.18.28,14.36-.62,20.48,0,21.64.32.61,12.06,4.88,15.42,5.87,2.52.74,140.09,51,157.57,58.19s40.27,12,42.1,12.32a23.13,23.13,0,0,0,3.8.51,8.51,8.51,0,0,0,1.5-1.11c.46-.43,2.88-2.39,3.53-2.86.4-.29,1.86-1.41,2.31-1.73,18.87-13.82,87.42-61.45,96.68-68.26,12.25-9,47.42-34.21,53.59-38.33a67.42,67.42,0,0,0,11.41-10.06s.19-7.47.42-13.6c.3-8,.07-9.74-1.48-10.2-3.43-1-50.87-9.32-53.44-9.27s-34.64-6-34.64-6-84.89,4-92.73,4.75S457,467.65,457,467.65Z" transform="translate(-243.83 -282.89)" fill="#ee434b" stroke="#231f20" stroke-width="0.75"/><path d="M369.11,489.19c0-.23.56-.29.56-.29l1.65.72s16.71,5.59,34.25,11.09,72.63,25.16,88.8,29.29,61.28,20.75,71.6,23.33c7.31,1.82,14.08,3.39,17.4,4.15a17.22,17.22,0,0,0,1.9.48,15.14,15.14,0,0,0,2.23-1.16c11-6.44,64-37.56,75.4-42.78,12.73-5.82,64.82-37.53,72.39-41.31s20.4-14.44,20.4-14.44" transform="translate(-243.83 -282.89)" fill="#ee434b" stroke="#231f20" stroke-linecap="round" stroke-linejoin="round" stroke-width="0.75"/><path d="M585.57,558s-.43.72-.49,4.32c0,2.09-1.54,14-.08,26.21,0,0,.9,9.39,1.38,12.25a23.45,23.45,0,0,0,.81,2.86l.36-.4s-.36-10.17-.36-11.94c0-5.3-.05-9,0-11.16C587.27,576.34,585.57,558,585.57,558Z" transform="translate(-243.83 -282.89)" fill="#414042" stroke="#231f20" stroke-linecap="round" stroke-linejoin="round" stroke-width="0.75"/><path d="M378.53,573.14s-.26,15.66,0,21.54-.47,16.43-.12,16.66c.82.55,30.78,13.81,38.79,16.29s44.32,18.11,44.32,18.11-2.34-26-2.06-28.44-.36-14.11-.36-14.11S399,580.54,394.84,578.92C384.64,574.94,378.53,573.14,378.53,573.14Z" transform="translate(-243.83 -282.89)" fill="#fff" stroke="#231f20" stroke-linecap="round" stroke-linejoin="round" stroke-width="0.75"/><path d="M397.11,615.15c.27.28,28.11,11.38,34.73,13.86s20.72,9.67,21.54,10,4.81,1.65,4.81,1.65l-.77-7.5L456,605.89l-18.06-5.32s-8.84-3.32-13.26-4.83-25-10.18-27.76-11c0,0-.11,19.32-.06,21.65S397.11,615.15,397.11,615.15Z" transform="translate(-243.83 -282.89)" fill="#f7941d" stroke="#231f20" stroke-linecap="round" stroke-linejoin="round" stroke-width="0.75"/><polygon points="80.89 271.32 81.38 277.82 85.06 278.91 84.56 272.33 80.89 271.32" fill="#231f20"/><path d="M557.26,550.91l8.41-4.73,68.27-38.4s96.57-53,97.65-53.51-.57-1-1.47-.73c-.59.21-51.07,19.8-74.33,27.31l-1.72-3.79-18.94,2-3.61-10.21,15-1.3-3.29-6.6-14,1.15-2.49-7,13.9-1.06-2.09-5-26.22,1.93,8.39,36.17L601.2,465.54l11-14.62L596.93,452l-6.83,10.37-1-9.79-14,1-2.33,41L591,492.78l-.62-19.6,14.3,18.24,16.53-1.65h0l9.33-.93c-6.25,2-79.52,27.44-103.17,33.12-13.32,3.2-23.93,1.93-33.49-1.48-25.49-9.11-4.29-35-4.29-35s-31.83,10.49-35.86,32Z" transform="translate(-243.83 -282.89)" fill="#fff"/><path d="M522.78,478s2.42,21.46,2.81,21.29,21-2.1,21-2.1,9.84-42.27,9.43-42.16-14.63,1.07-14.63,1.07l-5.22,16.3-3.66-15.64L516.2,458l-23.31,44.58,20.82-2.07Z" transform="translate(-243.83 -282.89)" fill="#fff"/><polygon points="325.2 212.09 328.46 170.97 314.59 171.99 305.98 214 325.2 212.09" fill="#fff"/><path d="M563.42,546.33a55.54,55.54,0,0,0-3.79,5.34s-6.86,15.13-14.17,19.64-24.44,5.91-46.7-.28c-14.74-4.1-30.22-17.54-35.65-27-6.47-11.23-7-25.86-7-25.86Z" transform="translate(-243.83 -282.89)" fill="#fff"/><path d="M453,516.7s-.87,11.07,3.62,16.07c3.4,3.8,8.11,7.15,14.59,7.15s10-4.85,11.49-6.37,2.48-5.63,2.48-5.63l-27.75-9.72Z" transform="translate(-243.83 -282.89)" fill="#333132" stroke="#231f20" stroke-linecap="round" stroke-linejoin="round" stroke-width="0.75"/><path d="M455.2,517.89s-.18,6.76,2.32,11.12a20.1,20.1,0,0,0,8,7.51c3.2,1.67,8.62,1.14,10.89.54s5.26-3.09,6.48-4.67a13.46,13.46,0,0,0,2-4.58Z" transform="translate(-243.83 -282.89)" fill="#414042" stroke="#231f20" stroke-linecap="round" stroke-linejoin="round" stroke-width="0.75"/><path d="M511.32,526.3s-14.76-5.51-31.64-12.42c-24.07-9.85-53.48-22.43-59.27-25a157.38,157.38,0,0,0-19.38-7s44.15-11.11,49.1-12.44c3.95-1.06,128.55-22.43,189.08-26.88,15.41-1.14,45.16,5.56,45.63,6.07s11.29,1.85,28,5.16c8.06,1.61,30.32,5.69,36.23,6,3.35.21-16.6,15-31.81,22.6-28.42,14.3-92,55.06-112.41,64.19C591.28,552.74,511.32,526.3,511.32,526.3Z" transform="translate(-243.83 -282.89)" fill="#6d6e71" opacity="0.29" style="mix-blend-mode:multiply"/><path d="M360.62,295.08s61.67-3.07,70.57-3.69,68.73-4.33,78.76-4.95,33.2-3.1,33.2-3.1S582.41,300.8,607,311.08c2.81,1.17,3.61,14.26,5.76,15.16,18.4,7.72,19.62-4.87,20.92-4.42,10.81,3.71,61,29.66,66.52,30.58s19.15,6.47,19.15,6.47l-38,89.31L562.52,466.64l-83.41-43-99.67-89.35-7.32-7Z" transform="translate(-243.83 -282.89)" fill="#caad89" stroke="#231f20" stroke-linecap="round" stroke-linejoin="round" stroke-width="0.75"/><path d="M543.15,283.34s-14.26,50.57-16.6,61.83c-.31,1.46.44,2.54-19.48,64.83" transform="translate(-243.83 -282.89)" fill="none" stroke="#231f20" stroke-linecap="round" stroke-linejoin="round" stroke-width="0.75"/><path d="M677.53,447.62S616.07,420.74,595,410c-42.74-21.79-75.17-38.29-75.17-38.29s-65.76,7.63-80.93,10.16S346.17,396,346.17,396L452.6,474.44l165.79-18,68.53-13" transform="translate(-243.83 -282.89)" fill="#caad89" stroke="#414042" stroke-linecap="round" stroke-linejoin="round" stroke-width="0.75"/><path d="M378.59,294.17v2.4s-2.41,8.27-2.85,13.23a2.08,2.08,0,0,1-.77,1.27" transform="translate(-243.83 -282.89)" fill="none" stroke="#b79e7d" stroke-linecap="round" stroke-linejoin="round" stroke-width="0.75"/><line x1="139.65" y1="11.03" x2="135.6" y2="29.91" fill="none" stroke="#b79e7d" stroke-linecap="round" stroke-linejoin="round" stroke-width="0.75"/><line x1="143.19" y1="11.28" x2="139.72" y2="29.1" fill="none" stroke="#b79e7d" stroke-linecap="round" stroke-linejoin="round" stroke-width="0.75"/><line x1="147.19" y1="10.66" x2="143.42" y2="33.48" fill="none" stroke="#b79e7d" stroke-linecap="round" stroke-linejoin="round" stroke-width="0.75"/><line x1="150.88" y1="10.66" x2="147.11" y2="33.48" fill="none" stroke="#b79e7d" stroke-linecap="round" stroke-linejoin="round" stroke-width="0.75"/><line x1="154.57" y1="10.66" x2="150.81" y2="33.48" fill="none" stroke="#b79e7d" stroke-linecap="round" stroke-linejoin="round" stroke-width="0.75"/><line x1="158.27" y1="10.66" x2="154.5" y2="33.48" fill="none" stroke="#b79e7d" stroke-linecap="round" stroke-linejoin="round" stroke-width="0.75"/><line x1="161.96" y1="10.66" x2="157.94" y2="36.69" fill="none" stroke="#b79e7d" stroke-linecap="round" stroke-linejoin="round" stroke-width="0.75"/><line x1="165.66" y1="10.66" x2="160.88" y2="39.58" fill="none" stroke="#b79e7d" stroke-linecap="round" stroke-linejoin="round" stroke-width="0.75"/><line x1="169.35" y1="10.66" x2="164.23" y2="41.69" fill="none" stroke="#b79e7d" stroke-linecap="round" stroke-linejoin="round" stroke-width="0.75"/><line x1="173.3" y1="9.11" x2="166.96" y2="47.53" fill="none" stroke="#b79e7d" stroke-linecap="round" stroke-linejoin="round" stroke-width="0.75"/><path d="M538.31,283.85s-14,61.09-16.53,70.07-4.95,17.19-4.95,17.19" transform="translate(-243.83 -282.89)" fill="none" stroke="#b79e7d" stroke-linecap="round" stroke-linejoin="round" stroke-width="0.75"/><path d="M530.36,284.65S517,345.32,516.54,348.5s-6.12,24.31-6.12,24.31,46.34,26.95,48.13,27.9,5.68,3.28,5.68,3.28l4.63-.18s-47.78-26.67-48.41-27.09l-7.36-5s13.39-49,14.09-50.9,6.07-28.5,6.53-30.34c.62-2.46,1.2-6.34,1.2-6.34" transform="translate(-243.83 -282.89)" fill="none" stroke="#b79e7d" stroke-linecap="round" stroke-linejoin="round" stroke-width="0.75"/><path d="M526.48,285S524,295.76,524,297.34s-17,75.87-17,75.87,41,23.23,43.7,25.19,11.72,7.47,11.72,7.47" transform="translate(-243.83 -282.89)" fill="none" stroke="#b79e7d" stroke-linecap="round" stroke-linejoin="round" stroke-width="0.75"/><line x1="178.13" y1="9.04" x2="171.59" y2="51.21" fill="none" stroke="#b79e7d" stroke-linecap="round" stroke-linejoin="round" stroke-width="0.75"/><polyline points="123.99 12.19 122.4 17.95 121.34 16.02" fill="none" stroke="#a79173" stroke-linecap="round" stroke-linejoin="round" stroke-width="0.75"/><line x1="127.66" y1="22.16" x2="129.66" y2="12.19" fill="none" stroke="#a79173" stroke-linecap="round" stroke-linejoin="round" stroke-width="0.75"/><path d="M516.54,371.71s45.79,25.11,47.06,25.84,8.63,5.58,8.63,5.58" transform="translate(-243.83 -282.89)" fill="none" stroke="#b79e7d" stroke-linecap="round" stroke-linejoin="round" stroke-width="0.75"/><path d="M565.86,410,519,381.87l-15-8.3s15.08-63.57,15-66.19,3.77-22.11,3.77-22.11" transform="translate(-243.83 -282.89)" fill="none" stroke="#b79e7d" stroke-linecap="round" stroke-linejoin="round" stroke-width="0.75"/><path d="M519,285.73c1.08-.09-10.74,52.65-11.88,60.94-.55,4-6.59,27.31-6.59,27.31l59.87,36" transform="translate(-243.83 -282.89)" fill="none" stroke="#b79e7d" stroke-linecap="round" stroke-linejoin="round" stroke-width="0.75"/><path d="M515.21,286.05s-12.89,68.4-13.4,71.93-4.26,15.28-4,16.33c.11.54,62.58,39.75,62.58,39.75" transform="translate(-243.83 -282.89)" fill="none" stroke="#b79e7d" stroke-linecap="round" stroke-linejoin="round" stroke-width="0.75"/><line x1="244.04" y1="4.92" x2="232.02" y2="88.82" fill="none" stroke="#b79e7d" stroke-linecap="round" stroke-linejoin="round" stroke-width="0.75"/><polyline points="254.96 4.24 242.11 89.09 236.6 92.11 249.49 4.58" fill="none" stroke="#b79e7d" stroke-linecap="round" stroke-linejoin="round" stroke-width="0.75"/><polyline points="266.11 3.55 251 91.77 244.04 94.11 258.87 12.19 260.23 3.92" fill="none" stroke="#b79e7d" stroke-linecap="round" stroke-linejoin="round" stroke-width="0.75"/><line x1="200.27" y1="7.99" x2="189.56" y2="70.42" fill="none" stroke="#b79e7d" stroke-linecap="round" stroke-linejoin="round" stroke-width="0.75"/><polyline points="191.97 8.2 184.22 54.3 187.18 60.23 196.72 7.89" fill="none" stroke="#b79e7d" stroke-linecap="round" stroke-linejoin="round" stroke-width="0.75"/><polyline points="182.97 8.77 176.05 51.21 179.61 54.3 187.36 8.51" fill="none" stroke="#b79e7d" stroke-linecap="round" stroke-linejoin="round" stroke-width="0.75"/><line x1="229.13" y1="5.85" x2="219.53" y2="78.06" fill="none" stroke="#b79e7d" stroke-linecap="round" stroke-linejoin="round" stroke-width="0.75"/><path d="M464,289.3S453.75,357.41,454.4,358s6.11,4.28,6.11,4.28l-1.07-6.13,8.25-60.45.63-6.65" transform="translate(-243.83 -282.89)" fill="none" stroke="#b79e7d" stroke-linecap="round" stroke-linejoin="round" stroke-width="0.75"/><polyline points="212.75 6.88 199.43 79.16 203.8 82.46 215.16 13.38 216.38 6.6" fill="none" stroke="#b79e7d" stroke-linecap="round" stroke-linejoin="round" stroke-width="0.75"/><polyline points="205.1 7.36 193.31 76.4 195.54 79.16 207.07 16 208.65 7.14" fill="none" stroke="#b79e7d" stroke-linecap="round" stroke-linejoin="round" stroke-width="0.75"/><polyline points="233.94 5.55 223.46 84.53 227.4 88.23 238.08 5.29" fill="none" stroke="#b79e7d" stroke-linecap="round" stroke-linejoin="round" stroke-width="0.75"/><path d="M538.4,311.59c.24.12-13.77,55.82-13.77,55.82l-2,5.73,3.64,1.85,11.23-44.58s4.34-17.18,4.88-16.92l4.66,2.21L532.1,367.41,530.22,377l3.49,1.78L545,336.48l5.58-19.13,4.1,1.95L540,371.11l-2.93,9.37L540,382s14-48.58,14.64-50.5,2.8-10.85,2.8-10.85l3.86,1.84s-13.46,46.37-14.24,48.64c-.36,1-3.9,12.47-3.9,12.47l3.9,2.07,14.24-51.55L564.41,324l3.16,1.51-12.34,43.87-5.64,17.53,4.22,2.16s10.06-39.14,10.49-40,6.14-22.2,6.14-22.2l3.48,1.66S560.53,377,560.35,377.76c-.84,3.56-2.86,13.13-2.86,13.13" transform="translate(-243.83 -282.89)" fill="none" stroke="#b79e7d" stroke-linecap="round" stroke-linejoin="round" stroke-width="0.75"/><path d="M577.11,330c-.14,1.76-14.26,54.25-14.71,55.18s-2,7.16-2,7.16" transform="translate(-243.83 -282.89)" fill="none" stroke="#b79e7d" stroke-linecap="round" stroke-linejoin="round" stroke-width="0.75"/><path d="M363.2,294.83l13-.54,20.51-1.07,25.89-1.33,19.49-1.21,23.78-1.5,21.62-1.35L511,286.37l30.82-2.89" transform="translate(-243.83 -282.89)" fill="none" stroke="#231f20" stroke-linecap="round" stroke-linejoin="round" stroke-width="0.75"/><path d="M578.12,339.32c7.8,3.53,67.38,30.32,73.66,33.52a102.22,102.22,0,0,0,18.81,6.86l-5.47,3.2S613,360.17,603.74,355.73s-26-11.64-26-11.64" transform="translate(-243.83 -282.89)" fill="none" stroke="#b79e7d" stroke-linecap="round" stroke-linejoin="round" stroke-width="0.75"/><path d="M564,391.24a104.78,104.78,0,0,0,9.89,5.33c6.3,2.76,9.75,4.44,9.75,4.44l2.79-2.46s-11.18-4.73-14.64-7.08c-.39-.26-6.91-3.12-6.91-3.12l1-3.15s11.07,4.79,14.36,6.27,12.66,5.93,12.66,5.93" transform="translate(-243.83 -282.89)" fill="none" stroke="#b79e7d" stroke-linecap="round" stroke-linejoin="round" stroke-width="0.75"/><path d="M566.77,382s19.5,8.13,25,10.32,9,4,9,4l4.58-2.48s-31.4-12.52-34.92-14.12c-.79-.36-2.83-1.57-2.83-1.57l1.16-3.75s19.21,8.52,28.19,11.71c7.31,2.6,16.67,8.24,17.44,7.73s5.17-2.31,5.17-2.31l-44.72-19.8-4.73-2.21" transform="translate(-243.83 -282.89)" fill="none" stroke="#b79e7d" stroke-linecap="round" stroke-linejoin="round" stroke-width="0.75"/><path d="M571.24,365.12s39.93,18.78,44.67,20.08,10.58,3.69,10.58,3.69l7.41-2.47-52.74-21.3L572.34,361l1.32-4.93S616.08,374.63,621.2,377s21.7,9.07,21.7,9.07l4.41-2.12-65.09-27.89-7.62-3.54,1.13-4.23s44.34,19.77,51.73,23.42,32,12.77,32,12.77" transform="translate(-243.83 -282.89)" fill="none" stroke="#b79e7d" stroke-linecap="round" stroke-linejoin="round" stroke-width="0.75"/><path d="M579,336.13c0-.13,66.4,31,67.81,31.28s23.81,10.9,23.81,10.9" transform="translate(-243.83 -282.89)" fill="none" stroke="#b79e7d" stroke-linecap="round" stroke-linejoin="round" stroke-width="0.75"/><path d="M580.22,331.48S567,381.1,566.77,382s-3.53,11.8-3.53,11.8l-43.41-22.11L490,375.16" transform="translate(-243.83 -282.89)" fill="none" stroke="#231f20" stroke-linecap="round" stroke-linejoin="round" stroke-width="0.75"/><path d="M580.22,331.48S571,360.73,568.86,369s-5.62,24.87-5.62,24.87l17-62.34" transform="translate(-243.83 -282.89)" fill="#231f20" stroke="#231f20" stroke-linecap="round" stroke-linejoin="round" stroke-width="0.75"/><path d="M532.62,284.34s4-1.18,4.67,0,1,2.55-.12,6.6c-.34,1.22-20.63,77.65-20.63,77.65a39,39,0,0,1-4.36,1.91C511,370.84,485.5,373,485.5,373l.84,2s31.73-3.08,32.61-3.18,25.43,12.4,25.43,12.4-14.46-6.91-16.64-9.22a23.43,23.43,0,0,1-3.83-5.49c-.86-1.51,0-7.88.72-9.39s13.68-47.74,13.68-47.74,4.18-21.93,5.52-23.21a44.56,44.56,0,0,0,3.18-3.64s-2.53-2.32-3.86-2.18S532.62,284.34,532.62,284.34Z" transform="translate(-243.83 -282.89)" fill="#58595b" opacity="0.2" style="mix-blend-mode:multiply"/><path d="M637.62,321.76c-.75-.25-2.59-.95-5.15-2-.36.25-1.75.25-2.23.78-1.46,1.62-3.93,3.66-6.61,3.66s-8.45-2.65-9.87-6.11a27.37,27.37,0,0,1-1.44-6.53c-11.17-4.63-23.09-9.71-29.24-12.64-12.75-6.06-30-13.05-30-13.05l-7.16-2.56s-2.48-.41-2.78.65c-.91,3.24-1.19,10.18-2,13.7-1,4.35-2.84,12-2.84,12S602,339.92,606,342s57.29,26.31,60.31,27.71,17.47,10,17.47,10l24.21-9,12.78-13S641.81,323.16,637.62,321.76Z" transform="translate(-243.83 -282.89)" fill="#3a3a3c" stroke="#231f20" stroke-linecap="round" stroke-linejoin="round" stroke-width="0.75"/><path d="M635.39,322.54c-.75-.25-2.59-1-5.15-2-.53.62-1.08,1.26-1.56,1.79-1.46,1.61-4.6,2.65-7.28,2.65s-8.45-2.65-9.88-6.11a27.37,27.37,0,0,1-1.43-6.53c-11.17-4.63-23.09-9.71-29.24-12.64-12.76-6.06-30-13.05-30-13.05l-7.71-3.34s-2.9,9.27-4.23,15.13c-1,4.35-2.84,12-2.84,12s63.68,30.21,67.64,32.31S661,369.11,664,370.51s17.46,10,17.46,10l24.22-9,13.13-12.08S639.58,323.94,635.39,322.54Z" transform="translate(-243.83 -282.89)" fill="#3a3a3c" stroke="#231f20" stroke-linecap="round" stroke-linejoin="round" stroke-width="0.75"/><path d="M466,358.87c-1.71-1-5.11-3.68-8.57-5.85a9.23,9.23,0,0,0-2.11.53c-1.75,1.16-3.65,3.66-5.05,4-3.55.81-6.06,1.61-9.68-1.09-2.54-1.9-3.76-4.27-4.85-7.8-.76-2.47-.16-7.21.09-9.52-13.82-8.87-27.44-17.62-31.3-19.79-7.4-4.16-28.87-17.32-28.87-17.32l-11.57-6.94h-3.44s-3.68,32.34-5.57,48.18c-1,8.74-8.32,58.25-8.32,58.25s45.3,36.52,52.7,39.3,62.41,48.08,73.5,54.09,26.43,19.13,30.74,23.59c2.55,2.63,7.65,7.38,7.65,7.38s23.56-85.06,25.87-93.38,8.27-26.69,8.27-26.69S475.67,364.42,466,358.87Z" transform="translate(-243.83 -282.89)" fill="#414042" stroke="#231f20" stroke-linecap="round" stroke-linejoin="round" stroke-width="0.75"/><path d="M661.67,375.34l48-13.7L721.38,358s-14.07,31.67-15.71,36.73c-1,3.11-19.31,54.21-19.31,54.21s-52.07,22.4-53.46,22.86S543,510.47,538.13,512.46c-6.74,2.76-20.34,9.71-20.34,9.71l-6.47,3.7s-11.1-65.65-11.1-68.42c0-2.54,31.36-42.7,40.52-51.42,1-.92,2.67,1,3.9.71,4.05-.86,63.41-16.34,73.13-19.36C640,380.48,661.67,375.34,661.67,375.34Z" transform="translate(-243.83 -282.89)" fill="#3a3a3c" stroke="#231f20" stroke-linecap="round" stroke-linejoin="round" stroke-width="0.75"/><path d="M463.25,358.41c-1.7-1-4.5-2.69-8-4.86-1.71,1.67-4.65,4.24-7,4.79-3.55.81-6.43,1-10.05-1.7-2.54-1.9-3.55-4.56-4.63-8.1-.76-2.46-.46-6.63-.21-8.94-13.83-8.88-27.77-17.85-31.63-20-7.4-4.16-29.13-16.65-29.13-16.65l-12-7.85s-5.05,32.34-6.94,48.18c-1,8.74-8.32,58.25-8.32,58.25s45.3,36.52,52.7,39.3,64.42,47.42,74.27,55.31c11.58,9.26,25.66,17.91,30,22.37a100.31,100.31,0,0,0,9,7.38s22.19-85.06,24.5-93.38,7.56-25.75,7.56-25.75S473,364,463.25,358.41Z" transform="translate(-243.83 -282.89)" fill="#3a3a3c" stroke="#231f20" stroke-linecap="round" stroke-linejoin="round" stroke-width="0.75"/><path d="M433.4,339.6a3.35,3.35,0,0,1,1.11-.26,6.24,6.24,0,0,0,1.29-.21" transform="translate(-243.83 -282.89)" fill="#414042" stroke="#231f20" stroke-linecap="round" stroke-linejoin="round" stroke-width="0.75"/><line x1="366.26" y1="29.49" x2="368.49" y2="28.71" fill="#414042" stroke="#231f20" stroke-linecap="round" stroke-linejoin="round" stroke-width="0.75"/><path d="M424.43,459.67s15.92,13.67,22.64,18.63,27.09,18.6,37.81,27.24,18.78,14.34,20.79,15.95,5.65,4.38,5.65,4.38,1.24-4.74,1.39-5.33.68-2.61.61-2.34-21-14.93-25.5-18.8-23.77-17.88-31.33-23.56-18-13.89-22.42-17-9.39-6.61-9.39-6.61a19.89,19.89,0,0,1,.15,4.62A27.46,27.46,0,0,1,424.43,459.67Z" transform="translate(-243.83 -282.89)" fill="#ee434b" stroke="#231f20" stroke-linecap="round" stroke-linejoin="round" stroke-width="0.75"/><path d="M389.9,363.29s-5.12,16.44,3.85,31.08c3.15,5.15,6.57,8.93,10.63,11.06,15.43,8.08,39.71,12.3,39.92,12.55s42.94,13.42,43.56,13.58,1.15,1.28.22,1.16-47.21-2.24-47.21-2.24-34.33,1.06-45.12-5.74c-4.3-2.7-9.81-5.1-13.4-11.48-9.51-16.9-1.08-33.3,1.43-39.05C387.16,366.47,389.9,363.29,389.9,363.29Z" transform="translate(-243.83 -282.89)" fill="#ee434b"/><path d="M399.56,340.37" transform="translate(-243.83 -282.89)" fill="#ee434b"/><path d="M399.56,340.37l-7.17,40.08,7.25,5.25L402.78,368s1,20.76,1.08,20.75,7.63,5.52,7.63,5.52,7.53-39.93,7.32-40-7.18-5.2-7.18-5.2l-3.17,18.1L407.34,346Z" transform="translate(-243.83 -282.89)" fill="#ee434b"/><polygon points="176.16 72.28 168.84 112.26 176.02 117.46 183.12 77.32 176.16 72.28" fill="#ee434b"/><polygon points="184.52 78.34 177.42 118.48 184.46 123.57 187.62 106.99 189.82 127.46 197.11 132.74 194.06 103.91 203.84 92.34 195.77 86.49 189.78 95.79 191.7 83.54 184.52 78.34" fill="#ee434b"/><path d="M460.53,392.18l1.35-6.66-14.21-10.3-7.39,39.92,15.32,11.11,1.53-7.73-8.49-5.94,1.76-9.85,7.1,5.14,1.21-7.41-7-5.07,1.52-8.51Z" transform="translate(-243.83 -282.89)" fill="#ee434b"/><path d="M424.1,449c-1-2.56-3.74-6.32-6.5-6.72-3.13-.44-4.89-.39-6.83,1.18-1.14.93-2.36,4.17-2.36,4.17l16,12.05S425.07,451.55,424.1,449Z" transform="translate(-243.83 -282.89)" fill="#212122" stroke="#231f20" stroke-linecap="round" stroke-linejoin="round" stroke-width="0.75"/><path d="M345.36,401.51s20.39,16.2,26,20.47,20.27,15.51,24.41,17.64,12.66,8,12.66,8a6.22,6.22,0,0,1,1.35-3.16,26.75,26.75,0,0,1,3-2.12s-17.33-10.78-22.24-14.21S370,412.51,366.33,410.71,351.21,400.3,349.57,399s-3.4-3-3.4-3Z" transform="translate(-243.83 -282.89)" fill="#ee434b" stroke="#231f20" stroke-linecap="round" stroke-linejoin="round" stroke-width="0.75"/><path d="M581.05,445.62s-6.62,17.5,1.45,21.09c2.83,1.26,6,1.42,10.07-.71,8-4.15,40-25.5,40.19-25.49S676,413,676.62,412.6s1.07,0,.12.72S628.2,453.4,628.2,453.4l-35.42,29.08s-6,4.8-10.69,6.4c-4.05,1.38-7.55,1.56-10.73-.29-8.45-4.89-.57-22.18,2.48-28.94A129,129,0,0,1,581.05,445.62Z" transform="translate(-243.83 -282.89)" fill="#ee434b"/><path d="M592.88,419" transform="translate(-243.83 -282.89)" fill="#ee434b"/><path d="M592.88,419l-10.66,38,7.06-2.29L594,437.92s-.71,15.53-.57,15.4,7.42-2.4,7.42-2.4,11-38.16,10.8-38-7,2.26-7,2.26l-4.74,17.09.56-15.73Z" transform="translate(-243.83 -282.89)" fill="#ee434b"/><polygon points="368.93 129.65 358.13 167.66 365.12 165.39 375.7 127.46 368.93 129.65" fill="#ee434b"/><polygon points="377.07 127.02 366.49 164.95 373.33 162.73 377.94 146.85 378.56 161.04 385.65 158.74 384.84 138.72 395.87 120.92 388.02 123.47 381.08 136.11 384.06 124.75 377.07 127.02" fill="#ee434b"/><path d="M651.6,405.78l1.93-6.45-13.83,4.48-10.87,38L643.74,437l2.21-7.45-8.28,2.85,2.62-9.33,6.9-2.24,1.86-6.92-6.81,2.21,2.27-8.07Z" transform="translate(-243.83 -282.89)" fill="#ee434b"/><path d="M543.15,283.34,500.22,287s-69.59,3.2-70.54,3.84-65.62,4.2-65.62,4.2l40.44,24.26s33.33-1.26,41.59-2.39,56.27-3.81,61-4.15c9.19-.67,29-2.52,29-2.52C536.12,308.4,543.15,283.34,543.15,283.34Z" transform="translate(-243.83 -282.89)" fill="#3a3a3c" stroke="#231f20" stroke-linecap="round" stroke-linejoin="round" stroke-width="0.75"/><polyline points="299.02 1.52 190.47 9.11 122.67 13.65" fill="none" stroke="#231f20" stroke-linecap="round" stroke-linejoin="round" stroke-width="0.75"/><path d="M552.84,292a33.11,33.11,0,0,1-5.83,0c-2.74-.31-10.73.7-16.6,1.91s-40,1.82-48.55,2.63-20.43,4.54-32.09,4.3-36.32.6-41.25,1c-.88.06-15.43,1.25-21.5,2.13a45.06,45.06,0,0,0-5.56,1.43l10.31,6.24,42.74,27.75s.09,4-.05,4.72a19.79,19.79,0,0,0,1.63,7.29,10.22,10.22,0,0,0,5.08,5.35,16.22,16.22,0,0,0,7.36,1.13,12.15,12.15,0,0,0,4.57-2.42l2.1-2.1,2.07-.74L528,397.47l17.45,7.23,2.82-.71,100.84-27,22.38-8.09s-3.52-.2-7.73-.32-11.81-1.83-17-1.18-12.85-.64-13.55-2.06-21.43-5.92-23.37-6.79-8.17-4.48-7.9-5.25-2.91-17.25-3-20.64-4.85-12.19-8-16.31a97.49,97.49,0,0,0-8.78-9.8c-1.68-1.67-3.14-2.2-3.77-3.48s-5.54-2.94-7.21-3.4c0,0-8.84-4.18-11.64-4.53l-4.88-3.21S553.66,291.93,552.84,292Z" transform="translate(-243.83 -282.89)" fill="#f1f2f2" stroke="#231f20" stroke-linecap="round" stroke-linejoin="round" stroke-width="0.75"/><path d="M401,306.56s16.42-1.12,23.34,0,17.54,1.77,18.89,1.45,9.52-.76,12.86-.94,5.61-.55,12-1,11.34-.45,19.71-1.11a92.35,92.35,0,0,1,14.9,0s-12.89.23-17.27,1.61-8.72,1.15-10.33,1.53-10.22-.53-16,1a81.26,81.26,0,0,1-11.54,2,37,37,0,0,1,9.36,1.3c4.27,1.31,11.13,2.83,11.13,2.83s-11.63-.57-15.25-.91-10.41.61-12.36,0-10.28-1.07-12.5-1.49-6.75-1.22-9.05-1.73-11.59-1.68-13.21-2S394.64,308,394.64,308Z" transform="translate(-243.83 -282.89)" fill="#e6e7e8"/><path d="M596.92,327.48a70.19,70.19,0,0,1,1.27,7.44c.18,2.56.92,8.19.92,8.19S501.93,365,500,365.35s-15.85,2-15.85,2l-20-12.15-13.43-8.5-4.61-6.3s.39-3.21,0-4.24-1.4-.76-2-2.36-1.31-1.41-.58-1.59,4.39,0,6,1.92,3.4,4.85,4.81,5,6.11,3.2,7.51,4,6.44,4.33,7.95,5.21,3.22,1.12,6,2.92,6.81,2.84,7.46,4.15l.65,1.31s-.14-2.39-.34-3.39,1.09-.07,2.86,0,3.12,2.08,3.12,2.08h2.17s15.62-4.67,20.75-4.15.91.21,7.13,0,13.46.76,14.05,0,23.75-4.41,26.64-5.79,8.13-1.66,9.53-2.34S577,342,577,341.86s6.59-2.09,7.14-1.49,5.12,0,5.12,0,1-4.17.34-6.27a16.16,16.16,0,0,0-1.27-3s2.21,1.32,2.21.85a9.6,9.6,0,0,1,.55-2.15c.37-1.24-.18-3.14,0-4.12s.19-.6-.55-2.25-2.59-2.68-2.21-3.81-.19-3.84,0-3.22,3.3,7.57,4.86,8.21A16.19,16.19,0,0,1,596.92,327.48Z" transform="translate(-243.83 -282.89)" fill="#e6e7e8"/><path d="M455.2,353.31c.95.78,87.65,53.18,87.65,53.18l1.23.52s7.79-2.05,8.73-2.31l149.4-40.31L721.38,358l-2.54-1.1s-26.25,8.07-30.6,9.26l-52,14.31S543.73,405,544.38,404.7s-87.11-52.13-87.11-52.13Z" transform="translate(-243.83 -282.89)" fill="#3a3a3c" stroke="#231f20" stroke-linecap="round" stroke-linejoin="round" stroke-width="0.75"/><polygon points="116.79 12.19 189.56 56.71 191.41 56.24 151.92 30.91 120.23 12.19 116.79 12.19" fill="#3a3a3c" stroke="#231f20" stroke-linecap="round" stroke-linejoin="round" stroke-width="0.75"/><path d="M433.4,339.6s-.49,5.42-.14,7.18,1.52,6.22,3,7.81,1.82,2.32,4.32,3.44a8.83,8.83,0,0,0,5.54.72,18,18,0,0,0,6.18-2.58c1.52-1.23,3.09-2.64,3.09-2.64a9.88,9.88,0,0,1-4.66,3.3,18.78,18.78,0,0,1-7.76.5c-1-.3-4.51-1.87-5.42-3.54a22.47,22.47,0,0,1-2.53-8,21.7,21.7,0,0,1,.25-6.7Z" transform="translate(-243.83 -282.89)" fill="#3a3a3c" stroke="#231f20" stroke-linecap="round" stroke-linejoin="round" stroke-width="0.75"/><path d="M572.34,554.88s-30.51-8.74-31-9.11-49.15-15.72-49.15-15.72l-7-2.13" transform="translate(-243.83 -282.89)" fill="#ee434b" stroke="#231f20" stroke-linecap="round" stroke-linejoin="round" stroke-width="0.75"/><path d="M387.85,510a6.55,6.55,0,0,0,2.37,6.37,7.65,7.65,0,0,0,3.64,1.77c2.59.38,12.48.48,12.55.52s13.5.55,13.69.55.4.21.11.24-14.35,2-14.35,2l-10.49,1.44a9.8,9.8,0,0,1-3.37-.25,10.11,10.11,0,0,1-4-2.19c-3.53-3.06-2.14-6.51-1.61-7.86A9.92,9.92,0,0,1,387.85,510Z" transform="translate(-243.83 -282.89)" fill="#fff"/><path d="M389.88,504.59" transform="translate(-243.83 -282.89)" fill="#fff"/><path d="M389.88,504.59l-.62,8.85,2.4.73.26-3.91s1.09,4.34,1.13,4.33,2.52.76,2.52.76.73-8.84.66-8.84-2.37-.72-2.37-.72l-.25,4-1.17-4.42Z" transform="translate(-243.83 -282.89)" fill="#fff"/><polygon points="152.79 223.74 152.13 232.59 154.5 233.3 155.09 224.44 152.79 223.74" fill="#fff"/><polygon points="155.55 224.58 154.97 233.44 157.29 234.14 157.6 230.47 159.06 234.68 161.47 235.41 159.43 229.48 161.94 226.51 159.27 225.7 157.82 227.99 157.93 225.3 155.55 224.58" fill="#fff"/><path d="M410.31,512.29l.15-1.48-4.69-1.42-.69,8.84,5.06,1.53.17-1.72-2.8-.8.15-2.18,2.34.71.08-1.63-2.31-.7.13-1.88Z" transform="translate(-243.83 -282.89)" fill="#fff"/><path d="M407.1,319.58s6.72,3.22,10.66,4.6,8.23,3.84,12.5,5.57,11.89,3.79,14.07,5.72a28.27,28.27,0,0,1,4.05,3.94c.73,1,.15,1,2.75,3s4.12,3.44,7,5.91,3.2,2,4.32,3.55,3.8,4.65,3.8,4.65l-7.88-4.65-2.39-.67s-2.51,4.49-5.54,4.78-8.89.45-10.59-1.57-4-7.15-4.15-9.1a19.14,19.14,0,0,1,.29-4.15l.35-2.26Z" transform="translate(-243.83 -282.89)" fill="#e6e7e8"/><path d="M334.6,379.79" transform="translate(-243.83 -282.89)" fill="#fff" stroke="#231f20" stroke-linecap="round" stroke-linejoin="round" stroke-width="0.75"/><path d="M352.68,398.67s1.24-13.07,1.82-16.08l1.66-8.66s34.79,24.49,36.69,25.81a27.91,27.91,0,0,0,3.38,2s-3.23,18.87-3.38,20.76-.43,4.24-.43,4.24-26.49-19.22-28.93-20.6S352.68,398.67,352.68,398.67Z" transform="translate(-243.83 -282.89)" fill="#fff" stroke="#231f20" stroke-linecap="round" stroke-linejoin="round" stroke-width="0.75"/><path d="M417.6,442.27a12,12,0,0,0-4.49-.24c-2,.35-3.67,2.73-4,3.4a4.91,4.91,0,0,0-.66,2.19l2.65-1a4.3,4.3,0,0,1,2-2.82c1.64-.88,2.4-1.45,4.23-1a23,23,0,0,1,3.3,1.07A19.79,19.79,0,0,0,417.6,442.27Z" transform="translate(-243.83 -282.89)" stroke="#231f20" stroke-linecap="round" stroke-linejoin="round" stroke-width="0.75"/><path d="M411.5,446.88c.3.22,8.46,6.69,9.94,7.8s3.1,2.57,3.1,2.57" transform="translate(-243.83 -282.89)" fill="none" stroke="#231f20" stroke-linecap="round" stroke-linejoin="round" stroke-width="0.75"/><path d="M602,341.92c-2,.77-3.83.05-16.56,3.53-23.49,6.44-45.23,12.21-52.93,12.53s-25.54,3.58-25.4,3.13c.05-.14-14.08,1.81-17.46,3.19-.9.36-7.7,2.69-7.7,2.69l62.28,38.06,159.44-43.4a31,31,0,0,1-6.09-.7c-1.77-.59-12.23-2.2-26.95-5.78l-11.11-3.93c-2.08-.72-23.22-8.13-25.24-8.82s-4.39-2.68-5.41-2.82-2.69-1.53-9.3-.47a65.27,65.27,0,0,1-7.92.19Z" transform="translate(-243.83 -282.89)" fill="#f1f2f2" stroke="#231f20" stroke-linecap="round" stroke-linejoin="round" stroke-width="0.75"/><path d="M591.72,358.84c-.75,0-13.19.45-15.44,1.2s-4.8,1.65-5.7,1.8-3.81.81-3.81.81,6.51.24,9.51.69,2.18,0,3.94,0-.64-.15,1.76,0,3.59.55,4.49.2,1.95-2,5.25-2.28,6.15-2.12,8.85-2.42,6.45-1,6-.86-11,1.46-11,1.46A37.16,37.16,0,0,0,591.72,358.84Z" transform="translate(-243.83 -282.89)" fill="#e6e7e8"/><path d="M550.92,372a36.25,36.25,0,0,1-6.59,2.2c-2.18.34-3.22,1.67-4.65,1.75s-3.38,1.19-4.35,1.54,1.33-.05,4.53,0,6.79,1.3,8.29,0,.17-2.1,5-2.45,3.14-.72,6.89-.84,6.78-.42,6.14-.59c-3.29-.87-8.12-2.05-8.71-1.61s-7.22-.1-7.22-.1" transform="translate(-243.83 -282.89)" fill="#e6e7e8"/><path d="M699.87,362c-.84.58-16.37-3.67-19.52-4s-8.55-1.69-11.25-2-6.9-.6-6.9-.6,2.7.81,3.45,1.83.75,2.07,1.2,2.67,2.55,3.6,2.55,3.6l-3.6.75s-2.55,3.07-3.6,3.64a45.82,45.82,0,0,1-6.6,2.36,39.71,39.71,0,0,0-5.24,2.1s-14.25,5-19.5,6.6-19.66,5.48-25.58,6.26-8.91,2.6-9.81,2.22-30.29,8.61-34.41,10.11-7,2.71-11.24,2.85-7.58.35-7.58.35-5.27-2.54-6.16-2.72-3-.93-3-.93L544.38,404l152.55-41.37Z" transform="translate(-243.83 -282.89)" fill="#e6e7e8"/><path d="M558.73,309.84c-2.56.2-13.42,2.52-19.55,8.74s-11.7,17.13-13.79,19.39-14.5,7.34-16.53,14l-5.46,9.87s10.62,2.17,14.09,4.23,17.19,2.71,22.22,2,17.82-3,23.39-4.67,16.38-8.87,17.6-11.41a13.6,13.6,0,0,0,1-5.79,14.94,14.94,0,0,0,2.89-14.39c-2.7-8.59-7.5-18.24-13.07-21.13S561.74,309.6,558.73,309.84Z" transform="translate(-243.83 -282.89)" fill="#bcbec0" opacity="0.41" style="mix-blend-mode:multiply"/><path d="M556.1,294.83c.6.05,1,.46,2,.25a9.42,9.42,0,0,1,3.29.53" transform="translate(-243.83 -282.89)" fill="none" stroke="#231f20" stroke-linecap="round" stroke-linejoin="round" stroke-width="0.75"/><path d="M629.52,341.8s-2.27-2.55-4.74-2.2-6.7,1.37-9.42,1.08-5.48.9-7.44,1.12-7.47,1.31-7.47,1.31a39.57,39.57,0,0,1,7.74,0c4,.44,5.6-.21,8.29,0s4.94,1.24,5.95.95,4.14-1,2.35.05-5.82.55-8.3,1.34-14.83,2.19-12.65,2.19c6.26,0,16.91-1,20.28-.72s5.4-.49,7.2-.25,2.48-.92,4.5,0,4,.88,5.37,1.35a51.38,51.38,0,0,0,6.1,1s-9.9-4.88-11-4.73-3.37-1.18-3.37-1.18Z" transform="translate(-243.83 -282.89)" fill="#e6e7e8"/><path d="M492.8,373.18a8.6,8.6,0,0,1-2.5-2.07c-1.53-1.65-3.35-5.6-4.8-5.36a11.66,11.66,0,0,0-3.08,1.06Z" transform="translate(-243.83 -282.89)" fill="#bcbec0" stroke="#231f20" stroke-linecap="round" stroke-linejoin="round" stroke-width="0.75"/></g></svg>