<svg xmlns="http://www.w3.org/2000/svg" width="523.14" height="239.34" viewBox="0 0 523.14 239.34">
    <path d="M457.48,443.33s38.06-3.09,72,0,52.46,9.25,45.26,10.28-87.43,10.29-130.63,9.26-239.65,2.21-288,.08-100.24-5.17-100.24-7.61,24.22-8.93,24.22-8.93S299.16,430,306.84,431,457.48,443.33,457.48,443.33Z" transform="translate(-53.78 -224.35)" fill="#d1d3d4"/>
    <path d="M55.43,436c-.4.26-.13.95-.67,2.48s0,11.16.67,12.76,2.67,4.55,5.22,5.09,17.79,3.07,25.95,3.07S123.65,460.87,140,461s43.34,1.2,59,1.47,76.24-.53,82.4-.53,62.19-1.07,74.77-1.34,60.19-2.81,67.82-3.88,55.78-5.08,81.19-10.57,44.81-11.37,53.77-15.52,13.78-8.21,15.52-11.59,2.81-9.81,2.41-12.22-.67-4.68-3.21-5.21-10.57.93-10.57.93S84.32,422.61,82.18,423.28,55.43,436,55.43,436Z" transform="translate(-53.78 -224.35)" fill="#394f45"/>
    <path d="M62.44,396.54l266.2-1.68c.85,0,226.16-7.86,229.92-8.55s9.07-.34,9.58,0,2.91,1.37,3.59,3.42,3.26,11.64,3.43,12.66.17,3.77-1.37,4.79-10.27,6.85-19.85,9.16-61.58,11-72.19,12.57-25.15,8.55-29.26,10.78-10.6,3.93-18,4.62-27.37,1.88-31.13,1.71-11.3-3.42-17.11-4.11-48.76,3.08-58,2.74-17.62,2.74-20,4.1a18.12,18.12,0,0,1-8.73,2.57c-3.76.17-31.65,0-36.44.51s-61.93.35-64.49,0-10.1-4.27-14.89-5.59-38.32-.39-47.73-.05-40.88-1.2-51.66-1-27.54-4.79-28.61-5.47-2.19-4.24-1.91-11.33c.18-4.39,1.61-15.19,1.91-17.76s.26-4.34.56-7.27c.4-3.72,1.77-4,1.77-4Z" transform="translate(-53.78 -224.35)" fill="#fff"/>
    <path d="M58.26,399.81s-1.19-1.25-1.63,1.68-.72,7.07-.72,7.07a88.22,88.22,0,0,0,23.4,5.18c13.4,1.12,52,3.35,76.61,3.8s47.35.32,55.39,1.5,78.84,5.87,93.14,5.87,57.62,2.45,84.42,0,73.49-5.36,93.14-7.15,48-8.5,63.21-11.73,22.78-8.37,23.9-8.82,3.76-3.52,3.76-3.52-.49-4.05-1.91-5.29-6.54-4.14-8.55-3.92-20.55,2.46-20.55,2.46-446.7,4.91-451.39,5.14-21.78,3.35-23,3.57S58.26,399.81,58.26,399.81Z" transform="translate(-53.78 -224.35)" fill="#e6e7e8"/>
    <path d="M290.07,264.68c-.4-.59-13.06-9.49-22.56-12.26s-21-1.58-28.09,1.58S215.68,276,206,282.29s-20,13.45-31.06,17.41-36.8,2.57-48.86-3-22.56-16.5-28.69-20.32-12.46-4-14.84-2.23-3.56,8.7-3.56,8.7-5.93,16.34-6.53,17.67-8.92,18.77-9.58,21.84-4.66,14.7-4.46,22.41.88,15.63.88,15.63-1.36,39.36,0,39.94,19.12,6.06,59.46,6.64,80.84,1.61,93.5,2.74,64.3,4.49,84.41,4.89,44,2.17,55.92,1.58,60.14-1.38,75.57-2.77,61.92-4.75,87.64-9.89a383.51,383.51,0,0,0,41.15-10.29c5.14-1.38,10.09-5.54,9.89-6.13s-7.12-17.8-14.05-25.72-18-11.53-19.78-11.6-68.84-13.37-80.91-16.22-126-48-139.47-54.67A130.9,130.9,0,0,1,290.07,264.68Z" transform="translate(-53.78 -224.35)" fill="#f1f2f2"/>
    <path d="M291.65,259.55a30.25,30.25,0,0,1-7.89-6.42c-3.74-4.28-10.3-7.89-10.56-8.56s-7.23-13.38-20.47-17.26-17.39-3.47-19.53-1.47S219.69,238.55,217.28,245s-3.74,10.17-3.07,16.19S226,281.35,226,281.35l61.23,14s115.2,27.07,115.6,26.67,30.37,3.48,30.37,3.48l3.21-1.47a9.79,9.79,0,0,0-4.55-7c-4.28-2.81-12.31-5.93-23.14-8.65s-30-8.34-37.05-11.28-33.18-14.31-45.08-21S295.27,261,295.27,261Z" transform="translate(-53.78 -224.35)" fill="#e6e7e8"/>
    <path d="M308.91,263.16c.4-.26,3.48-2.54,5.62-2.54s13.24,4,15.51,5.21a7.53,7.53,0,0,1,4.15,4.83,18,18,0,0,1,.93,5.48s4.15.93,4.69,2.94a31.81,31.81,0,0,0,1.82,4.66l6.07,2.83L364.46,294s2.24,9.65,1.83,9.65-31.3.54-32.23-.26-37.59-15.12-37.4-16.3-2.29-13.5-1.75-14,5.84-7.55,6.24-7.27S308.91,263.16,308.91,263.16Z" transform="translate(-53.78 -224.35)" fill="none"/>
    <path d="M379.78,330.16c.69.7,1.39,7.9,1.16,12.78s-7.44,21.38-18.82,34.62-21.94,24.64-27,28.47a53.92,53.92,0,0,0-9.35,9.69s28,1.37,37.28.62,68.47-3.06,86.15-4.68,53.23-4.32,76.48-10.17,26.08-6,31.26-8.22a47.82,47.82,0,0,0,9.89-6.13s-4.91-16.09-9.79-24S546.12,350,543.33,349.82a37.58,37.58,0,0,0-7.28.79l4.77,2s0,2.65-4,4-22.77,6-33,6.27-25.09-1.39-38.1,4.65-24.16,12.31-28.35,14.17-8.13,5.1-11.38,4.18-6.27-4.64-3.25-10.68,12.59-21.77,13.63-25.42,2.4-10.83,1.7-10.6-28.34-4.41-29.27-4.41S379.78,330.16,379.78,330.16Z" transform="translate(-53.78 -224.35)" fill="#394f45"/>
    <path d="M111.13,305s7.31,5.56,13.15,6.56,11.94,3.65,22.56,3.12,31.85-6.77,43.53-14.13,33.7-25.63,33.7-25.63l-2.92-6.53s-10.81,11.05-15.16,13.9-15.64,11-23.94,14.41S159,303,148.44,301.6s-20.63-3.59-25.15-6.25-23.87-16.07-25.91-18.94-11.85-4.5-14.84-2.23a7.75,7.75,0,0,0-3,5.73,76.3,76.3,0,0,0,20,16.17A45.19,45.19,0,0,1,111.13,305" transform="translate(-53.78 -224.35)" fill="#e6e7e8"/>
    <path d="M79.56,279.91s-3,0-5.86,4c-1.48,2.06-5.63,13.37-6.57,19s-3.52,12.43-4,14.08a8.39,8.39,0,0,0,0,4.22s1.45-1.54,6-3.89,27-10.89,32.9-11.83a23.63,23.63,0,0,1,10.55.71S95.52,292.7,88.74,288.27,79.56,279.91,79.56,279.91Z" transform="translate(-53.78 -224.35)" fill="#28423a"/>
    <path d="M294.92,270.2s-12-8.28-18.64-11.74-14.28-4.83-20-2.07-26.71,27.4-40.06,36.14-41.44,27.4-60.78,33.85-48.95,15.22-53.09,16.4-36.73,10.4-36.73,10.4l-5.8,1.68s-2.68,1.44-2.68,2.82S55,374,56,383s2.3,16.8,2.3,16.8,6.45,4.6,34.31,6.22,79.65,1.61,79.65,1.61l17,.92s2.31-16.11,8.75-23.94,39.14-37.76,47.89-46.27,35.22-39.83,40.28-45.82,9-13,9.9-15.42C297.89,272,294.92,270.2,294.92,270.2Z" transform="translate(-53.78 -224.35)" fill="#394f45"/>
    <path d="M272.13,298.06s41,16.11,57.79,21.18,42.12,14.27,54.33,18S419,343.41,425,344.33s12.44,1.84,12.44,1.84,4.6-7.59,5.29-12.2-.23-10.82-6.68-13.58-30.15-8.52-36.37-9.9-61.7-16.81-76.43-23.94-30.39-15.89-30.39-15.89l-22.1,22.1Z" transform="translate(-53.78 -224.35)" fill="#394f45"/>
    <path d="M285.9,254.92s3.35-1.92,5.62-1.92a52.36,52.36,0,0,1,10.57,1c2.94.78,6.82,2.78,7.36,5.46.27,1.39,1.33,5.07,2.17,9.09.78,3.68,1.36,7.66,1,10.42-.77,5.77-4,10.18-5.45,12.46s-4.68,4.41-6.82,3.88a4.58,4.58,0,0,1-3.69-3.62c-.32-1.73.21-7.49,1.15-11s2.46-8.78,2.46-8.78l-2.64-1.72s-6.24,7.55-11.73,8.89-7.76,1.2-9.36.13-1.34-4.19-1.47-5,3.21-7.8,6-10.34a80.52,80.52,0,0,1,8-5.9Z" transform="translate(-53.78 -224.35)" fill="#28423a"/>
    <path d="M311.62,268.51s4.51-2.54,5.18-2.67a27.56,27.56,0,0,1,8.41,1.87c2,1.07,4,5.07,5.24,7.21a50.89,50.89,0,0,1,4.24,13.47c.71,4.87.57,12.36-.63,15s-3.48,5.3-4.82,5a3.86,3.86,0,0,1-2.67-2.19c-.4-.93-3.4-14.59-4.15-17.52s-1.17-5.93-1.17-5.93l-8.63-3.85s-.05-4.8-.18-5.74S311.62,268.51,311.62,268.51Z" transform="translate(-53.78 -224.35)" fill="#28423a"/>
    <path d="M341.63,283.74a5.56,5.56,0,0,1,3.66,0c2,.69,5.62,2.43,5.62,2.43h2.41a48.75,48.75,0,0,1,7.36,2.41c2,1.07,3,2.14,2.94,3.61l-.1,1.47,14.17,5.69a7,7,0,0,1,4.26-.74c2.27.4,8.56,1.74,10,2.68a10.49,10.49,0,0,1,2.73,3.32s-.32-.68-2.2,0-2.36,3.38-1.41,3.64,3.68,9.09,3.61,12.3-1.8,6-2.73,6-5-2.54-6.82-4.42-3.48-10.21-7.5-13.73-7.08-6.33-7.75-7.4-2.28-3.75-5-4.95-4.28-.72-4.28-.72a10.82,10.82,0,0,1,5.35,4.06c2.27,3.21,1.33,6.56,1.2,9.63s-2.67,7.49-3.48,7.63a7.61,7.61,0,0,1-4.81-1.21c-1.74-1.2-2.68-3.61-4.28-9.23a38.71,38.71,0,0,1-1.51-10.34s-4.65-5.57-6.52-7.58A62.61,62.61,0,0,0,341.63,283.74Z" transform="translate(-53.78 -224.35)" fill="#28423a"/>
    <path d="M409.77,308.42s2.54-1.78,4.14-1.78,9.5,1.87,11.78,2.67,3.94,6.34,5.29,7.22-.35,9.9-2.89,12.85-5.72,5-7.48,4.22-4.15-3-4.29-4-1.47-2-1.34-7.75.69-11.55.69-11.55Z" transform="translate(-53.78 -224.35)" fill="#28423a"/><path d="M67.53,318.19s5.74,3.81,8.17,5.2,29.21,12.17,34,14,32.34,12.7,37.47,14.7,51.46,18.08,58.07,19.82,40.94,11.64,48.68,13.73,25.47,9.22,35.64,10.35,17.91.43,23.73-1,12.78-6.87,16-14.17,5.48-20.08-2.52-29.82-21.21-21.12-23.21-23.56a19.24,19.24,0,0,0-3.39-3.39s-1.13.79-1.22,1.05,1,12.52-.43,17.9-5.39,16.17-12.26,19.65-30.77-.26-34.86-1.3-37.64-8.52-44-9.83-54.07-16.69-57.37-17.9-40.69-13.3-42-13.74-16.87-5.39-19.47-6.34-5.3-2-5.3-2l-10.69,4.21Z" transform="translate(-53.78 -224.35)" fill="#28423a"/>
    <path d="M263,264.88a4.77,4.77,0,0,0-2.63,1.49,3.85,3.85,0,0,0,0,3.83,3.48,3.48,0,0,0,3.47,1.68c1.52-.21,3-.95,3.31-2.31a4.37,4.37,0,0,0-1.63-3.74A3.29,3.29,0,0,0,263,264.88Z" transform="translate(-53.78 -224.35)" fill="#28423a"/><path d="M247.92,277.34a6.6,6.6,0,0,0-2,2.63,3.39,3.39,0,0,0,1.78,3.83,4.5,4.5,0,0,0,5-1.05c1-1.26,1.16-4,0-5.25S248.89,276.73,247.92,277.34Z" transform="translate(-53.78 -224.35)" fill="#28423a"/>
    <path d="M265.89,284.14c-.2.11-2.21,1.68-2.42,3s-.21,2.76,1.24,3.55a4.88,4.88,0,0,0,4.17.26c1.05-.47,2.21-1.15,2.21-2.78a4,4,0,0,0-2.63-4A3.24,3.24,0,0,0,265.89,284.14Z" transform="translate(-53.78 -224.35)" fill="#28423a"/>
</svg>