<svg xmlns="http://www.w3.org/2000/svg" width="585.7" height="403.89" viewBox="0 0 585.7 403.89">
  <path d="M493.43,465.52s-168.27-46-177.94-48.84c-13.25-3.85-15.26,5.81-9.8,14.21,4,6.18,127.44,216.8,127.44,216.8l47.71,64.07Z" transform="translate(-247.3 -337.98)" fill="#1a1b1c"/>
  <path d="M458.66,639.23l-211.36,70L502,740.66s-4.1-101.18-2.79-112.9C499.24,626.5,458.66,639.23,458.66,639.23Z" transform="translate(-247.3 -337.98)" fill="#262729"/>
    <polyline points="585.7 37.19 378.07 109.84 412.85 0 585.7 37.19" fill="#4b4d52"/>
    <polygon points="412.85 0 323.75 74.72 303.39 100.8 372.07 207.52 412.85 0" fill="#373b3d"/>
    <path d="M590,437.75c-5.42-17.54-10.85-21.69-19.89-25.43-43.46-17.95-180.3-63.39-184.59-64.78-10-3.25-15.94,4-13.68,12.32,2.2,8.06,107.34,346.72,113.71,367C489,737.65,496,744,507,741.24c12.85-3.14,126.82-45.88,140.17-51.17,5.13-2,15.72-9.79,9.76-26.78C653.58,653.6,591.93,443.88,590,437.75Z" transform="translate(-247.3 -337.98)" fill="#2f3033"/>
</svg>