<svg xmlns="http://www.w3.org/2000/svg" width="95.11" height="78.82" viewBox="0 0 95.11 78.82">
  <path d="M96.65,39.2,60.28,11.07a2.28,2.28,0,0,0-2.42-.24,2.31,2.31,0,0,0-1.3,2.07V28C42,28.24,30,32.59,20.93,41,2.28,58.23,2.44,86,2.44,87.13a2.31,2.31,0,0,0,2.13,2.26.68.68,0,0,0,.21,0A2.3,2.3,0,0,0,7,87.52c.3-1.61,7.43-37.27,49.53-34.4v16a2.32,2.32,0,0,0,1.3,2.08,2.5,2.5,0,0,0,1,.24A2.35,2.35,0,0,0,60.28,71L96.65,42.86a2.3,2.3,0,0,0,0-3.66Z" transform="translate(-2.44 -10.59)" fill="#919BB1"/>
</svg>