<svg xmlns="http://www.w3.org/2000/svg" width="90.17" height="47.7" viewBox="0 0 90.17 47.7">
    <path d="M94,48.82,92.94,39.2A3.57,3.57,0,0,0,89.1,36H76.33a.89.89,0,0,0-.32,0L64.88,68.54h.73c1.69-3.3,5.42-5.81,8.88-5.81a4.71,4.71,0,0,1,4.93,5.81h7.5a3.7,3.7,0,0,0,3.23-2.41l.54-1.6h-1l3.79-11.15A10.91,10.91,0,0,0,94,48.82Zm-3.36,4.81a.05.05,0,0,1-.06,0H86.78l-2.63-3.85a2.34,2.34,0,0,0-2-1h-6a0,0,0,0,1,0,0l3.22-9.49a0,0,0,0,1,0,0h7a3.68,3.68,0,0,1,4,3.24l1.06,8.87Z" transform="translate(-3.91 -28.09)" fill="#A4AEC2"/>
    <path d="M74.16,63.69a4,4,0,0,1,4.29,4.85,6.15,6.15,0,0,1-.29,1.2,9.28,9.28,0,0,1-8.1,6.06c-3.35,0-5.14-2.72-4-6.06a8,8,0,0,1,.53-1.2A9.27,9.27,0,0,1,74.16,63.69Z" transform="translate(-3.91 -28.09)" fill="#A4AEC2"/>
    <path d="M38.07,63.69a4,4,0,0,1,4.29,4.85,7,7,0,0,1-.29,1.2A9.28,9.28,0,0,1,34,75.8c-3.34,0-5.13-2.72-4-6.06a8,8,0,0,1,.53-1.2A9.26,9.26,0,0,1,38.07,63.69Z" transform="translate(-3.91 -28.09)" fill="#A4AEC2"/>
    <path d="M73.42,28.09H24.92a3.41,3.41,0,0,0-3.25,2.83l0,.2A2.37,2.37,0,0,0,24,34h4.73l-1.19,3.46H19.15a3.4,3.4,0,0,0-3.25,2.82l0,.21a2.37,2.37,0,0,0,2.4,2.82h7.3l-1.19,3.47h-11a3.4,3.4,0,0,0-3.25,2.82l0,.2a2.37,2.37,0,0,0,2.4,2.83h9.87L21.18,56H7.23A3.4,3.4,0,0,0,4,58.86l0,.21a2.36,2.36,0,0,0,2.39,2.82H19.16l-.45,1.31H17.8a3.08,3.08,0,0,0-2.73,1.89l-.56,1.56a1.33,1.33,0,0,0,1.37,1.89h13c1.83-3.56,5.85-6.27,9.6-6.27a5.08,5.08,0,0,1,5.32,6.27H59.5a4.64,4.64,0,0,0,4-3L75.38,31.1C76,29.43,75.08,28.09,73.42,28.09Z" transform="translate(-3.91 -28.09)" fill="#A4AEC2"/>
</svg>