<svg width="24" height="24" viewBox="0 0 24 24" fill="none" xmlns="http://www.w3.org/2000/svg">
    <path d="M12 2C6.47715 2 2 6.47715 2 12C2 17.5229 6.47715 22 12 22C17.5229 22 22 17.5229 22 12C22 6.47715 17.5229 2 12 2Z" fill="#4A525E"/>
    <path d="M17.3785 9.32525C17.0073 9.32526 16.6397 9.25215 16.2967 9.11009C15.9538 8.96804 15.6422 8.75983 15.3797 8.49734C15.1172 8.23486 14.909 7.92324 14.7669 7.58028C14.6248 7.23733 14.5517 6.86975 14.5517 6.49854H12.5322V14.4067C12.5318 14.7672 12.418 15.1185 12.2068 15.4107C11.9956 15.7029 11.6978 15.9213 11.3556 16.0348C11.0134 16.1483 10.6441 16.1513 10.3001 16.0432C9.95617 15.9352 9.65493 15.7216 9.43912 15.4328C9.22331 15.1439 9.10388 14.7945 9.09775 14.434C9.09163 14.0735 9.19912 13.7202 9.40499 13.4242C9.61086 13.1282 9.90466 12.9046 10.2448 12.7849C10.5849 12.6652 10.954 12.6556 11.2999 12.7574V10.7943C10.5649 10.6952 9.81707 10.8227 9.1564 11.1597C8.49572 11.4968 7.9536 12.0274 7.60243 12.6807C7.25125 13.3339 7.10773 14.0788 7.19104 14.8158C7.27434 15.5528 7.5805 16.2468 8.06864 16.8053C8.55678 17.3637 9.20366 17.7599 9.9229 17.941C10.6421 18.1221 11.3995 18.0794 12.0939 17.8187C12.7882 17.558 13.3866 17.0917 13.8089 16.4821C14.2313 15.8724 14.4576 15.1483 14.4577 14.4067L14.5163 10.4093C15.346 11.0185 16.3489 11.3462 17.3782 11.3447L17.3785 9.32525Z" fill="#919BB1"/>
    <path d="M16.8471 8.77549C16.0974 8.77547 15.3785 8.47764 14.8484 7.94752C14.3183 7.4174 14.0205 6.69842 14.0205 5.94873H12.0009V13.8569C12.0006 14.2174 11.8867 14.5687 11.6755 14.8609C11.4644 15.1532 11.1666 15.3715 10.8244 15.485C10.4821 15.5986 10.1129 15.6015 9.76891 15.4935C9.42494 15.3854 9.12369 15.1718 8.90788 14.883C8.69207 14.5942 8.57263 14.2448 8.5665 13.8843C8.56037 13.5238 8.66786 13.1705 8.87373 12.8745C9.0796 12.5785 9.37341 12.3548 9.71351 12.2351C10.0536 12.1154 10.4228 12.1058 10.7686 12.2076V10.2445C10.0336 10.1454 9.28582 10.2728 8.62515 10.6099C7.96447 10.947 7.42235 11.4776 7.07118 12.1309C6.72 12.7841 6.57648 13.529 6.65979 14.266C6.74309 15.003 7.04925 15.697 7.53739 16.2555C8.02553 16.8139 8.67241 17.2101 9.39165 17.3912C10.1109 17.5722 10.8683 17.5296 11.5626 17.2689C12.257 17.0082 12.8553 16.5419 13.2777 15.9322C13.7 15.3226 13.9264 14.5985 13.9264 13.8569L13.9853 9.85955C14.8151 10.4687 15.818 10.7964 16.8473 10.7949L16.8471 8.77549Z" fill="#C7CEDE"/>
    <path d="M16.844 9.27471C16.1453 9.14026 15.523 8.74723 15.1013 8.17408C14.5683 7.75696 14.2027 7.1624 14.071 6.49854H12.5317V14.4067C12.5317 14.782 12.4089 15.147 12.182 15.4459C11.9551 15.7449 11.6366 15.9614 11.2751 16.0624C10.9136 16.1634 10.529 16.1434 10.18 16.0053C9.83101 15.8673 9.53675 15.6188 9.34218 15.2979C8.99616 15.0726 8.74273 14.7304 8.6282 14.3338C8.51367 13.9371 8.54569 13.5125 8.7184 13.1375C8.89111 12.7625 9.19298 12.4622 9.56885 12.2914C9.94473 12.1206 10.3695 12.0907 10.7656 12.2073V10.7626C10.0862 10.7714 9.42284 10.9699 8.85031 11.3356C8.27778 11.7014 7.81889 12.22 7.52545 12.8327C7.232 13.4455 7.11568 14.1281 7.18961 14.8035C7.26355 15.4788 7.52479 16.1201 7.94386 16.6549C8.47588 17.0988 9.12342 17.3819 9.81059 17.4709C10.4977 17.5599 11.196 17.4512 11.8236 17.1575C12.4512 16.8638 12.9821 16.3973 13.3539 15.8126C13.7258 15.228 13.9234 14.5494 13.9233 13.8565L13.9822 9.8592C14.812 10.4683 15.8149 10.7961 16.8442 10.7946L16.844 9.27471Z" fill="#F7F9FC"/>
</svg>
