<svg width="24" height="24" viewBox="0 0 24 24" fill="none" xmlns="http://www.w3.org/2000/svg">
  <path d="M19.9931 6.68799C20.8895 6.15208 21.5602 5.30823 21.8801 4.31399C21.0377 4.81379 20.1161 5.16587 19.1551 5.35499C17.8226 3.94552 15.7116 3.60251 14.0015 4.51764C12.2913 5.43277 11.4056 7.37948 11.8391 9.26999C8.38867 9.09676 5.17403 7.4669 2.99506 4.78599C1.8579 6.74741 2.43902 9.25477 4.32306 10.516C3.64177 10.4941 2.97559 10.3096 2.38006 9.97799C2.38006 9.99599 2.38006 10.014 2.38006 10.032C2.38046 12.0751 3.82043 13.8351 5.82306 14.24C5.19113 14.4119 4.52827 14.4372 3.88506 14.314C4.44826 16.0613 6.05861 17.2583 7.89406 17.294C6.37389 18.4871 4.49654 19.1342 2.56406 19.131C2.22153 19.1315 1.87927 19.1118 1.53906 19.072C3.50145 20.333 5.78543 21.0023 8.11806 21C11.3633 21.0223 14.4821 19.7429 16.7768 17.448C19.0715 15.1531 20.3506 12.0342 20.3281 8.78899C20.3281 8.60299 20.3237 8.41799 20.3151 8.23399C21.1555 7.62659 21.8809 6.87414 22.4571 6.01199C21.6741 6.35905 20.8435 6.58691 19.9931 6.68799Z" fill="#4A525E"/>
</svg>
