<svg width="512" height="512" viewBox="0 0 512 512" fill="none" xmlns="http://www.w3.org/2000/svg">
<path d="M256 512C397.385 512 512 397.385 512 256C512 114.615 397.385 0 256 0C114.615 0 0 114.615 0 256C0 397.385 114.615 512 256 512Z" fill="white"/>
<path d="M52.9213 100.142C32.8123 126.305 17.6493 156.46 8.82031 189.219H141.998L52.9213 100.142Z" fill="#0052B4"/>
<path d="M503.184 189.219C494.355 156.461 479.191 126.306 459.083 100.143L370.008 189.219H503.184Z" fill="#0052B4"/>
<path d="M8.82031 322.784C17.6503 355.542 32.8133 385.697 52.9213 411.859L141.995 322.784H8.82031Z" fill="#0052B4"/>
<path d="M411.861 52.9208C385.698 32.8118 355.544 17.6488 322.785 8.81885V141.996L411.861 52.9208Z" fill="#0052B4"/>
<path d="M100.145 459.079C126.308 479.188 156.463 494.351 189.221 503.181V370.005L100.145 459.079Z" fill="#0052B4"/>
<path d="M189.22 8.81885C156.462 17.6488 126.307 32.8118 100.145 52.9198L189.22 141.995V8.81885Z" fill="#0052B4"/>
<path d="M322.785 503.181C355.543 494.351 385.698 479.188 411.86 459.08L322.785 370.005V503.181Z" fill="#0052B4"/>
<path d="M370.008 322.784L459.083 411.86C479.191 385.698 494.355 355.542 503.184 322.784H370.008Z" fill="#0052B4"/>
<path d="M509.833 222.609H289.393H289.392V2.167C278.461 0.744 267.317 0 256 0C244.681 0 233.539 0.744 222.609 2.167V222.607V222.608H2.167C0.744 233.539 0 244.683 0 256C0 267.319 0.744 278.461 2.167 289.391H222.607H222.608V509.833C233.539 511.256 244.681 512 256 512C267.317 512 278.461 511.257 289.391 509.833V289.393V289.392H509.833C511.256 278.461 512 267.319 512 256C512 244.683 511.256 233.539 509.833 222.609V222.609Z" fill="#D80027"/>
<path d="M322.781 322.784L437.017 437.02C442.271 431.768 447.283 426.277 452.065 420.585L354.263 322.783H322.781V322.784Z" fill="#D80027"/>
<path d="M189.217 322.784H189.215L74.9805 437.019C80.2325 442.273 85.7235 447.285 91.4155 452.067L189.217 354.263V322.784Z" fill="#D80027"/>
<path d="M189.218 189.219V189.217L74.9816 74.98C69.7276 80.232 64.7156 85.723 59.9336 91.415L157.737 189.218H189.218V189.219Z" fill="#D80027"/>
<path d="M322.781 189.219L437.018 74.9811C431.766 69.7271 426.275 64.7151 420.583 59.9341L322.781 157.737V189.219Z" fill="#D80027"/>
</svg>
