<svg width="475" height="218" viewBox="0 0 475 218" fill="none" xmlns="http://www.w3.org/2000/svg">
<path opacity="0.6" d="M475 0V218H0V119.966C34.5275 123.882 112.56 127.611 183.109 94.7238C202.571 85.657 220.708 76.2406 238.254 67.1388C303.913 33.0857 366.104 0.862397 475 0V0Z" fill="url(#paint0_linear_3072_324)"/>
<path d="M475 0C366.104 0.862397 303.913 33.0857 238.254 67.1388C220.708 76.2406 202.571 85.657 183.109 94.7238C112.56 127.611 34.5275 123.882 0 119.966V123.113C11.2602 124.372 26.8892 125.584 45.2945 125.584C84.6136 125.584 136.518 120.025 184.955 97.4392C204.487 88.3374 222.681 78.9093 240.255 69.7842C308.281 34.4959 367.26 3.91575 475 3.12328V0V0Z" fill="#59BE8B"/>
<defs>
<linearGradient id="paint0_linear_3072_324" x1="237.493" y1="0" x2="237.493" y2="218" gradientUnits="userSpaceOnUse">
<stop stop-color="#59BE8B" stop-opacity="0.65"/>
<stop offset="0.79" stop-color="#1D2621" stop-opacity="0.06"/>
<stop offset="0.86" stop-color="#181818" stop-opacity="0"/>
</linearGradient>
</defs>
</svg>
