<svg width="1512" height="218" viewBox="0 0 1512 218" fill="none" xmlns="http://www.w3.org/2000/svg">
<path opacity="0.6" d="M1512 0V218H0V119.966C109.907 123.882 358.295 127.611 582.864 94.7238C644.815 85.657 702.55 76.2406 758.4 67.1388C967.402 33.0857 1165.37 0.862397 1512 0V0Z" fill="url(#paint0_linear_3069_314)"/>
<path d="M1512 0C1165.37 0.862397 967.402 33.0857 758.4 67.1388C702.55 76.2406 644.815 85.657 582.864 94.7238C358.295 127.611 109.907 123.882 0 119.966V123.113C35.843 124.372 85.5925 125.584 144.179 125.584C269.338 125.584 434.557 120.025 588.74 97.4392C650.916 88.3374 708.83 78.9093 764.77 69.7842C981.308 34.4959 1169.05 3.91575 1512 3.12328V0V0Z" fill="#59BE8B"/>
<defs>
<linearGradient id="paint0_linear_3069_314" x1="755.978" y1="0" x2="755.978" y2="218" gradientUnits="userSpaceOnUse">
<stop stop-color="#59BE8B" stop-opacity="0.65"/>
<stop offset="0.79" stop-color="#1D2621" stop-opacity="0.06"/>
<stop offset="0.86" stop-color="#181818" stop-opacity="0"/>
</linearGradient>
</defs>
</svg>
