<svg width="1512" height="280" viewBox="0 0 1512 280" fill="none" xmlns="http://www.w3.org/2000/svg">
<path opacity="0.6" d="M1511.78 0V280H0.268555V119.772C110.156 123.682 358.5 127.405 583.028 94.5705C644.969 85.5184 702.693 76.1172 758.534 67.0301C967.274 33.0322 1165.21 0.861001 1511.78 0Z" fill="url(#paint0_linear_3061_308)"/>
<path d="M1511.78 0C1165.21 0.861001 967.275 33.0322 758.265 67.0301C702.425 76.1172 644.7 85.5184 582.76 94.5705C358.232 127.405 109.887 123.658 0 119.772V122.914C47.8758 124.569 96.124 125.393 144.423 125.38C269.559 125.38 434.749 119.83 588.905 97.2815C651.069 88.1945 708.973 78.7816 764.903 69.6713C981.403 34.4401 1169.11 3.90941 1512 3.11822L1511.78 0Z" fill="#59BE8B"/>
<defs>
<linearGradient id="paint0_linear_3061_308" x1="755.887" y1="0" x2="755.887" y2="280" gradientUnits="userSpaceOnUse">
<stop stop-color="#59BE8B" stop-opacity="0.5"/>
<stop offset="1" stop-color="white" stop-opacity="0"/>
</linearGradient>
</defs>
</svg>
