<?xml version="1.0" standalone="no"?>
<!DOCTYPE svg PUBLIC "-//W3C//DTD SVG 20010904//EN"
 "http://www.w3.org/TR/2001/REC-SVG-20010904/DTD/svg10.dtd">
<svg version="1.0" xmlns="http://www.w3.org/2000/svg"
 width="980.000000pt" height="400.000000pt" viewBox="0 0 980.000000 400.000000"
 preserveAspectRatio="xMidYMid meet">

<g transform="translate(0.000000,400.000000) scale(0.100000,-0.100000)"
fill="#000000" stroke="none">
<path d="M8000 2909 c-63 -54 -119 -99 -123 -99 -5 0 -113 36 -241 81 -244 86
-306 101 -306 78 0 -8 15 -63 34 -124 19 -60 33 -111 32 -112 0 -1 -55 13
-121 31 -66 18 -124 30 -128 26 -10 -9 -8 -13 101 -200 47 -80 117 -199 155
-265 39 -66 76 -130 84 -142 14 -21 10 -22 -234 -104 -136 -46 -241 -84 -233
-86 65 -11 644 -77 675 -77 40 0 345 109 392 139 12 9 23 25 23 38 0 12 -23
100 -51 195 l-51 173 17 87 c9 48 21 107 26 132 l10 45 259 90 c142 49 257 91
256 93 -2 2 -461 103 -461 101 0 0 -52 -45 -115 -100z"/>
<path d="M5101 2901 l-114 -97 -66 24 c-170 62 -438 152 -453 152 -9 0 -20 -4
-23 -10 -3 -5 10 -60 29 -122 20 -61 34 -113 33 -115 -2 -1 -52 11 -113 27
-128 35 -146 37 -137 13 5 -13 111 -197 330 -570 l24 -41 -240 -79 c-132 -43
-240 -80 -241 -83 0 -6 629 -83 675 -83 17 0 113 31 214 69 141 53 186 74 194
91 8 17 -2 61 -43 203 l-54 180 24 125 c13 68 26 129 30 135 3 5 120 50 260
99 140 50 252 90 248 90 -3 1 -99 21 -212 46 -114 25 -216 45 -229 44 -13 0
-68 -40 -136 -98z"/>
</g>
</svg>
