<svg width="63" height="17" viewBox="0 0 63 17" fill="none" xmlns="http://www.w3.org/2000/svg">
<g clip-path="url(#clip0)">
<path d="M0 8.16811C0 5.51676 1.89165 3.88703 4.91643 3.88703H8.04809V0H11.9676V12.2108H4.90184C1.89161 12.2108 0 10.6443 0 8.16811H0ZM4.13514 8.03676C4.13514 9.05351 4.75069 9.58378 5.93319 9.58378H8.02703V6.47027H5.95265C4.77 6.47027 4.13514 7.00541 4.13514 8.03676V8.03676ZM37.3135 8.03189C37.3135 10.6832 35.4219 12.313 32.3971 12.313H29.2654V16.2H25.3459V3.98919H32.4117C35.4219 3.98919 37.3135 5.55568 37.3135 8.03189V8.03189ZM33.1784 8.16324C33.1784 7.14649 32.5621 6.61622 31.378 6.61622H29.2865V9.72973H31.3634C32.5476 9.72973 33.1784 9.1946 33.1784 8.16324ZM63 8.03189C63 10.6832 61.1083 12.313 58.0836 12.313H54.9519V16.2H51.0324V3.98919H58.0982C61.1083 3.98919 63 5.55568 63 8.03189V8.03189ZM58.8649 8.16324C58.8649 7.14649 58.2486 6.61622 57.0645 6.61622H54.973V9.72973H57.0499C58.234 9.72973 58.8649 9.1946 58.8649 8.16324ZM38.4811 8.10487C38.4811 5.13749 40.8551 3.55135 44.1243 3.55135C47.3935 3.55135 49.7676 5.13749 49.7676 8.10487C49.7676 11.0721 47.3935 12.6973 44.1243 12.6973C40.8551 12.6924 38.4811 11.0721 38.4811 8.10487V8.10487ZM45.9243 8.05865C45.9243 6.61218 45.1995 5.88649 44.1 5.88649C43.0005 5.88649 42.2757 6.61218 42.2757 8.05865C42.2757 9.48561 43.0005 10.2649 44.1 10.2649C45.2043 10.26 45.9243 9.48561 45.9243 8.05865ZM24.0324 8.26599C24.0324 5.29871 22.1239 3.5027 18.6761 3.5027C15.3642 3.5027 13.2324 5.29871 13.2324 8.10983C13.2324 10.9552 15.3449 12.6486 18.8655 12.6486C21.0799 12.6486 22.867 11.819 23.809 10.472L21.0022 9.44708C20.5166 9.97905 19.7833 10.2719 19.0112 10.2719C17.8506 10.2719 17.0445 9.80338 16.8356 9.00783C16.821 8.95422 16.8113 8.90538 16.8017 8.84681H24.0324V8.26604V8.26599V8.26599ZM16.8324 7.00536C16.925 6.04143 17.5923 5.4486 18.7516 5.4486C19.911 5.4486 20.5784 6.07519 20.5784 7.00536H16.8324Z" fill="#919BB1"/>
</g>
<defs>
<clipPath id="clip0">
<rect width="63" height="16.2" fill="white"/>
</clipPath>
</defs>
</svg>
