<svg width="60" height="13" viewBox="0 0 60 13" fill="none" xmlns="http://www.w3.org/2000/svg">
<mask id="mask0" mask-type="alpha" maskUnits="userSpaceOnUse" x="0" y="0" width="12" height="13">
<path d="M0 0.00012207H11.3314V12.8524H0V0.00012207Z" fill="white"/>
</mask>
<g mask="url(#mask0)">
<path fill-rule="evenodd" clip-rule="evenodd" d="M11.3314 6.17077V10.6258L11.3091 10.6496C9.84138 12.1113 8.14761 12.8526 6.27665 12.8526C4.62277 12.8526 3.00852 12.208 1.84534 11.0844C1.28453 10.5259 0.828636 9.8385 0.494088 9.04014C0.165824 8.23384 0 7.35314 0 6.4214C0 5.48678 0.175251 4.60897 0.519469 3.81061C0.881333 2.98385 1.34641 2.31406 1.94082 1.76489C3.19973 0.593593 4.67691 0.00012207 6.32766 0.00012207C7.67576 0.00012207 9.61996 0.358612 11.2374 2.07426L11.2915 2.13156L10.2637 3.07582L10.2095 3.02189C9.61682 2.43612 8.9777 2.00131 8.41206 1.79667C7.86552 1.59972 7.07362 1.47766 6.3453 1.47766C5.19638 1.47766 4.21328 1.86649 3.25242 2.7012C2.28673 3.53928 1.73221 4.8962 1.73221 6.4214C1.73221 8.0198 2.17988 9.23853 3.06267 10.04C3.97421 10.8701 5.19469 11.3651 6.32766 11.3651C7.58342 11.3651 8.68134 10.9272 9.5912 10.0655V7.63892H6.53844V6.17077H11.3314Z" fill="#919BB1"/>
</g>
<mask id="mask1" mask-type="alpha" maskUnits="userSpaceOnUse" x="17" y="0" width="14" height="13">
<path d="M17.668 0H30.6054V12.8524H17.668V0Z" fill="white"/>
</mask>
<g mask="url(#mask1)">
<path fill-rule="evenodd" clip-rule="evenodd" d="M24.1327 11.3653C22.8484 11.3653 21.6564 10.9018 20.7768 10.0592C19.902 9.20518 19.3999 7.8786 19.3999 6.42152C19.3999 4.96469 19.902 3.63763 20.7768 2.7839C21.6564 1.941 22.8484 1.47778 24.1327 1.47778C25.9413 1.47778 27.3945 2.29516 28.2249 3.77895C28.6549 4.5424 28.8732 5.43273 28.8732 6.42152C28.8732 7.41032 28.6549 8.30065 28.2249 9.06385C27.7943 9.82898 27.2384 10.3926 26.5214 10.7877C25.8011 11.1765 25.0186 11.3653 24.1327 11.3653ZM30.0956 3.87116C29.7514 3.0521 29.3037 2.384 28.7267 1.82688C28.142 1.25387 27.4487 0.803172 26.6662 0.490426C25.8743 0.165161 25.0218 0 24.1327 0C23.2419 0 22.3894 0.165161 21.5975 0.490426C20.815 0.804857 20.122 1.25387 19.537 1.82688C18.9634 2.39025 18.5029 3.07762 18.1698 3.87116C17.8352 4.65363 17.668 5.51049 17.668 6.42152C17.668 7.61978 17.9547 8.72607 18.5237 9.71318C19.0908 10.6878 19.8766 11.4654 20.8612 12.024C21.8445 12.5732 22.9439 12.8527 24.1327 12.8527C25.3198 12.8527 26.4209 12.5732 27.4025 12.024C28.3873 11.4654 29.1744 10.6878 29.7402 9.71318C30.3139 8.73233 30.6054 7.6246 30.6054 6.42152C30.6054 5.52494 30.4333 4.66615 30.0956 3.87116Z" fill="#919BB1"/>
</g>
<path fill-rule="evenodd" clip-rule="evenodd" d="M39.0778 7.64668L40.8753 3.44736L42.6759 7.64668H39.0778ZM41.1794 0.285711L41.1586 0.238281H40.5932L35.2549 12.4939L35.207 12.6049H36.9552L38.3398 9.36714H43.4119L44.7999 12.6049H46.5462L41.1794 0.285711Z" fill="#919BB1"/>
<path fill-rule="evenodd" clip-rule="evenodd" d="M60.0004 0.238159V1.72533H56.1952V12.6047H54.4615V1.72533H50.6562V0.238159H60.0004Z" fill="#919BB1"/>
</svg>
