<svg width="70" height="10" viewBox="0 0 70 10" fill="none" xmlns="http://www.w3.org/2000/svg">
<g clip-path="url(#clip0)">
<path d="M4.60959 8.68183C6.02921 8.68183 7.36513 8.24697 8.38008 7.4564V3.81817H4.49408V5.14321H6.73524V6.64903L6.70137 6.67121C6.10039 7.06295 5.37549 7.27058 4.60918 7.27058C2.96732 7.27058 1.6812 5.98317 1.6812 4.3409C1.6812 2.77312 2.99494 1.49705 4.60918 1.49705C5.54416 1.49705 6.39332 1.77914 7.00689 2.29057L8.03562 1.17144C7.14792 0.40471 5.96519 6.74473e-08 4.60918 6.74473e-08C2.06791 -0.000418454 0 1.94696 0 4.34006C0 6.73443 2.06791 8.68183 4.60959 8.68183Z" fill="#919BB1"/>
<path d="M20.357 8.58097H20.3495H18.9466C18.6884 8.58097 18.315 8.52783 18.0661 8.28342C17.3198 7.551 16.502 6.62566 15.1829 5.13949L13.9951 5.14284V8.5827H12.375V0.0845947H15.6708C17.727 0.0845947 18.7821 1.09825 18.7821 2.73216C18.7821 4.27567 17.2244 4.87457 17.0285 4.94572L20.0205 8.24411L20.357 8.58097ZM13.9955 3.93332H15.4335C16.8113 3.93332 17.172 3.36747 17.172 2.54759C17.172 1.62475 16.4346 1.33555 15.4335 1.33555H13.9955V3.93332Z" fill="#919BB1"/>
<path d="M29.007 6.82946L29.7917 8.5827H31.4796L27.4179 0.0845947H26.6407L22.5898 8.5827H24.2786L25.0507 6.82946H29.007ZM27.022 2.41283L28.4479 5.51826H25.6103L27.022 2.41283Z" fill="#919BB1"/>
<path d="M36.5845 0.0845947H34.9648V8.5827H36.5845V0.0845947Z" fill="#919BB1"/>
<path d="M41.4883 0.0845947V8.5827H47.5476V7.25765H43.097V0.0845947H41.4883Z" fill="#919BB1"/>
<path d="M56.8726 4.99845V3.6709H52.9622V1.45986H57.6334V0.0845947H51.4023V8.5827H57.8908V7.20951H52.9622V4.99845H56.8726Z" fill="#919BB1"/>
<path d="M65.2471 0.0845947H61.8203V8.5827H65.5346C67.752 8.5827 69.6248 6.6403 69.6248 4.34012C69.6248 1.99431 67.6605 0.0845947 65.2471 0.0845947ZM65.3844 7.12454H63.419V1.54649H65.2471C66.765 1.54649 68.0029 2.80038 68.0029 4.34054C68.0024 5.8493 66.8043 7.12454 65.3844 7.12454Z" fill="#919BB1"/>
</g>
<defs>
<clipPath id="clip0">
<rect width="70" height="9.15385" fill="white"/>
</clipPath>
</defs>
</svg>
