<svg width="45" height="14" viewBox="0 0 45 14" fill="none" xmlns="http://www.w3.org/2000/svg">
<g clip-path="url(#clip0)">
<path fill-rule="evenodd" clip-rule="evenodd" d="M9.44669 0.0363324L6.28676 5.78346L9.5625 13.6709H5.92279L3.97059 8.80235L3.20956 10.1235V13.6709H0V0.0363324H3.19963V5.28471L5.89301 0.0363324H9.44669ZM45 0L43.3456 2.97265H41.4165V13.6379H38.1937V2.97265H35.8015L37.3136 0.217994L37.4294 0H45ZM13.7581 0V10.6751H17.2687V13.6478H10.5386V0H13.7581ZM25.7592 0V2.92311H21.3254V5.35738H24.7765V8.1847H21.3254V10.7148H25.8353V13.6379H18.129V0H25.7592ZM32.9195 0L30.2261 5.26159V0H27.0232V13.6379H30.2261V10.0905L30.9871 8.76932L32.9724 13.6412H36.6121L33.3331 5.75373L36.4699 0H32.9195Z" fill="#919BB1"/>
</g>
<defs>
<clipPath id="clip0">
<rect width="45" height="13.6709" fill="white"/>
</clipPath>
</defs>
</svg>
