<svg xmlns="http://www.w3.org/2000/svg" xmlns:xlink="http://www.w3.org/1999/xlink" width="657.71" height="157.44" viewBox="0 0 657.71 157.44">
    <defs>
        <linearGradient id="a" x1="432.81" y1="529.15" x2="861.83" y2="529.15" gradientUnits="userSpaceOnUse">
            <stop offset="0" stop-color="#ec3e26"/><stop offset="1" stop-color="#ff6c5c"/>
        </linearGradient>
    </defs>
    <path d="M452.9,547.7c-11.54,0-19.59-6.72-20.09-15.27h11.71c.41,3.48,3.65,6.14,8.29,6.14s7.06-2.08,7.06-4.73c0-8.22-26-3-26-19.84,0-7.63,6.81-13.77,18.18-13.77,11.12,0,17.84,6.06,18.51,15.18H459.45c-.33-3.56-3.15-6-7.71-6-4.32,0-6.56,1.74-6.56,4.4,0,8.38,25.48,3.15,25.81,20C471,541.72,464.1,547.7,452.9,547.7Z" transform="translate(-204.12 -443.63)" fill="url(#a)"/>
    <path d="M498.46,500.23c7.39,0,12.45,3.48,15.19,7.3V501h11.7v46h-11.7v-6.72c-2.74,4-8,7.47-15.27,7.47-11.62,0-20.91-9.55-20.91-23.9S486.76,500.23,498.46,500.23Zm3,10.21c-6.22,0-12.11,4.64-12.11,13.36s5.89,13.69,12.11,13.69c6.39,0,12.2-4.81,12.2-13.53S507.84,510.44,501.45,510.44Z" transform="translate(-204.12 -443.63)" fill="url(#a)"/>
    <path d="M568.85,521.56c0-7.39-4.07-11.37-10.21-11.37-6.31,0-10.38,4-10.38,11.37V547H536.65V501h11.61v5.73a17.18,17.18,0,0,1,13.86-6.39c10.71,0,18.35,7,18.35,19.67v27H568.85Z" transform="translate(-204.12 -443.63)" fill="url(#a)"/>
    <path d="M611.18,500.23c11.45,0,19.17,6,21.66,16.26H620.31c-1.33-3.9-4.4-6.39-9.22-6.39-6.47,0-10.78,4.9-10.78,13.86s4.31,13.78,10.78,13.78c4.82,0,7.81-2.16,9.22-6.31h12.53c-2.49,9.79-10.21,16.27-21.66,16.27-13.28,0-22.74-9.3-22.74-23.74S597.9,500.23,611.18,500.23Z" transform="translate(-204.12 -443.63)" fill="url(#a)"/>
    <path d="M643.13,510.52h-5.47V501h5.47V489.6h11.7V501h10.3v9.55h-10.3v22.24c0,3.07,1.25,4.4,4.9,4.4h5.4V547h-7.31c-8.79,0-14.69-3.73-14.69-14.27Z" transform="translate(-204.12 -443.63)" fill="url(#a)"/>
    <path d="M716.83,547h-11.7v-5.81a17,17,0,0,1-13.69,6.39c-10.71,0-18.43-7-18.43-19.58V501h11.62v25.32c0,7.38,4.07,11.37,10.21,11.37,6.31,0,10.29-4,10.29-11.37V501h11.7Z" transform="translate(-204.12 -443.63)" fill="url(#a)"/>
    <path d="M746.22,500.23c7.38,0,12.45,3.48,15.18,7.3V501h11.71v46H761.4v-6.72c-2.73,4-8,7.47-15.27,7.47-11.62,0-20.91-9.55-20.91-23.9S734.51,500.23,746.22,500.23Zm3,10.21c-6.22,0-12.11,4.64-12.11,13.36s5.89,13.69,12.11,13.69c6.39,0,12.2-4.81,12.2-13.53S755.59,510.44,749.2,510.44Z" transform="translate(-204.12 -443.63)" fill="url(#a)"/>
    <path d="M796,547H784.4V501H796v7.14a15.93,15.93,0,0,1,14.1-7.8v12.2h-3.07c-6.88,0-11,2.66-11,11.54Z" transform="translate(-204.12 -443.63)" fill="url(#a)"/>
    <path d="M849.47,501h12.36L833.37,568.7H821l10-22.91L812.53,501h13l11.87,32.12Z" transform="translate(-204.12 -443.63)" fill="url(#a)"/>
    <path d="M300.07,493.35s-65.59-17.94-69.36-19c-5.17-1.5-6,2.27-3.82,5.54,1.56,2.41,49.67,84.51,49.67,84.51l18.6,25Z" transform="translate(-204.12 -443.63)" fill="#b52d2d"/>
    <path d="M286.52,561.06l-82.4,27.28,99.3,12.26s-1.59-39.44-1.09-44C302.33,556.1,286.52,561.06,286.52,561.06Z" transform="translate(-204.12 -443.63)" fill="#d83c2d"/>
    <polygon points="228.31 14.5 147.38 42.82 160.93 0 228.31 14.5" fill="#ff6c5c"/>
    <polygon points="160.93 0 126.2 29.13 118.27 39.29 145.04 80.89 160.93 0" fill="#f15b4c"/>
    <path d="M337.73,482.52c-2.11-6.84-4.23-8.45-7.75-9.91-16.94-7-70.29-24.71-72-25.25-3.91-1.27-6.21,1.57-5.33,4.8S294.53,587.31,297,595.22c1.32,4.21,4.06,6.66,8.36,5.61,5-1.23,49.44-17.89,54.65-20,2-.79,6.12-3.82,3.8-10.44C362.5,566.66,338.47,484.91,337.73,482.52Z" transform="translate(-204.12 -443.63)" fill="#e54c3c"/>
</svg>